<?xml version="1.0" encoding="UTF-8"?>
<!DOCTYPE svg PUBLIC "-//W3C//DTD SVG 1.1//EN" "http://www.w3.org/Graphics/SVG/1.1/DTD/svg11.dtd">
<svg xmlns="http://www.w3.org/2000/svg" version="1.1" width="512px" height="512px" style="shape-rendering:geometricPrecision; text-rendering:geometricPrecision; image-rendering:optimizeQuality; fill-rule:evenodd; clip-rule:evenodd" xmlns:xlink="http://www.w3.org/1999/xlink">
<g><path style="opacity:1" fill="#33ab44" d="M 464.5,174.5 C 421.846,176.495 378.846,177.161 335.5,176.5C 293.09,138.992 246.757,133.492 196.5,160C 189.051,164.952 182.051,170.452 175.5,176.5C 132.154,177.161 89.1537,176.495 46.5,174.5C 73.2697,108.233 120.603,63.7331 188.5,41C 268.683,19.034 340.683,34.3673 404.5,87C 431.588,111.354 451.588,140.521 464.5,174.5 Z"/></g>
<g><path style="opacity:1" fill="#2b2fae" d="M 335.5,176.5 C 335.5,177.167 335.833,177.5 336.5,177.5C 371.93,218.87 377.097,263.87 352,312.5C 347.002,319.659 341.835,326.659 336.5,333.5C 335.833,333.5 335.5,333.833 335.5,334.5C 300.283,366.549 259.95,375.049 214.5,360C 199.829,354.002 186.829,345.502 175.5,334.5C 175.5,333.833 175.167,333.5 174.5,333.5C 143.737,297.6 136.237,257.267 152,212.5C 157.516,199.446 165.016,187.779 174.5,177.5C 175.167,177.5 175.5,177.167 175.5,176.5C 182.051,170.452 189.051,164.952 196.5,160C 246.757,133.492 293.09,138.992 335.5,176.5 Z"/></g>
<g><path style="opacity:1" fill="#f8e11a" d="M 282.5,224.5 C 281.957,224.56 281.624,224.893 281.5,225.5C 299.821,226.5 318.155,226.833 336.5,226.5C 321.75,238.388 306.75,250.055 291.5,261.5C 305.633,267.1 319.967,272.1 334.5,276.5C 333.955,279.917 332.622,282.917 330.5,285.5C 316.64,279.937 302.64,275.103 288.5,271C 295.022,289.266 300.522,307.766 305,326.5C 290.623,315.284 276.123,304.284 261.5,293.5C 261.44,292.957 261.107,292.624 260.5,292.5C 259.501,305.817 259.167,319.15 259.5,332.5C 256.833,332.5 254.167,332.5 251.5,332.5C 251.833,319.15 251.499,305.817 250.5,292.5C 249.893,292.624 249.56,292.957 249.5,293.5C 234.94,304.37 220.44,315.37 206,326.5C 210.478,307.766 215.978,289.266 222.5,271C 208.215,275.207 194.048,280.04 180,285.5C 178.278,282.721 177.111,279.721 176.5,276.5C 191.033,272.1 205.367,267.1 219.5,261.5C 204.25,250.055 189.25,238.388 174.5,226.5C 192.845,226.833 211.179,226.5 229.5,225.5C 229.376,224.893 229.043,224.56 228.5,224.5C 219.19,212.852 209.857,201.186 200.5,189.5C 202.126,188.01 203.792,186.51 205.5,185C 206.635,184.251 207.635,184.417 208.5,185.5C 217.811,197.312 227.311,208.978 237,220.5C 243.258,201.894 249.424,183.227 255.5,164.5C 261.576,183.227 267.742,201.894 274,220.5C 283.689,208.978 293.189,197.312 302.5,185.5C 303.365,184.417 304.365,184.251 305.5,185C 307.208,186.51 308.874,188.01 310.5,189.5C 301.143,201.186 291.81,212.852 282.5,224.5 Z"/></g>
<g><path style="opacity:1" fill="#83c22f" d="M 46.5,174.5 C 89.1537,176.495 132.154,177.161 175.5,176.5C 175.5,177.167 175.167,177.5 174.5,177.5C 131.5,177.5 88.5,177.5 45.5,177.5C 45.2627,176.209 45.596,175.209 46.5,174.5 Z"/></g>
<g><path style="opacity:1" fill="#83c22f" d="M 464.5,174.5 C 465.404,175.209 465.737,176.209 465.5,177.5C 422.5,177.5 379.5,177.5 336.5,177.5C 335.833,177.5 335.5,177.167 335.5,176.5C 378.846,177.161 421.846,176.495 464.5,174.5 Z"/></g>
<g><path style="opacity:0.998" fill="#fee60e" d="M 45.5,177.5 C 88.5,177.5 131.5,177.5 174.5,177.5C 165.016,187.779 157.516,199.446 152,212.5C 136.237,257.267 143.737,297.6 174.5,333.5C 131.5,333.5 88.5,333.5 45.5,333.5C 35.5844,308.576 30.9177,282.576 31.5,255.5C 30.9177,228.424 35.5844,202.424 45.5,177.5 Z"/></g>
<g><path style="opacity:0.998" fill="#fee60e" d="M 336.5,177.5 C 379.5,177.5 422.5,177.5 465.5,177.5C 475.416,202.424 480.082,228.424 479.5,255.5C 480.082,282.576 475.416,308.576 465.5,333.5C 422.5,333.5 379.5,333.5 336.5,333.5C 341.835,326.659 347.002,319.659 352,312.5C 377.097,263.87 371.93,218.87 336.5,177.5 Z"/></g>
<g><path style="opacity:1" fill="#3735a9" d="M 254.5,194.5 C 255.497,194.47 256.164,194.97 256.5,196C 259.811,206.096 262.811,216.263 265.5,226.5C 258.833,226.5 252.167,226.5 245.5,226.5C 248.5,215.833 251.5,205.167 254.5,194.5 Z"/></g>
<g><path style="opacity:1" fill="#55548e" d="M 228.5,224.5 C 229.043,224.56 229.376,224.893 229.5,225.5C 211.179,226.5 192.845,226.833 174.5,226.5C 192.5,225.833 210.5,225.167 228.5,224.5 Z"/></g>
<g><path style="opacity:1" fill="#55548e" d="M 282.5,224.5 C 300.5,225.167 318.5,225.833 336.5,226.5C 318.155,226.833 299.821,226.5 281.5,225.5C 281.624,224.893 281.957,224.56 282.5,224.5 Z"/></g>
<g><path style="opacity:1" fill="#80786e" d="M 232.5,236.5 C 222.167,235.167 211.833,235.167 201.5,236.5C 200.711,236.217 200.044,235.717 199.5,235C 210.848,234.168 222.181,234.334 233.5,235.5C 233.376,236.107 233.043,236.44 232.5,236.5 Z"/></g>
<g><path style="opacity:1" fill="#7f786e" d="M 309.5,236.5 C 299.167,235.167 288.833,235.167 278.5,236.5C 277.957,236.44 277.624,236.107 277.5,235.5C 288.819,234.334 300.152,234.168 311.5,235C 310.956,235.717 310.289,236.217 309.5,236.5 Z"/></g>
<g><path style="opacity:1" fill="#2e30ad" d="M 201.5,236.5 C 211.833,235.167 222.167,235.167 232.5,236.5C 230.906,242.949 228.906,249.282 226.5,255.5C 217.957,249.4 209.624,243.067 201.5,236.5 Z"/></g>
<g><path style="opacity:1" fill="#3231ac" d="M 242.5,234.5 C 251.192,234.169 259.859,234.502 268.5,235.5C 271.154,243.113 273.654,250.78 276,258.5C 276.781,259.944 276.614,261.277 275.5,262.5C 268.833,267.5 262.167,272.5 255.5,277.5C 248.161,272.152 241.161,266.485 234.5,260.5C 237.17,251.815 239.837,243.148 242.5,234.5 Z"/></g>
<g><path style="opacity:1" fill="#2e30ad" d="M 309.5,236.5 C 301.376,243.067 293.043,249.4 284.5,255.5C 282.094,249.282 280.094,242.949 278.5,236.5C 288.833,235.167 299.167,235.167 309.5,236.5 Z"/></g>
<g><path style="opacity:1" fill="#3533aa" d="M 231.5,270.5 C 237.209,274.357 242.542,278.69 247.5,283.5C 239.168,290.327 230.668,296.993 222,303.5C 224.437,292.349 227.603,281.349 231.5,270.5 Z"/></g>
<g><path style="opacity:1" fill="#3533ab" d="M 278.5,270.5 C 279.966,271.347 280.8,272.68 281,274.5C 284.154,284.125 286.821,293.792 289,303.5C 280.332,296.993 271.832,290.327 263.5,283.5C 268.345,278.923 273.345,274.589 278.5,270.5 Z"/></g>
<g><path style="opacity:1" fill="#6e697b" d="M 249.5,293.5 C 249.56,292.957 249.893,292.624 250.5,292.5C 251.499,305.817 251.833,319.15 251.5,332.5C 254.167,332.5 256.833,332.5 259.5,332.5C 259.167,319.15 259.501,305.817 260.5,292.5C 261.107,292.624 261.44,292.957 261.5,293.5C 260.504,306.656 260.171,319.99 260.5,333.5C 257.167,333.5 253.833,333.5 250.5,333.5C 250.829,319.99 250.496,306.656 249.5,293.5 Z"/></g>
<g><path style="opacity:1" fill="#f17620" d="M 45.5,333.5 C 88.5,333.5 131.5,333.5 174.5,333.5C 175.167,333.5 175.5,333.833 175.5,334.5C 132.154,333.839 89.1537,334.505 46.5,336.5C 45.596,335.791 45.2627,334.791 45.5,333.5 Z"/></g>
<g><path style="opacity:1" fill="#f17620" d="M 335.5,334.5 C 335.5,333.833 335.833,333.5 336.5,333.5C 379.5,333.5 422.5,333.5 465.5,333.5C 465.737,334.791 465.404,335.791 464.5,336.5C 421.846,334.505 378.846,333.839 335.5,334.5 Z"/></g>
<g><path style="opacity:1" fill="#e92c2a" d="M 175.5,334.5 C 186.829,345.502 199.829,354.002 214.5,360C 259.95,375.049 300.283,366.549 335.5,334.5C 378.846,333.839 421.846,334.505 464.5,336.5C 437.73,402.767 390.397,447.267 322.5,470C 242.314,491.966 170.314,476.632 106.5,424C 79.4121,399.646 59.4121,370.479 46.5,336.5C 89.1537,334.505 132.154,333.839 175.5,334.5 Z"/></g>
</svg>
