<?xml version="1.0" encoding="UTF-8"?>
<svg xmlns="http://www.w3.org/2000/svg" xmlns:xlink="http://www.w3.org/1999/xlink" width="111px" height="114px" viewBox="0 0 111 114" version="1.1">
<g id="surface1">
<path style=" stroke:none;fill-rule:evenodd;fill:rgb(38.039216%,48.235294%,35.294118%);fill-opacity:1;" d="M 57.816406 10.933594 C 57.445312 11.050781 57.460938 10.003906 57.460938 39.339844 L 57.460938 67.421875 L 52.292969 67.421875 L 52.292969 43.433594 C 52.292969 20.304688 52.285156 19.4375 52.128906 19.296875 C 51.890625 19.078125 45.167969 19.070312 44.949219 19.289062 C 44.824219 19.414062 44.808594 21.480469 44.808594 40.707031 C 44.808594 52.410156 44.785156 61.988281 44.757812 61.988281 C 44.730469 61.988281 44.21875 61.597656 43.621094 61.117188 C 42.898438 60.542969 42.175781 59.972656 41.449219 59.40625 L 40.367188 58.558594 L 40.359375 43.191406 C 40.355469 26.628906 40.378906 27.429688 39.925781 27.429688 C 39.839844 27.429688 38.910156 27.9375 37.859375 28.554688 C 36.808594 29.171875 35.765625 29.78125 35.546875 29.90625 C 34.546875 30.472656 33.355469 31.207031 33.296875 31.296875 C 33.261719 31.351562 33.230469 34.410156 33.230469 38.097656 L 33.230469 44.796875 L 20.132812 44.796875 L 20.132812 46.667969 L 27.082031 46.667969 C 32.578125 46.667969 34.03125 46.644531 34.039062 46.558594 C 34.046875 46.496094 34.042969 43.179688 34.035156 39.1875 C 34.03125 35.195312 34.054688 31.882812 34.09375 31.828125 C 34.160156 31.734375 39.328125 28.679688 39.421875 28.679688 C 39.445312 28.679688 39.464844 35.488281 39.464844 43.816406 L 39.464844 58.953125 L 40.855469 60.046875 C 45.492188 63.691406 45.28125 63.550781 45.566406 63.113281 C 45.6875 62.929688 45.699219 60.601562 45.679688 41.472656 L 45.65625 20.039062 L 51.402344 20.039062 L 51.402344 44.027344 C 51.402344 67.152344 51.40625 68.019531 51.566406 68.164062 C 51.804688 68.378906 57.84375 68.386719 58.152344 68.171875 L 58.351562 68.035156 L 58.351562 40.117188 C 58.351562 24.765625 58.371094 12.203125 58.398438 12.203125 C 58.449219 12.203125 59.621094 12.949219 61.984375 14.496094 C 62.753906 15 63.714844 15.621094 64.117188 15.875 L 64.855469 16.339844 L 64.855469 22.273438 C 64.855469 27.90625 64.863281 28.210938 65.015625 28.351562 C 65.230469 28.546875 65.351562 28.539062 65.566406 28.320312 C 65.742188 28.148438 65.746094 28.023438 65.746094 22.125 C 65.746094 18.429688 65.710938 16.046875 65.660156 15.949219 C 65.613281 15.859375 65.121094 15.492188 64.566406 15.136719 C 63.816406 14.648438 63.066406 14.15625 62.316406 13.667969 C 58.628906 11.25 58.007812 10.871094 57.816406 10.933594 M 99.285156 24.121094 C 99.039062 24.261719 97.578125 25.085938 96.035156 25.960938 C 94.667969 26.730469 93.300781 27.503906 91.9375 28.277344 C 90.617188 29.027344 88.027344 30.492188 82.8125 33.433594 C 81.199219 34.34375 79.835938 35.089844 79.78125 35.089844 C 79.726562 35.089844 79.328125 34.71875 78.894531 34.265625 C 78.460938 33.8125 77.164062 32.492188 76.011719 31.328125 L 73.914062 29.210938 L 70.253906 29.234375 L 66.589844 29.257812 L 66.5625 29.460938 C 66.527344 29.691406 66.640625 29.832031 70.101562 33.800781 C 73.203125 37.359375 73.109375 37.25 74.207031 38.519531 C 75.917969 40.496094 75.925781 40.503906 76.175781 40.203125 C 76.351562 39.992188 76.078125 36.652344 75.867188 36.441406 C 75.75 36.328125 75.683594 36.316406 75.566406 36.394531 C 75.429688 36.480469 75.414062 36.632812 75.4375 37.664062 C 75.453125 38.304688 75.445312 38.832031 75.421875 38.832031 C 75.398438 38.832031 74.785156 38.144531 74.058594 37.300781 C 72.695312 35.722656 70.128906 32.773438 68.585938 31.011719 C 68.101562 30.457031 67.703125 29.96875 67.703125 29.921875 C 67.703125 29.867188 68.839844 29.835938 70.640625 29.835938 L 73.578125 29.835938 L 75.925781 32.21875 C 77.21875 33.527344 78.554688 34.890625 78.898438 35.246094 C 79.238281 35.601562 79.59375 35.890625 79.683594 35.890625 C 79.851562 35.890625 80.089844 35.765625 82.359375 34.488281 C 83.804688 33.671875 84.175781 33.460938 86.679688 32.039062 C 88.164062 31.199219 89.648438 30.359375 91.132812 29.523438 C 94.839844 27.433594 97.140625 26.132812 98.660156 25.265625 L 99.910156 24.550781 L 101.019531 24.570312 C 101.632812 24.582031 102.140625 24.597656 102.148438 24.609375 C 102.160156 24.617188 101.839844 24.886719 101.4375 25.203125 C 101.039062 25.519531 99.929688 26.398438 98.972656 27.15625 C 93.683594 31.355469 94.105469 30.988281 94.25 31.257812 C 94.433594 31.601562 94.710938 31.425781 97.578125 29.144531 C 99 28.019531 100.417969 26.890625 101.835938 25.765625 C 104.210938 23.886719 104.21875 23.921875 101.59375 23.890625 L 99.730469 23.867188 L 99.285156 24.121094 M 64.871094 29.585938 C 64.789062 29.667969 64.765625 31.648438 64.765625 37.957031 L 64.765625 46.222656 L 63.757812 46.222656 C 62.339844 46.222656 62.359375 46.171875 62.851562 48.292969 C 63.910156 52.847656 63.738281 52.5625 65 51.878906 C 65.410156 51.660156 65.761719 51.476562 65.785156 51.476562 C 65.832031 51.476562 66.710938 52.769531 67.554688 54.082031 L 68.054688 54.859375 L 67.632812 55.046875 C 67.402344 55.148438 66.996094 55.316406 66.726562 55.414062 C 65.457031 55.886719 65.460938 55.898438 68.535156 58.359375 C 72.078125 61.195312 71.835938 61.121094 72.113281 59.472656 C 72.191406 59.019531 72.273438 58.542969 72.300781 58.414062 L 72.347656 58.183594 L 74.054688 58.660156 C 74.996094 58.921875 76.167969 59.242188 76.65625 59.371094 C 77.148438 59.5 77.5625 59.621094 77.582031 59.636719 C 77.601562 59.652344 77.492188 60.066406 77.339844 60.550781 C 76.847656 62.09375 76.597656 61.996094 80.761719 61.894531 C 82.574219 61.851562 84.128906 61.792969 84.214844 61.757812 C 84.5 61.648438 84.476562 61.320312 84.101562 60.242188 C 83.683594 59.046875 83.667969 59.117188 84.496094 58.757812 C 84.792969 58.632812 85.832031 58.167969 86.8125 57.726562 C 87.792969 57.285156 88.621094 56.941406 88.652344 56.960938 C 88.683594 56.984375 88.855469 57.351562 89.035156 57.777344 C 89.703125 59.371094 89.644531 59.382812 91.5625 57.421875 C 95.386719 53.519531 95.230469 53.875 93.429688 53.171875 L 92.472656 52.800781 L 92.648438 52.457031 C 92.746094 52.265625 93.246094 51.246094 93.757812 50.191406 C 94.269531 49.136719 94.707031 48.273438 94.734375 48.273438 C 94.757812 48.273438 95.164062 48.414062 95.640625 48.582031 C 96.613281 48.9375 96.878906 48.964844 97.003906 48.730469 C 97.054688 48.644531 97.140625 47.113281 97.203125 45.335938 L 97.3125 42.101562 L 97.117188 41.941406 C 96.929688 41.789062 96.886719 41.792969 95.929688 42.050781 C 95.386719 42.195312 94.910156 42.28125 94.875 42.242188 C 94.796875 42.15625 93.769531 38.03125 93.816406 38 C 93.835938 37.988281 94.253906 37.863281 94.742188 37.726562 C 95.761719 37.4375 95.855469 37.382812 95.851562 37.0625 C 95.851562 36.933594 95.296875 35.746094 94.625 34.421875 C 93.527344 32.257812 93.382812 32.015625 93.167969 31.992188 C 92.957031 31.964844 88.242188 35.605469 85.726562 37.730469 C 85.078125 38.28125 85.070312 38.359375 85.609375 39.0625 C 88.832031 43.261719 86.949219 49.460938 81.945312 51.132812 C 80.382812 51.65625 78.179688 51.585938 76.613281 50.96875 C 74.359375 50.082031 72.414062 47.871094 72.023438 45.757812 C 71.945312 45.339844 72.046875 45.335938 69.867188 45.78125 C 67.582031 46.25 67.769531 46.183594 67.84375 46.519531 C 69.289062 53.285156 76.492188 57.316406 83.292969 55.167969 C 90.113281 53.015625 93.523438 44.605469 90.132812 38.296875 C 89.734375 37.5625 89.09375 36.578125 88.980469 36.53125 C 88.765625 36.445312 89.0625 36.15625 90.695312 34.863281 C 91.683594 34.082031 92.570312 33.371094 92.671875 33.289062 C 92.773438 33.203125 92.886719 33.132812 92.929688 33.132812 C 93.046875 33.132812 94.808594 36.710938 94.726562 36.78125 C 94.6875 36.816406 94.339844 36.929688 93.953125 37.035156 C 93.164062 37.242188 92.828125 37.429688 92.824219 37.652344 C 92.820312 37.976562 94.109375 42.980469 94.234375 43.128906 C 94.410156 43.332031 94.589844 43.324219 95.539062 43.0625 C 95.976562 42.941406 96.351562 42.859375 96.375 42.882812 C 96.429688 42.9375 96.257812 47.722656 96.199219 47.78125 C 96.171875 47.808594 95.796875 47.707031 95.371094 47.554688 C 94.152344 47.125 94.488281 46.722656 92.246094 51.300781 C 91.246094 53.347656 91.234375 53.253906 92.601562 53.792969 C 93.5 54.148438 93.472656 54.128906 93.335938 54.328125 C 93.132812 54.617188 90.070312 57.710938 89.984375 57.710938 C 89.941406 57.710938 89.882812 57.613281 89.851562 57.492188 C 89.820312 57.371094 89.65625 56.972656 89.488281 56.601562 C 89.191406 55.949219 89.109375 55.875 88.742188 55.925781 C 88.628906 55.941406 83.566406 58.210938 83.125 58.445312 C 82.699219 58.671875 82.695312 58.789062 83.050781 59.867188 C 83.230469 60.417969 83.351562 60.894531 83.316406 60.925781 C 83.230469 61.003906 78.128906 61.09375 78.128906 61.019531 C 78.128906 60.988281 78.230469 60.652344 78.351562 60.269531 C 78.625 59.410156 78.628906 59.179688 78.371094 59.011719 C 77.96875 58.75 72.003906 57.160156 71.8125 57.261719 C 71.609375 57.371094 71.601562 57.398438 71.394531 58.496094 C 71.308594 58.949219 71.203125 59.308594 71.15625 59.292969 C 71.03125 59.25 67.265625 56.25 67.261719 56.191406 C 67.261719 56.160156 67.589844 56.007812 67.996094 55.851562 C 68.9375 55.484375 69.128906 55.355469 69.128906 55.09375 C 69.128906 54.96875 68.613281 54.097656 67.902344 53.023438 C 67.226562 52.003906 66.582031 51.019531 66.472656 50.835938 C 66.148438 50.308594 65.988281 50.308594 65.121094 50.828125 C 64.851562 50.988281 64.585938 51.121094 64.53125 51.121094 C 64.476562 51.121094 64.285156 50.503906 64.101562 49.71875 C 63.921875 48.949219 63.714844 48.082031 63.644531 47.796875 C 63.574219 47.511719 63.519531 47.246094 63.519531 47.203125 C 63.519531 47.164062 63.941406 47.117188 64.460938 47.101562 C 65.269531 47.074219 65.421875 47.046875 65.53125 46.898438 C 65.636719 46.75 65.65625 45.511719 65.65625 38.886719 L 65.65625 31.050781 L 66.105469 31.550781 C 66.351562 31.824219 66.859375 32.40625 67.238281 32.84375 C 68.890625 34.753906 73.628906 40.128906 73.710938 40.183594 C 73.949219 40.34375 73.59375 40.355469 72.71875 40.214844 C 71.597656 40.035156 71.289062 40.054688 71.121094 40.308594 C 70.84375 40.730469 71.128906 40.851562 73.09375 41.164062 C 74.945312 41.457031 75.3125 41.453125 75.410156 41.148438 C 75.484375 40.910156 75.382812 40.777344 73.535156 38.699219 C 73.140625 38.257812 71.164062 36.003906 69.136719 33.6875 C 65.289062 29.289062 65.226562 29.230469 64.871094 29.585938 M 78.484375 39.707031 C 75.921875 40.375 74.578125 43.238281 75.699219 45.625 C 77.660156 49.789062 83.828125 48.402344 83.828125 43.796875 C 83.828125 41.042969 81.167969 39.003906 78.484375 39.707031 M 7.769531 45.707031 L 7.796875 46.625 L 10.289062 46.625 L 10.289062 44.84375 L 9.015625 44.816406 L 7.742188 44.792969 L 7.769531 45.707031 M 10.886719 45.710938 L 10.914062 46.625 L 14.121094 46.625 L 14.121094 44.84375 L 12.492188 44.820312 L 10.863281 44.792969 L 10.886719 45.710938 M 14.699219 45.734375 L 14.699219 46.667969 L 19.507812 46.667969 L 19.507812 44.796875 L 14.699219 44.796875 L 14.699219 45.734375 M 7.453125 47.261719 C 7.160156 47.554688 7.367188 47.558594 20.890625 47.558594 C 34.527344 47.558594 34.535156 47.558594 34.230469 47.257812 C 34.160156 47.183594 7.527344 47.1875 7.453125 47.261719 M 25.511719 76.59375 C 25.523438 76.832031 25.550781 76.859375 25.8125 76.859375 C 26.117188 76.859375 26.160156 76.78125 26.007812 76.5 C 25.851562 76.207031 25.503906 76.273438 25.511719 76.59375 M 32.199219 76.394531 C 32.054688 76.417969 32.019531 76.476562 32.042969 76.664062 C 32.066406 76.855469 32.015625 76.941406 31.789062 77.082031 C 31.230469 77.429688 31.261719 78.027344 31.835938 78.011719 C 31.988281 78.007812 32.066406 77.984375 32.003906 77.960938 C 31.859375 77.902344 31.855469 77.199219 32 77.058594 C 32.171875 76.882812 32.585938 76.925781 32.648438 77.121094 C 32.707031 77.3125 32.484375 77.929688 32.351562 77.929688 C 32.210938 77.929688 31.617188 78.488281 31.484375 78.75 C 31.246094 79.203125 31.371094 79.539062 31.746094 79.46875 C 31.910156 79.4375 31.9375 79.382812 31.910156 79.140625 C 31.867188 78.78125 32.246094 78.285156 32.558594 78.285156 C 32.800781 78.285156 32.871094 78.433594 32.871094 78.949219 C 32.871094 79.378906 33.011719 79.550781 33.292969 79.476562 C 33.457031 79.433594 33.472656 79.390625 33.402344 79.207031 C 33.355469 79.085938 33.316406 78.855469 33.316406 78.699219 C 33.316406 78.339844 33.179688 78.195312 32.839844 78.195312 L 32.570312 78.195312 L 32.796875 77.953125 C 33.226562 77.488281 33.21875 77.027344 32.777344 76.871094 C 32.609375 76.8125 32.535156 76.738281 32.566406 76.65625 C 32.628906 76.496094 32.433594 76.355469 32.199219 76.394531 M 29.375 76.597656 C 29.769531 76.753906 29.546875 77.75 29.117188 77.75 C 29.058594 77.75 29.03125 77.769531 29.054688 77.792969 C 29.078125 77.816406 29.238281 77.796875 29.410156 77.75 C 30.25 77.515625 30.28125 76.492188 29.449219 76.511719 C 29.195312 76.515625 29.191406 76.523438 29.375 76.597656 M 36.066406 76.992188 C 36.097656 77.53125 35.839844 77.929688 35.449219 77.929688 C 35.265625 77.929688 35.257812 77.898438 35.304688 77.433594 C 35.332031 77.160156 35.402344 76.878906 35.460938 76.808594 C 35.6875 76.539062 35.464844 76.597656 35.15625 76.890625 C 34.714844 77.304688 34.703125 77.820312 35.125 78.65625 C 35.421875 79.246094 35.488281 79.28125 35.882812 79.035156 C 35.898438 79.027344 35.789062 78.839844 35.636719 78.617188 C 35.296875 78.113281 35.300781 78.046875 35.65625 77.96875 C 36.46875 77.796875 36.875 77.125 36.4375 76.683594 C 36.128906 76.375 36.03125 76.453125 36.066406 76.992188 M 43.1875 76.613281 C 43.347656 76.769531 43.320312 77.585938 43.152344 77.828125 L 43.007812 78.035156 L 43.28125 77.890625 C 43.953125 77.546875 43.917969 76.503906 43.238281 76.503906 C 43.117188 76.503906 43.105469 76.527344 43.1875 76.613281 M 56.105469 76.613281 C 56.265625 76.773438 56.242188 77.660156 56.070312 77.851562 C 55.9375 77.996094 55.941406 78.003906 56.117188 77.957031 C 56.652344 77.816406 56.890625 76.765625 56.429688 76.589844 C 56.105469 76.46875 55.972656 76.476562 56.105469 76.613281 M 68.011719 76.566406 C 67.683594 76.628906 67.828125 77.109375 68.183594 77.144531 L 68.460938 77.171875 L 68.488281 78.234375 C 68.515625 79.445312 68.554688 79.535156 69.03125 79.46875 C 69.234375 79.441406 69.398438 79.464844 69.433594 79.523438 C 69.59375 79.777344 69.933594 79.632812 69.933594 79.308594 C 69.933594 78.949219 69.765625 78.898438 69.488281 79.175781 C 69.078125 79.585938 68.953125 79.359375 68.953125 78.179688 C 68.953125 77.371094 68.882812 77.203125 68.507812 77.082031 C 68.382812 77.042969 68.328125 76.949219 68.328125 76.765625 C 68.328125 76.621094 68.296875 76.511719 68.261719 76.515625 C 68.226562 76.523438 68.113281 76.546875 68.011719 76.566406 M 71.96875 76.960938 C 71.992188 77.320312 71.957031 77.46875 71.808594 77.671875 C 71.597656 77.957031 71.679688 77.996094 72.070312 77.796875 C 72.546875 77.550781 72.6875 76.902344 72.316406 76.644531 C 71.992188 76.417969 71.933594 76.472656 71.96875 76.960938 M 82.023438 76.574219 C 81.734375 76.609375 81.710938 76.789062 81.957031 77.039062 C 82.253906 77.335938 82.5 77.277344 82.433594 76.929688 C 82.367188 76.566406 82.328125 76.535156 82.023438 76.574219 M 19.609375 76.738281 C 19.265625 76.980469 19.152344 77.394531 19.152344 78.40625 C 19.152344 79.355469 19.234375 79.597656 19.519531 79.488281 C 19.617188 79.453125 19.644531 79.179688 19.644531 78.257812 C 19.644531 77.277344 19.671875 77.035156 19.800781 76.835938 C 19.980469 76.5625 19.914062 76.527344 19.609375 76.738281 M 20.476562 76.710938 C 20.535156 76.78125 20.582031 77.363281 20.597656 78.160156 L 20.625 79.488281 L 20.839844 79.464844 C 21.105469 79.433594 21.078125 79.613281 21.027344 78.183594 C 20.988281 77.15625 20.953125 76.941406 20.808594 76.78125 C 20.621094 76.574219 20.304688 76.507812 20.476562 76.710938 M 21.941406 76.664062 C 21.871094 76.707031 21.863281 76.777344 21.917969 76.863281 C 21.964844 76.933594 22 77.085938 22.003906 77.199219 C 22.003906 77.367188 22.039062 77.394531 22.183594 77.351562 C 22.417969 77.277344 22.410156 77.394531 22.136719 77.929688 C 21.519531 79.148438 21.472656 79.558594 21.960938 79.464844 C 22.132812 79.433594 22.183594 79.367188 22.183594 79.179688 C 22.183594 79.046875 22.359375 78.53125 22.574219 78.035156 L 22.96875 77.136719 L 22.714844 77.1875 C 22.480469 77.234375 22.460938 77.214844 22.433594 76.9375 C 22.402344 76.628906 22.179688 76.507812 21.941406 76.664062 M 28.671875 76.792969 C 28.183594 77.207031 28.109375 77.714844 28.460938 78.234375 C 28.613281 78.457031 28.683594 78.683594 28.683594 78.941406 C 28.683594 79.382812 28.792969 79.523438 29.085938 79.464844 C 29.269531 79.429688 29.285156 79.398438 29.214844 79.207031 C 29.167969 79.085938 29.128906 78.832031 29.128906 78.640625 C 29.128906 78.417969 29.050781 78.175781 28.90625 77.964844 C 28.785156 77.785156 28.683594 77.59375 28.683594 77.539062 C 28.683594 77.289062 28.871094 76.828125 29.015625 76.71875 C 29.144531 76.625 29.148438 76.597656 29.042969 76.597656 C 28.96875 76.597656 28.800781 76.683594 28.671875 76.792969 M 39.910156 76.855469 C 39.910156 77.058594 39.804688 77.203125 39.40625 77.542969 C 38.425781 78.378906 38.125 79.085938 38.617188 79.40625 C 38.914062 79.601562 39.191406 79.515625 38.972656 79.296875 C 38.671875 78.996094 38.855469 78.574219 39.589844 77.886719 C 40.503906 77.027344 40.699219 76.59375 40.175781 76.59375 C 39.941406 76.59375 39.910156 76.625 39.910156 76.855469 M 42.363281 76.804688 C 41.816406 77.242188 42.144531 78.820312 42.785156 78.820312 L 43.089844 78.820312 L 42.835938 78.316406 C 42.539062 77.726562 42.488281 77.023438 42.730469 76.757812 C 42.953125 76.511719 42.691406 76.542969 42.363281 76.804688 M 46.144531 76.859375 C 46.144531 77.0625 46 77.296875 45.523438 77.835938 C 45.179688 78.222656 44.863281 78.636719 44.820312 78.75 C 44.65625 79.183594 45.023438 79.550781 45.59375 79.519531 C 45.8125 79.507812 45.816406 79.503906 45.628906 79.46875 C 45.433594 79.433594 45.253906 79.140625 45.253906 78.863281 C 45.253906 78.792969 45.507812 78.445312 45.820312 78.089844 C 46.660156 77.125 46.855469 76.59375 46.367188 76.59375 C 46.179688 76.59375 46.144531 76.636719 46.144531 76.859375 M 48.238281 76.683594 C 48.207031 76.734375 48.207031 76.851562 48.238281 76.949219 C 48.277344 77.066406 48.222656 77.203125 48.066406 77.371094 C 47.648438 77.820312 47.621094 78.84375 48.023438 78.890625 C 48.25 78.917969 48.253906 78.910156 48.214844 78.4375 C 48.175781 77.953125 48.359375 77.394531 48.558594 77.394531 C 48.703125 77.394531 48.886719 77.921875 48.984375 78.625 C 49.085938 79.363281 49.179688 79.523438 49.472656 79.46875 C 49.671875 79.429688 49.675781 79.414062 49.570312 79.058594 C 49.511719 78.855469 49.417969 78.449219 49.363281 78.160156 C 49.308594 77.855469 49.160156 77.480469 49.019531 77.277344 C 48.886719 77.085938 48.734375 76.851562 48.6875 76.757812 C 48.589844 76.582031 48.328125 76.535156 48.238281 76.683594 M 51.035156 76.691406 C 51.21875 76.765625 51.238281 76.816406 51.195312 77.105469 C 51.046875 78.0625 51.027344 79.316406 51.15625 79.425781 C 51.445312 79.664062 51.582031 79.460938 51.582031 78.789062 C 51.582031 78.4375 51.601562 77.800781 51.628906 77.375 L 51.671875 76.59375 L 51.246094 76.597656 C 50.886719 76.605469 50.855469 76.617188 51.035156 76.691406 M 52.023438 76.726562 C 52.097656 76.8125 52.121094 77.058594 52.097656 77.4375 C 52.058594 78.078125 52.074219 78.101562 52.414062 77.835938 C 52.851562 77.492188 52.652344 76.59375 52.144531 76.59375 C 51.949219 76.59375 51.933594 76.613281 52.023438 76.726562 M 55.445312 76.699219 C 54.761719 77.027344 54.996094 78.820312 55.726562 78.820312 L 56.007812 78.820312 L 55.785156 78.371094 C 55.496094 77.785156 55.425781 77.121094 55.625 76.816406 C 55.78125 76.578125 55.742188 76.550781 55.445312 76.699219 M 61.640625 76.617188 C 61.636719 76.628906 61.628906 76.851562 61.621094 77.109375 C 61.601562 77.558594 61.613281 77.578125 61.804688 77.53125 C 62.007812 77.480469 62.007812 77.480469 61.863281 77.761719 C 61.753906 77.972656 61.746094 78.058594 61.824219 78.109375 C 61.90625 78.15625 61.90625 78.222656 61.835938 78.359375 C 61.707031 78.59375 61.707031 79.289062 61.832031 79.414062 C 62.085938 79.667969 62.226562 79.449219 62.195312 78.855469 C 62.175781 78.433594 62.203125 78.21875 62.308594 78.058594 C 62.414062 77.902344 62.421875 77.84375 62.339844 77.863281 C 62.210938 77.886719 62.234375 77.496094 62.367188 77.355469 C 62.535156 77.179688 62.441406 77.109375 62.257812 77.269531 L 62.066406 77.441406 L 62.113281 77.128906 C 62.171875 76.710938 62.117188 76.59375 61.863281 76.59375 C 61.742188 76.59375 61.644531 76.605469 61.640625 76.617188 M 65.476562 76.875 C 65.476562 77.078125 65.367188 77.28125 65.054688 77.640625 C 64.050781 78.792969 63.960938 79.023438 64.375 79.347656 C 64.503906 79.449219 64.734375 79.53125 64.886719 79.53125 L 65.164062 79.53125 L 64.941406 79.417969 C 64.503906 79.195312 64.585938 78.777344 65.21875 78.066406 C 66.027344 77.15625 66.230469 76.59375 65.746094 76.59375 C 65.503906 76.59375 65.476562 76.621094 65.476562 76.875 M 71.214844 76.765625 C 70.664062 77.097656 70.601562 77.75 71.035156 78.585938 C 71.203125 78.90625 71.316406 79.1875 71.289062 79.214844 C 71.257812 79.246094 71.363281 79.222656 71.519531 79.167969 C 71.851562 79.054688 71.863281 79.007812 71.625 78.710938 C 71.332031 78.335938 71.25 78.039062 71.429688 77.992188 C 71.5625 77.953125 71.5625 77.949219 71.433594 77.941406 C 71.152344 77.921875 71.175781 77.0625 71.464844 76.707031 C 71.589844 76.554688 71.539062 76.566406 71.214844 76.765625 M 73.75 76.65625 C 73.960938 76.699219 73.960938 76.710938 73.902344 77.378906 C 73.722656 79.324219 73.761719 79.628906 74.171875 79.5 C 74.324219 79.453125 74.339844 79.367188 74.324219 78.695312 C 74.316406 78.28125 74.339844 77.636719 74.375 77.269531 L 74.4375 76.59375 L 73.988281 76.605469 C 73.742188 76.613281 73.636719 76.636719 73.75 76.65625 M 74.738281 76.722656 C 74.808594 76.804688 74.835938 77.070312 74.816406 77.4375 C 74.785156 78.082031 74.796875 78.097656 75.132812 77.835938 C 75.566406 77.492188 75.371094 76.59375 74.859375 76.59375 C 74.671875 76.59375 74.648438 76.617188 74.738281 76.722656 M 78.8125 76.652344 C 78.777344 76.6875 78.75 76.808594 78.75 76.925781 C 78.75 77.074219 78.527344 77.375 78.039062 77.886719 C 77.261719 78.699219 77.148438 79 77.503906 79.355469 C 77.695312 79.542969 77.777344 79.554688 78.128906 79.445312 C 78.335938 79.375 78.339844 79.371094 78.152344 79.363281 C 77.945312 79.355469 77.769531 79.117188 77.773438 78.847656 C 77.773438 78.757812 78.003906 78.445312 78.285156 78.152344 C 79.082031 77.3125 79.285156 77.042969 79.285156 76.808594 C 79.285156 76.597656 78.96875 76.492188 78.8125 76.652344 M 80.042969 76.667969 C 79.917969 76.710938 79.859375 76.8125 79.851562 77.023438 C 79.832031 77.421875 80.160156 77.390625 80.355469 76.972656 C 80.445312 76.777344 80.550781 76.6875 80.691406 76.683594 L 80.890625 76.683594 L 80.832031 78.050781 C 80.769531 79.492188 80.78125 79.546875 81.175781 79.46875 C 81.375 79.433594 81.402344 79.394531 81.335938 79.269531 C 81.285156 79.175781 81.277344 78.597656 81.316406 77.851562 L 81.378906 76.59375 L 80.800781 76.601562 C 80.480469 76.609375 80.140625 76.636719 80.042969 76.667969 M 85.148438 76.699219 C 85.21875 76.773438 85.253906 77.207031 85.253906 78.070312 C 85.253906 79.414062 85.300781 79.574219 85.675781 79.476562 C 85.839844 79.433594 85.855469 79.394531 85.777344 79.191406 C 85.730469 79.066406 85.695312 78.65625 85.699219 78.289062 C 85.722656 77.109375 85.707031 76.992188 85.519531 76.789062 C 85.417969 76.679688 85.269531 76.59375 85.1875 76.59375 C 85.074219 76.59375 85.0625 76.617188 85.148438 76.699219 M 86.96875 76.652344 C 86.890625 76.683594 86.882812 76.742188 86.949219 76.867188 C 87.019531 77 86.984375 77.109375 86.777344 77.398438 C 86.210938 78.179688 86.171875 79.570312 86.71875 79.464844 C 86.90625 79.429688 86.941406 79.386719 86.894531 79.238281 C 86.785156 78.898438 86.851562 78.1875 87.03125 77.789062 C 87.324219 77.128906 87.488281 77.292969 87.660156 78.417969 C 87.792969 79.285156 87.921875 79.527344 88.21875 79.46875 C 88.429688 79.429688 88.429688 79.417969 88.316406 79.058594 C 88.253906 78.855469 88.140625 78.410156 88.0625 78.074219 C 87.96875 77.640625 87.832031 77.335938 87.597656 77.027344 C 87.277344 76.605469 87.199219 76.558594 86.96875 76.652344 M 89.621094 77.082031 C 89.621094 77.558594 89.628906 77.582031 89.8125 77.523438 C 89.972656 77.472656 89.992188 77.488281 89.933594 77.628906 C 89.890625 77.722656 89.851562 77.917969 89.835938 78.0625 C 89.824219 78.210938 89.785156 78.515625 89.75 78.738281 C 89.675781 79.226562 89.800781 79.539062 90.046875 79.472656 C 90.1875 79.4375 90.207031 79.363281 90.171875 78.957031 C 90.144531 78.636719 90.179688 78.390625 90.269531 78.203125 C 90.347656 78.054688 90.371094 77.929688 90.324219 77.929688 C 90.1875 77.929688 90.234375 77.539062 90.398438 77.304688 L 90.550781 77.082031 L 90.324219 77.230469 L 90.09375 77.378906 L 90.101562 77.007812 C 90.109375 76.667969 90.089844 76.636719 89.863281 76.609375 C 89.621094 76.582031 89.621094 76.589844 89.621094 77.082031 M 50.390625 76.867188 C 49.949219 77.214844 50.113281 78.195312 50.609375 78.195312 C 50.761719 78.195312 50.769531 78.171875 50.683594 78.003906 C 50.582031 77.816406 50.609375 77.132812 50.734375 76.839844 C 50.820312 76.628906 50.675781 76.640625 50.390625 76.867188 M 58.722656 78.070312 L 58.699219 79.457031 L 58.945312 79.429688 L 59.195312 79.398438 L 59.222656 78.464844 C 59.238281 77.949219 59.28125 77.339844 59.320312 77.105469 L 59.394531 76.683594 L 58.75 76.683594 L 58.722656 78.070312 M 59.6875 77.328125 L 59.730469 77.972656 L 60.027344 78.003906 C 60.300781 78.027344 60.316406 78.015625 60.226562 77.851562 C 60.105469 77.625 60.105469 77.078125 60.226562 76.855469 C 60.308594 76.699219 60.285156 76.683594 59.980469 76.683594 L 59.640625 76.683594 L 59.6875 77.328125 M 60.558594 76.789062 C 60.691406 76.921875 60.699219 77.609375 60.574219 77.847656 C 60.453125 78.074219 60.660156 78.082031 60.925781 77.863281 C 61.378906 77.496094 61.207031 76.683594 60.679688 76.683594 C 60.503906 76.683594 60.476562 76.707031 60.558594 76.789062 M 73.089844 76.902344 C 72.648438 77.34375 72.863281 78.199219 73.414062 78.195312 C 73.582031 78.195312 73.601562 78.175781 73.496094 78.109375 C 73.351562 78.019531 73.3125 77.347656 73.429688 76.929688 C 73.515625 76.617188 73.382812 76.609375 73.089844 76.902344 M 84.160156 76.894531 C 84.035156 77.011719 83.902344 77.25 83.871094 77.421875 C 83.816406 77.71875 83.789062 77.742188 83.382812 77.796875 C 82.996094 77.847656 82.953125 77.878906 82.917969 78.117188 C 82.894531 78.265625 82.914062 78.40625 82.957031 78.429688 C 83.089844 78.511719 83.472656 78.203125 83.472656 78.015625 C 83.472656 77.898438 83.53125 77.839844 83.652344 77.839844 C 83.816406 77.839844 83.828125 77.898438 83.828125 78.585938 C 83.828125 79.351562 83.925781 79.59375 84.195312 79.488281 C 84.292969 79.453125 84.320312 79.171875 84.320312 78.210938 C 84.320312 77.296875 84.351562 76.9375 84.441406 76.832031 C 84.628906 76.605469 84.421875 76.65625 84.160156 76.894531 M 26.300781 78.042969 C 26.273438 79.367188 26.320312 79.589844 26.605469 79.496094 C 26.753906 79.453125 26.777344 79.359375 26.777344 78.886719 C 26.777344 78.582031 26.789062 78.03125 26.804688 77.664062 C 26.84375 76.753906 26.847656 76.773438 26.570312 76.773438 L 26.324219 76.773438 L 26.300781 78.042969 M 58.054688 77.003906 C 57.570312 77.484375 57.65625 78.285156 58.1875 78.285156 C 58.410156 78.285156 58.453125 78.261719 58.367188 78.179688 C 58.222656 78.03125 58.234375 77.457031 58.390625 77.082031 C 58.554688 76.691406 58.398438 76.65625 58.054688 77.003906 M 30.34375 77.023438 C 30.257812 77.160156 30.5625 77.484375 30.769531 77.484375 C 30.941406 77.484375 30.964844 77.445312 30.929688 77.21875 C 30.890625 76.953125 30.472656 76.816406 30.34375 77.023438 M 63.003906 77.136719 C 63.140625 77.214844 63.160156 77.371094 63.164062 78.269531 C 63.164062 79.417969 63.203125 79.550781 63.503906 79.472656 C 63.660156 79.433594 63.699219 79.375 63.660156 79.230469 C 63.632812 79.128906 63.609375 78.679688 63.609375 78.234375 C 63.605469 77.351562 63.457031 77.035156 63.046875 77.042969 C 62.871094 77.042969 62.867188 77.054688 63.003906 77.136719 M 91.023438 77.152344 C 91.074219 77.210938 91.128906 77.75 91.152344 78.351562 C 91.191406 79.566406 91.183594 79.535156 91.492188 79.472656 L 91.714844 79.433594 L 91.664062 78.480469 C 91.617188 77.519531 91.523438 77.195312 91.261719 77.09375 C 91.023438 77.003906 90.921875 77.027344 91.023438 77.152344 M 33.472656 77.203125 C 33.203125 77.308594 33.523438 77.664062 33.878906 77.65625 C 34.035156 77.652344 34.113281 77.628906 34.054688 77.605469 C 33.992188 77.578125 33.941406 77.460938 33.941406 77.34375 C 33.941406 77.121094 33.792969 77.074219 33.472656 77.203125 M 67.417969 77.386719 L 67.125 77.648438 L 67.125 79.398438 L 67.414062 79.425781 C 67.695312 79.453125 67.703125 79.445312 67.617188 79.222656 C 67.484375 78.875 67.507812 77.789062 67.65625 77.4375 C 67.8125 77.0625 67.789062 77.054688 67.417969 77.386719 M 27.269531 77.726562 C 27.449219 78.203125 27.792969 78.25 27.777344 77.796875 C 27.765625 77.503906 27.746094 77.484375 27.46875 77.484375 C 27.1875 77.484375 27.179688 77.492188 27.269531 77.726562 M 25.476562 77.746094 C 25.476562 77.839844 25.453125 77.976562 25.425781 78.054688 C 25.359375 78.230469 25.679688 78.253906 25.8125 78.085938 C 26.058594 77.777344 26.035156 77.574219 25.75 77.574219 C 25.542969 77.574219 25.476562 77.613281 25.476562 77.746094 M 23.066406 77.832031 C 23.175781 77.941406 23.273438 78.242188 23.34375 78.667969 C 23.476562 79.492188 23.496094 79.519531 23.855469 79.464844 C 24.074219 79.433594 24.125 79.394531 24.054688 79.3125 C 24.003906 79.25 23.921875 78.964844 23.871094 78.675781 C 23.714844 77.785156 23.636719 77.664062 23.242188 77.664062 C 22.898438 77.664062 22.898438 77.664062 23.066406 77.832031 M 39.535156 78.597656 C 39.5625 78.914062 39.535156 79.136719 39.464844 79.222656 C 39.332031 79.382812 39.332031 79.382812 39.765625 79.230469 C 39.957031 79.164062 40.070312 79.085938 40.023438 79.058594 C 39.976562 79.027344 39.941406 78.871094 39.953125 78.710938 C 39.972656 78.339844 39.859375 78.109375 39.65625 78.109375 C 39.515625 78.109375 39.5 78.171875 39.535156 78.597656 M 46.828125 78.351562 C 46.734375 78.511719 46.949219 78.820312 47.15625 78.820312 C 47.335938 78.820312 47.367188 78.777344 47.359375 78.554688 C 47.351562 78.324219 47.3125 78.285156 47.109375 78.285156 C 46.976562 78.285156 46.851562 78.316406 46.828125 78.351562 M 66.234375 78.375 C 66.117188 78.566406 66.289062 78.820312 66.535156 78.820312 C 66.757812 78.820312 66.777344 78.796875 66.742188 78.554688 C 66.703125 78.28125 66.367188 78.164062 66.234375 78.375 M 46.214844 78.46875 C 46.132812 78.519531 46.023438 78.707031 45.972656 78.890625 C 45.832031 79.390625 45.847656 79.464844 46.078125 79.394531 C 46.355469 79.308594 46.347656 79.316406 46.414062 78.820312 C 46.472656 78.351562 46.460938 78.328125 46.214844 78.46875 M 65.488281 78.5625 C 65.355469 78.703125 65.171875 79.445312 65.269531 79.445312 C 65.507812 79.445312 65.746094 79.195312 65.746094 78.945312 C 65.746094 78.789062 65.769531 78.59375 65.800781 78.515625 C 65.875 78.316406 65.695312 78.339844 65.488281 78.5625 M 79.003906 78.433594 C 78.886719 78.464844 78.703125 79.265625 78.8125 79.265625 C 79.136719 79.265625 79.429688 78.863281 79.332031 78.554688 C 79.273438 78.371094 79.261719 78.367188 79.003906 78.433594 M 40.429688 78.753906 C 40.140625 78.988281 40.195312 79.53125 40.507812 79.53125 C 40.640625 79.53125 40.667969 79.457031 40.667969 79.085938 C 40.667969 78.613281 40.644531 78.582031 40.429688 78.753906 M 41.023438 79.085938 C 41.023438 79.4375 41.054688 79.53125 41.15625 79.511719 C 41.34375 79.476562 41.484375 79.027344 41.367188 78.835938 C 41.164062 78.515625 41.023438 78.617188 41.023438 79.085938 M 56.96875 79.101562 C 56.96875 79.453125 57 79.53125 57.128906 79.53125 C 57.511719 79.53125 57.511719 78.8125 57.128906 78.710938 C 56.992188 78.675781 56.96875 78.730469 56.96875 79.101562 M 43.355469 78.789062 C 43.183594 78.960938 43.335938 79.53125 43.550781 79.53125 C 43.664062 79.53125 43.695312 79.445312 43.695312 79.132812 C 43.695312 78.746094 43.546875 78.597656 43.355469 78.789062 M 44.050781 79.132812 C 44.050781 79.488281 44.074219 79.535156 44.230469 79.515625 C 44.375 79.492188 44.410156 79.421875 44.410156 79.132812 C 44.410156 78.84375 44.375 78.769531 44.230469 78.75 C 44.074219 78.726562 44.050781 78.777344 44.050781 79.132812 M 56.273438 78.789062 C 56.101562 78.960938 56.253906 79.53125 56.46875 79.53125 C 56.582031 79.53125 56.613281 79.445312 56.613281 79.132812 C 56.613281 78.746094 56.464844 78.597656 56.273438 78.789062 M 41.722656 79.011719 C 41.75 79.117188 41.734375 79.273438 41.6875 79.359375 C 41.625 79.476562 41.648438 79.523438 41.777344 79.558594 C 42.015625 79.621094 42.210938 79.453125 42.308594 79.109375 L 42.390625 78.820312 L 42.03125 78.820312 C 41.707031 78.820312 41.675781 78.839844 41.722656 79.011719 M 54.660156 79.042969 C 54.695312 79.171875 54.671875 79.324219 54.609375 79.398438 C 54.515625 79.511719 54.539062 79.53125 54.78125 79.53125 C 55.019531 79.53125 55.082031 79.484375 55.191406 79.222656 C 55.367188 78.808594 55.371094 78.820312 54.964844 78.820312 C 54.625 78.820312 54.609375 78.832031 54.660156 79.042969 M 24.457031 79.140625 C 24.246094 79.355469 24.335938 79.484375 24.710938 79.515625 C 25.023438 79.542969 25.039062 79.53125 24.945312 79.359375 C 24.890625 79.257812 24.871094 79.132812 24.902344 79.085938 C 24.992188 78.941406 24.609375 78.988281 24.457031 79.140625 M 52.238281 79.085938 C 51.996094 79.183594 51.914062 79.402344 52.070312 79.53125 C 52.203125 79.640625 52.621094 79.625 52.582031 79.511719 C 52.570312 79.472656 52.558594 79.34375 52.558594 79.222656 C 52.558594 78.980469 52.527344 78.96875 52.238281 79.085938 M 74.941406 79.089844 C 74.589844 79.230469 74.746094 79.683594 75.117188 79.589844 C 75.300781 79.546875 75.328125 79.496094 75.296875 79.269531 C 75.253906 78.976562 75.242188 78.96875 74.941406 79.089844 M 88.777344 79.117188 C 88.542969 79.289062 88.660156 79.53125 88.976562 79.53125 C 89.210938 79.53125 89.230469 79.507812 89.191406 79.265625 C 89.148438 78.972656 89.03125 78.933594 88.777344 79.117188 M 34.632812 79.238281 C 34.519531 79.265625 34.476562 79.367188 34.476562 79.585938 C 34.476562 79.875 34.488281 79.890625 34.722656 79.832031 C 35.070312 79.75 35.097656 79.722656 35.097656 79.492188 C 35.097656 79.332031 34.894531 79.121094 34.800781 79.1875 C 34.792969 79.191406 34.71875 79.214844 34.632812 79.238281 M 70.554688 79.25 C 70.371094 79.332031 70.34375 79.921875 70.527344 79.851562 C 70.597656 79.824219 70.71875 79.800781 70.789062 79.800781 C 70.898438 79.800781 71.144531 79.371094 71.070312 79.308594 C 70.984375 79.234375 70.667969 79.199219 70.554688 79.25 M 57.707031 81.542969 C 57.679688 81.570312 57.699219 81.707031 57.753906 81.847656 C 57.824219 82.035156 57.824219 82.164062 57.75 82.324219 L 57.648438 82.546875 L 58.433594 82.496094 C 59.371094 82.4375 59.417969 82.480469 59.339844 83.316406 L 59.285156 83.851562 L 58.449219 83.898438 L 57.613281 83.941406 L 57.601562 84.34375 C 57.589844 84.5625 57.550781 84.8125 57.511719 84.898438 C 57.449219 85.035156 57.488281 85.054688 57.796875 85.054688 C 58.277344 85.054688 58.527344 84.835938 58.589844 84.363281 C 58.640625 83.992188 58.644531 83.984375 58.996094 83.984375 L 59.351562 83.984375 L 59.296875 84.363281 C 59.023438 86.359375 59.148438 87.546875 59.632812 87.546875 C 60.195312 87.546875 60.402344 87.449219 60.261719 87.25 C 60.117188 87.042969 60.089844 86.109375 60.191406 84.71875 L 60.246094 83.914062 L 60.585938 83.882812 C 60.90625 83.851562 60.925781 83.863281 60.980469 84.148438 C 61.082031 84.707031 61.617188 85.019531 62.128906 84.824219 C 62.253906 84.777344 62.253906 84.757812 62.125 84.628906 C 62.023438 84.527344 61.996094 84.378906 62.027344 84.09375 L 62.074219 83.699219 L 61.175781 83.730469 L 60.28125 83.761719 L 60.300781 83.125 C 60.324219 82.363281 60.304688 82.34375 59.46875 82.339844 L 58.851562 82.339844 L 58.777344 82.054688 C 58.667969 81.625 57.960938 81.289062 57.707031 81.542969 M 20.097656 82.078125 C 18.714844 82.582031 18.367188 84.109375 19.363281 85.289062 C 19.554688 85.515625 19.582031 85.652344 19.613281 86.410156 C 19.652344 87.484375 19.730469 87.597656 20.382812 87.507812 L 20.828125 87.445312 L 20.703125 87.207031 C 20.621094 87.050781 20.578125 86.667969 20.578125 86.09375 C 20.578125 85.152344 20.527344 84.988281 20.085938 84.542969 C 19.347656 83.804688 19.894531 82.027344 20.855469 82.027344 C 21.1875 82.027344 21.292969 82.238281 21.292969 82.90625 C 21.292969 83.53125 21.050781 83.894531 20.449219 84.183594 L 20.089844 84.351562 L 20.4375 84.296875 C 21.027344 84.199219 21.691406 83.910156 21.957031 83.632812 C 22.316406 83.257812 22.34375 82.375 22.003906 82.113281 C 21.730469 81.902344 20.632812 81.882812 20.097656 82.078125 M 24.988281 82.03125 C 24.449219 82.066406 23.800781 82.097656 23.546875 82.105469 L 23.085938 82.117188 L 23.101562 82.539062 C 23.109375 82.769531 23.085938 83.050781 23.042969 83.160156 C 22.976562 83.34375 23 83.363281 23.28125 83.363281 C 23.6875 83.363281 24.105469 83.011719 24.242188 82.5625 C 24.339844 82.234375 24.535156 82.117188 24.96875 82.117188 C 25.027344 82.117188 25.042969 82.445312 25.003906 83.089844 L 24.949219 84.0625 L 25.25 84.015625 L 25.554688 83.964844 L 25.472656 84.308594 C 25.425781 84.5 25.28125 85.113281 25.148438 85.679688 C 24.757812 87.328125 24.835938 87.617188 25.632812 87.507812 L 26.078125 87.445312 L 25.957031 87.09375 C 25.84375 86.765625 25.859375 86.648438 26.191406 85.324219 C 26.621094 83.605469 26.621094 83.71875 26.222656 83.78125 L 25.902344 83.835938 L 25.964844 82.886719 C 26 82.363281 26.015625 81.945312 26 81.953125 C 25.980469 81.960938 25.527344 81.996094 24.988281 82.03125 M 26.375 82 C 26.664062 82.03125 26.699219 82.070312 26.792969 82.425781 C 26.9375 82.949219 27.3125 83.222656 27.808594 83.15625 C 28.265625 83.097656 28.304688 83.050781 28.101562 82.820312 C 27.992188 82.699219 27.933594 82.511719 27.941406 82.285156 L 27.949219 81.9375 L 27.003906 81.953125 C 26.484375 81.960938 26.199219 81.984375 26.375 82 M 30.089844 82.042969 C 29.710938 82.144531 29.695312 82.191406 29.898438 82.613281 L 30.042969 82.917969 L 29.710938 83.285156 C 29.167969 83.886719 28.953125 84.449219 28.953125 85.277344 C 28.957031 86.273438 29.058594 86.445312 29.625 86.402344 C 30.164062 86.367188 30.140625 86.390625 29.964844 86.039062 C 29.605469 85.320312 30.164062 83.289062 30.640625 83.582031 C 30.914062 83.753906 31.1875 84.742188 31.351562 86.15625 C 31.480469 87.261719 31.640625 87.511719 32.207031 87.480469 C 32.746094 87.453125 32.75 87.445312 32.5625 87.050781 C 32.480469 86.875 32.316406 86.199219 32.207031 85.558594 C 31.941406 84.046875 31.738281 83.519531 31.1875 82.933594 C 30.945312 82.675781 30.722656 82.347656 30.6875 82.203125 C 30.625 81.917969 30.597656 81.910156 30.089844 82.042969 M 39.671875 82.027344 C 38.3125 82.101562 38.007812 82.445312 37.964844 83.933594 C 37.925781 85.242188 37.953125 85.277344 38.964844 85.179688 C 39.773438 85.101562 40.074219 85.101562 40.152344 85.175781 C 40.179688 85.203125 40.152344 85.667969 40.089844 86.203125 C 39.925781 87.628906 39.996094 87.785156 40.726562 87.617188 C 41.128906 87.523438 41.132812 87.523438 41.011719 87.285156 C 40.910156 87.082031 40.914062 86.898438 41.03125 86.089844 C 41.222656 84.789062 41.277344 84.851562 40.046875 84.925781 L 39.023438 84.988281 L 38.933594 84.75 C 38.726562 84.210938 38.886719 82.652344 39.179688 82.363281 C 39.273438 82.265625 39.5 82.199219 39.777344 82.183594 C 40.191406 82.160156 40.222656 82.175781 40.253906 82.382812 C 40.320312 82.859375 40.59375 83.09375 41.082031 83.09375 C 41.480469 83.09375 41.523438 83.078125 41.460938 82.9375 C 41.425781 82.855469 41.375 82.589844 41.355469 82.355469 L 41.316406 81.929688 L 40.902344 81.957031 C 40.675781 81.96875 40.121094 82 39.671875 82.027344 M 46.953125 82.0625 C 46.570312 82.199219 46.539062 82.292969 46.734375 82.703125 L 46.890625 83.03125 L 46.617188 83.261719 C 45.65625 84.082031 44.785156 86.527344 45.1875 87.28125 C 45.332031 87.554688 45.679688 87.609375 46.046875 87.417969 C 46.195312 87.34375 46.5625 87.246094 46.859375 87.207031 C 47.515625 87.117188 47.585938 87.054688 47.636719 86.503906 C 47.722656 85.605469 47.308594 85.167969 46.636719 85.449219 C 46.453125 85.527344 46.289062 85.589844 46.273438 85.589844 C 46.253906 85.589844 46.371094 85.277344 46.535156 84.898438 C 46.847656 84.15625 47.261719 83.453125 47.378906 83.453125 C 47.675781 83.453125 47.972656 84.300781 48.285156 86.019531 C 48.535156 87.402344 48.671875 87.605469 49.292969 87.511719 C 49.773438 87.4375 49.757812 87.464844 49.535156 87.085938 C 49.441406 86.925781 49.320312 86.511719 49.265625 86.167969 C 48.996094 84.457031 48.613281 83.433594 47.992188 82.765625 C 47.773438 82.53125 47.550781 82.25 47.492188 82.136719 C 47.375 81.910156 47.371094 81.910156 46.953125 82.0625 M 78.707031 82.070312 C 78.511719 82.132812 78.398438 82.191406 78.460938 82.195312 C 78.566406 82.203125 78.929688 82.824219 78.929688 83 C 78.929688 83.050781 78.796875 83.148438 78.632812 83.214844 C 77.851562 83.542969 77.59375 84.21875 77.59375 85.921875 C 77.59375 87.480469 77.65625 87.605469 78.375 87.507812 L 78.832031 87.445312 L 78.679688 87.210938 C 78.484375 86.910156 78.457031 84.320312 78.644531 83.785156 C 78.863281 83.167969 79.5625 82.902344 80.011719 83.265625 C 80.21875 83.433594 80.222656 83.46875 80.265625 85.355469 C 80.316406 87.609375 80.316406 87.605469 81.0625 87.503906 C 81.460938 87.449219 81.503906 87.425781 81.40625 87.304688 C 81.324219 87.207031 81.277344 86.664062 81.246094 85.464844 C 81.207031 84.058594 81.175781 83.726562 81.050781 83.550781 C 80.851562 83.273438 80.445312 83.007812 80.214844 83.007812 C 80.078125 83.007812 79.964844 82.871094 79.777344 82.472656 C 79.492188 81.878906 79.394531 81.84375 78.707031 82.070312 M 84.382812 82.050781 C 84.164062 82.121094 84.101562 82.179688 84.148438 82.285156 C 84.277344 82.605469 84.292969 82.765625 84.234375 83.316406 L 84.171875 83.898438 L 83.347656 83.898438 C 82.429688 83.898438 82.375 83.917969 82.507812 84.210938 C 82.582031 84.367188 82.570312 84.484375 82.457031 84.703125 C 82.273438 85.078125 82.257812 85.054688 82.675781 85.054688 C 83.148438 85.054688 83.472656 84.75 83.472656 84.300781 C 83.472656 83.992188 83.480469 83.984375 83.839844 83.984375 L 84.207031 83.984375 L 84.15625 84.410156 C 84 85.652344 83.980469 87.09375 84.121094 87.308594 C 84.296875 87.574219 85.996094 87.648438 86.367188 87.40625 C 86.84375 87.09375 86.910156 86.339844 86.496094 85.925781 C 86.230469 85.660156 86.207031 85.65625 85.613281 85.710938 L 85.003906 85.765625 L 85.050781 84.855469 C 85.078125 84.351562 85.105469 83.9375 85.109375 83.933594 C 85.117188 83.925781 85.265625 83.898438 85.445312 83.871094 C 85.761719 83.824219 85.773438 83.832031 85.832031 84.136719 C 85.9375 84.710938 86.464844 85.023438 86.988281 84.820312 C 87.121094 84.769531 87.121094 84.75 86.984375 84.601562 C 86.871094 84.476562 86.847656 84.339844 86.882812 84.066406 L 86.933594 83.695312 L 86.050781 83.738281 L 85.164062 83.78125 L 85.164062 83 C 85.164062 81.878906 85.113281 81.816406 84.382812 82.050781 M 34.121094 82.164062 C 33.800781 82.222656 33.511719 82.277344 33.472656 82.285156 C 33.4375 82.289062 33.40625 82.429688 33.40625 82.601562 C 33.40625 82.769531 33.367188 82.933594 33.316406 82.960938 C 33.144531 83.066406 33.328125 83.183594 33.664062 83.183594 C 34.070312 83.183594 34.285156 82.984375 34.355469 82.535156 C 34.402344 82.257812 34.441406 82.21875 34.714844 82.1875 C 35.285156 82.117188 35.339844 82.246094 35.101562 83.132812 C 34.855469 84.046875 34.882812 84.097656 35.546875 83.992188 C 36.339844 83.863281 36.351562 83.785156 35.171875 86.257812 C 34.625 87.410156 34.71875 87.671875 35.625 87.492188 C 35.882812 87.441406 35.902344 87.414062 35.851562 87.15625 C 35.800781 86.875 35.878906 86.675781 36.875 84.582031 C 37.265625 83.765625 37.226562 83.691406 36.4375 83.769531 C 35.714844 83.839844 35.738281 83.886719 35.960938 82.945312 C 36.15625 82.101562 36.097656 82.023438 35.289062 82.039062 C 34.964844 82.046875 34.4375 82.101562 34.121094 82.164062 M 73.941406 82.121094 C 73.722656 82.203125 73.71875 82.230469 73.71875 83.074219 L 73.71875 83.941406 L 74.453125 83.917969 C 75.359375 83.886719 75.347656 83.78125 74.605469 85.554688 C 73.898438 87.222656 73.875 87.507812 74.429688 87.496094 C 74.625 87.492188 75.015625 87.457031 75.300781 87.417969 C 75.734375 87.355469 75.8125 87.367188 75.8125 87.484375 C 75.8125 87.679688 76.101562 87.753906 76.617188 87.679688 C 77.042969 87.621094 77.054688 87.617188 76.925781 87.429688 C 76.851562 87.328125 76.792969 87.09375 76.792969 86.910156 L 76.792969 86.578125 L 76.457031 86.628906 C 76.058594 86.6875 75.722656 86.882812 75.722656 87.050781 C 75.722656 87.300781 74.976562 87.382812 74.886719 87.144531 C 74.859375 87.066406 74.929688 86.777344 75.046875 86.496094 C 75.496094 85.425781 75.894531 84.523438 76.035156 84.253906 C 76.265625 83.804688 76.117188 83.714844 75.269531 83.78125 C 74.46875 83.839844 74.511719 83.894531 74.664062 83.027344 C 74.820312 82.132812 74.613281 81.875 73.941406 82.121094 M 55.554688 82.308594 C 55.773438 82.546875 55.757812 83.40625 55.527344 83.875 C 55.351562 84.242188 54.839844 84.40625 54.734375 84.132812 C 54.667969 83.957031 54.953125 82.460938 55.082031 82.304688 C 55.167969 82.203125 55.113281 82.191406 54.742188 82.234375 C 54.496094 82.265625 53.734375 82.316406 53.050781 82.347656 C 51.226562 82.429688 50.445312 82.804688 50.285156 83.664062 C 50.085938 84.722656 50.710938 85.070312 52.179688 84.71875 L 52.832031 84.566406 L 52.964844 84.074219 C 53.382812 82.535156 53.453125 82.410156 53.851562 82.507812 C 54.117188 82.574219 54.125 82.6875 53.9375 83.492188 C 53.734375 84.371094 53.816406 84.472656 54.667969 84.398438 C 55.507812 84.328125 55.496094 84.296875 55.238281 85.914062 C 55.042969 87.125 55.039062 87.199219 55.183594 87.421875 C 55.269531 87.546875 55.386719 87.632812 55.457031 87.605469 C 55.523438 87.578125 55.714844 87.53125 55.882812 87.5 C 56.179688 87.445312 56.1875 87.433594 56.09375 87.191406 C 56.019531 86.992188 56.0625 86.511719 56.296875 84.945312 C 56.667969 82.46875 56.636719 82.308594 55.734375 82.175781 C 55.390625 82.125 55.390625 82.125 55.554688 82.308594 M 89.796875 82.207031 C 88.351562 82.460938 87.929688 83.164062 87.863281 85.410156 C 87.804688 87.566406 88.035156 87.808594 89.792969 87.445312 L 90.742188 87.246094 L 90.945312 87.445312 C 91.117188 87.621094 91.199219 87.640625 91.5625 87.585938 C 92.078125 87.511719 92.050781 87.546875 91.898438 87.175781 C 91.824219 87.003906 91.789062 86.777344 91.816406 86.671875 C 91.914062 86.300781 91.03125 86.519531 90.824219 86.917969 C 90.722656 87.117188 90.605469 87.175781 90.144531 87.261719 C 89.050781 87.464844 88.789062 87.082031 88.84375 85.367188 C 88.890625 84.066406 89.0625 83.304688 89.414062 82.84375 C 89.785156 82.359375 90.597656 82.101562 90.597656 82.46875 C 90.597656 82.84375 91.078125 83.230469 91.527344 83.21875 C 92.019531 83.210938 92.101562 83.148438 91.90625 82.9375 C 91.804688 82.820312 91.777344 82.683594 91.816406 82.445312 L 91.871094 82.117188 L 91.035156 82.125 C 90.574219 82.132812 90.019531 82.167969 89.796875 82.207031 M 69.441406 82.296875 C 69 82.335938 68.335938 82.367188 67.964844 82.375 C 66.40625 82.394531 65.339844 83.175781 65.535156 84.15625 C 65.671875 84.84375 66.238281 85.03125 67.324219 84.75 C 68.214844 84.523438 68.128906 84.617188 68.40625 83.519531 L 68.640625 82.605469 L 68.953125 82.605469 C 69.304688 82.605469 69.316406 82.664062 69.175781 83.769531 C 69.089844 84.445312 69.269531 84.566406 70.15625 84.441406 C 70.449219 84.398438 70.699219 84.371094 70.714844 84.382812 C 70.726562 84.394531 70.617188 84.914062 70.46875 85.539062 C 70 87.5 70.046875 87.625 71.140625 87.464844 C 71.84375 87.359375 71.933594 87.363281 72.027344 87.492188 C 72.136719 87.644531 72.601562 87.679688 72.902344 87.558594 C 73.050781 87.5 73.054688 87.484375 72.925781 87.378906 C 72.839844 87.308594 72.78125 87.121094 72.78125 86.917969 C 72.78125 86.550781 72.796875 86.554688 72.238281 86.761719 C 72.109375 86.808594 71.960938 86.945312 71.90625 87.066406 C 71.824219 87.242188 71.742188 87.28125 71.449219 87.28125 C 70.992188 87.28125 70.988281 87.363281 71.492188 85.035156 C 71.710938 84.011719 71.890625 83.058594 71.890625 82.917969 C 71.890625 82.5 71.472656 82.203125 70.886719 82.203125 L 70.605469 82.203125 L 70.816406 82.351562 C 71.011719 82.488281 71.019531 82.539062 70.972656 83.101562 C 70.898438 84.011719 70.652344 84.375 70.175781 84.273438 C 69.894531 84.214844 70.078125 82.644531 70.398438 82.359375 C 70.566406 82.210938 70.566406 82.207031 70.410156 82.21875 C 70.316406 82.226562 69.882812 82.261719 69.441406 82.296875 M 51.691406 82.625 C 50.945312 83.257812 50.945312 84.945312 51.6875 84.757812 C 51.9375 84.695312 52.421875 83.261719 52.367188 82.757812 C 52.332031 82.457031 51.972656 82.382812 51.691406 82.625 M 66.8125 82.832031 C 66.203125 83.480469 66.234375 84.789062 66.859375 84.789062 C 66.96875 84.789062 67.101562 84.738281 67.152344 84.675781 C 67.296875 84.496094 67.714844 82.867188 67.652344 82.707031 C 67.558594 82.457031 67.097656 82.523438 66.8125 82.832031 M 46.261719 85.722656 C 46.007812 85.902344 45.8125 86.722656 45.960938 87 C 46.082031 87.230469 46.511719 87.261719 46.6875 87.050781 C 46.8125 86.898438 46.847656 86.214844 46.742188 85.835938 C 46.667969 85.558594 46.539062 85.527344 46.261719 85.722656 M 85.007812 86.589844 L 85.03125 87.324219 L 85.339844 87.324219 C 85.734375 87.324219 85.902344 87.046875 85.847656 86.484375 C 85.800781 86.039062 85.625 85.855469 85.234375 85.855469 L 84.980469 85.855469 L 85.007812 86.589844 M 19.421875 90.664062 C 19.421875 90.726562 31.519531 90.753906 55.542969 90.753906 C 79.566406 90.753906 91.667969 90.726562 91.667969 90.664062 C 91.667969 90.605469 79.566406 90.578125 55.542969 90.578125 C 31.519531 90.578125 19.421875 90.605469 19.421875 90.664062 M 41.828125 93.492188 C 40.585938 93.808594 40.730469 95.695312 42.007812 95.800781 C 43.320312 95.910156 43.816406 94.179688 42.636719 93.609375 C 42.257812 93.425781 42.148438 93.410156 41.828125 93.492188 M 44.304688 93.605469 C 43.6875 93.917969 43.46875 94.679688 43.828125 95.269531 C 44.148438 95.800781 44.835938 95.984375 45.351562 95.679688 C 45.660156 95.496094 45.695312 95.335938 45.410156 95.429688 C 44.601562 95.695312 44.050781 95.476562 43.949219 94.839844 C 43.824219 94.050781 44.515625 93.472656 45.179688 93.816406 C 45.5 93.984375 45.707031 93.851562 45.417969 93.660156 C 45.050781 93.417969 44.710938 93.402344 44.304688 93.605469 M 53.496094 93.546875 C 52.847656 93.847656 52.578125 94.53125 52.871094 95.148438 C 53.15625 95.746094 53.859375 95.992188 54.433594 95.695312 C 54.746094 95.535156 54.796875 95.332031 54.496094 95.429688 C 53.761719 95.667969 53.332031 95.554688 53.128906 95.0625 C 52.78125 94.230469 53.628906 93.347656 54.316406 93.828125 C 54.546875 93.992188 54.699219 93.835938 54.503906 93.636719 C 54.316406 93.453125 53.804688 93.40625 53.496094 93.546875 M 69.609375 93.554688 C 69.199219 93.734375 68.964844 94.03125 68.902344 94.453125 C 68.757812 95.414062 69.71875 96.128906 70.558594 95.695312 C 70.871094 95.535156 70.917969 95.332031 70.621094 95.429688 C 69.859375 95.675781 69.398438 95.53125 69.21875 94.988281 C 68.964844 94.210938 69.679688 93.464844 70.355469 93.800781 C 70.605469 93.929688 70.824219 93.921875 70.824219 93.785156 C 70.824219 93.523438 70.027344 93.371094 69.609375 93.554688 M 72.800781 93.574219 C 71.660156 94.136719 72.050781 95.832031 73.320312 95.832031 C 74.554688 95.832031 74.886719 94.03125 73.738281 93.5625 C 73.316406 93.390625 73.167969 93.394531 72.800781 93.574219 M 85.609375 93.527344 C 84.402344 94.007812 84.730469 95.832031 86.023438 95.832031 C 87.257812 95.828125 87.660156 94.144531 86.554688 93.609375 C 86.140625 93.410156 85.949219 93.390625 85.609375 93.527344 M 18.441406 94.628906 C 18.441406 95.558594 18.460938 95.742188 18.574219 95.742188 C 18.675781 95.742188 18.707031 95.628906 18.707031 95.253906 L 18.707031 94.761719 L 19.242188 94.761719 C 19.65625 94.761719 19.777344 94.734375 19.777344 94.628906 C 19.777344 94.523438 19.65625 94.496094 19.242188 94.496094 L 18.707031 94.496094 L 18.707031 93.78125 L 19.285156 93.78125 C 19.742188 93.78125 19.867188 93.753906 19.867188 93.648438 C 19.867188 93.542969 19.726562 93.515625 19.152344 93.515625 L 18.441406 93.515625 L 18.441406 94.628906 M 20.371094 93.574219 C 20.339844 93.609375 20.3125 94.109375 20.3125 94.6875 L 20.3125 95.742188 L 21.070312 95.742188 C 21.613281 95.742188 21.824219 95.710938 21.824219 95.632812 C 21.828125 95.550781 21.667969 95.527344 21.246094 95.550781 L 20.667969 95.578125 L 20.667969 94.761719 L 21.203125 94.761719 C 21.617188 94.761719 21.738281 94.734375 21.738281 94.628906 C 21.738281 94.523438 21.617188 94.496094 21.203125 94.496094 L 20.667969 94.496094 L 20.667969 93.78125 L 21.246094 93.78125 C 21.703125 93.78125 21.824219 93.753906 21.824219 93.648438 C 21.824219 93.507812 20.503906 93.441406 20.371094 93.574219 M 22.269531 94.628906 L 22.269531 95.742188 L 22.871094 95.742188 C 23.796875 95.742188 24.253906 95.386719 24.253906 94.675781 C 24.253906 93.921875 23.753906 93.515625 22.816406 93.515625 L 22.269531 93.515625 L 22.269531 94.628906 M 24.765625 94.628906 L 24.765625 95.742188 L 25.523438 95.742188 C 26.125 95.742188 26.28125 95.714844 26.28125 95.613281 C 26.28125 95.511719 26.191406 95.496094 25.878906 95.535156 C 25.203125 95.617188 25.03125 95.53125 25.03125 95.117188 L 25.03125 94.761719 L 25.613281 94.761719 C 26.066406 94.761719 26.191406 94.734375 26.191406 94.628906 C 26.191406 94.523438 26.066406 94.496094 25.613281 94.496094 L 25.03125 94.496094 L 25.03125 93.78125 L 25.613281 93.78125 C 26.066406 93.78125 26.191406 93.753906 26.191406 93.648438 C 26.191406 93.542969 26.050781 93.515625 25.476562 93.515625 L 24.765625 93.515625 L 24.765625 94.628906 M 26.816406 94.628906 C 26.816406 95.558594 26.835938 95.742188 26.949219 95.742188 C 27.050781 95.742188 27.082031 95.628906 27.082031 95.246094 C 27.082031 94.574219 27.347656 94.585938 27.742188 95.273438 C 27.917969 95.582031 28.066406 95.742188 28.179688 95.742188 C 28.34375 95.742188 28.34375 95.734375 28.191406 95.496094 C 27.71875 94.769531 27.742188 94.84375 27.941406 94.679688 C 28.625 94.128906 28.292969 93.515625 27.308594 93.515625 L 26.816406 93.515625 L 26.816406 94.628906 M 29.460938 93.621094 C 29.4375 93.6875 29.210938 94.1875 28.964844 94.742188 C 28.574219 95.613281 28.539062 95.742188 28.679688 95.742188 C 28.785156 95.742188 28.882812 95.640625 28.9375 95.476562 C 29.03125 95.214844 29.050781 95.207031 29.605469 95.207031 C 30.15625 95.207031 30.183594 95.21875 30.289062 95.476562 C 30.351562 95.628906 30.464844 95.742188 30.558594 95.742188 C 30.695312 95.742188 30.648438 95.582031 30.246094 94.652344 C 29.804688 93.636719 29.578125 93.335938 29.460938 93.621094 M 31.089844 94.628906 L 31.089844 95.742188 L 31.765625 95.742188 C 32.25 95.742188 32.433594 95.710938 32.40625 95.636719 C 32.382812 95.566406 32.195312 95.539062 31.863281 95.554688 L 31.359375 95.578125 L 31.359375 94.546875 C 31.359375 93.691406 31.335938 93.515625 31.222656 93.515625 C 31.113281 93.515625 31.089844 93.699219 31.089844 94.628906 M 33.675781 94.628906 L 33.675781 95.742188 L 34.292969 95.742188 C 34.867188 95.742188 34.929688 95.722656 35.21875 95.449219 C 36.082031 94.636719 35.484375 93.515625 34.1875 93.515625 L 33.675781 93.515625 L 33.675781 94.628906 M 36.078125 94.628906 L 36.078125 95.742188 L 36.835938 95.742188 C 37.28125 95.742188 37.59375 95.707031 37.59375 95.652344 C 37.59375 95.605469 37.382812 95.5625 37.125 95.5625 C 36.570312 95.5625 36.460938 95.503906 36.433594 95.207031 C 36.398438 94.773438 36.414062 94.761719 36.96875 94.761719 C 37.746094 94.761719 37.734375 94.515625 36.960938 94.476562 L 36.414062 94.449219 L 36.394531 94.117188 L 36.375 93.78125 L 36.984375 93.78125 C 37.464844 93.78125 37.59375 93.753906 37.59375 93.648438 C 37.59375 93.539062 37.449219 93.515625 36.835938 93.515625 L 36.078125 93.515625 L 36.078125 94.628906 M 38.128906 94.621094 C 38.128906 95.546875 38.152344 95.742188 38.257812 95.742188 C 38.363281 95.742188 38.394531 95.5625 38.414062 94.839844 L 38.441406 93.9375 L 38.800781 94.816406 C 39.011719 95.332031 39.214844 95.699219 39.285156 95.699219 C 39.359375 95.699219 39.558594 95.332031 39.769531 94.808594 L 40.132812 93.917969 L 40.160156 94.828125 C 40.179688 95.558594 40.210938 95.742188 40.3125 95.742188 C 40.421875 95.742188 40.445312 95.546875 40.445312 94.628906 C 40.445312 93.527344 40.441406 93.515625 40.242188 93.515625 C 40.066406 93.515625 39.984375 93.640625 39.683594 94.363281 C 39.492188 94.828125 39.3125 95.207031 39.285156 95.207031 C 39.257812 95.207031 39.078125 94.835938 38.878906 94.382812 C 38.597656 93.742188 38.476562 93.554688 38.324219 93.53125 C 38.132812 93.503906 38.128906 93.519531 38.128906 94.621094 M 46.144531 94.617188 C 46.144531 95.558594 46.167969 95.742188 46.28125 95.742188 C 46.382812 95.742188 46.414062 95.628906 46.414062 95.246094 C 46.414062 94.574219 46.679688 94.585938 47.074219 95.273438 C 47.25 95.582031 47.398438 95.742188 47.511719 95.742188 C 47.675781 95.742188 47.675781 95.734375 47.523438 95.496094 C 47.046875 94.761719 47.0625 94.847656 47.34375 94.625 C 47.933594 94.152344 47.613281 93.589844 46.726562 93.53125 L 46.144531 93.496094 L 46.144531 94.617188 M 48.660156 93.933594 C 48.554688 94.167969 48.332031 94.671875 48.160156 95.050781 C 47.882812 95.667969 47.867188 95.742188 48.015625 95.742188 C 48.117188 95.742188 48.210938 95.640625 48.269531 95.476562 C 48.359375 95.214844 48.378906 95.207031 48.9375 95.207031 C 49.488281 95.207031 49.511719 95.21875 49.621094 95.476562 C 49.722656 95.71875 49.976562 95.851562 49.976562 95.664062 C 49.976562 95.449219 49.089844 93.558594 48.980469 93.535156 C 48.902344 93.519531 48.777344 93.671875 48.660156 93.933594 M 49.886719 93.648438 C 49.886719 93.746094 49.988281 93.78125 50.242188 93.78125 L 50.601562 93.78125 L 50.601562 94.761719 C 50.601562 95.574219 50.625 95.742188 50.734375 95.742188 C 50.84375 95.742188 50.867188 95.574219 50.867188 94.761719 L 50.867188 93.78125 L 51.222656 93.78125 C 51.480469 93.78125 51.582031 93.746094 51.582031 93.648438 C 51.582031 93.539062 51.425781 93.515625 50.734375 93.515625 C 50.042969 93.515625 49.886719 93.539062 49.886719 93.648438 M 52.019531 93.550781 C 51.90625 93.664062 52.042969 95.742188 52.164062 95.742188 C 52.269531 95.742188 52.292969 95.539062 52.292969 94.628906 C 52.292969 93.574219 52.234375 93.339844 52.019531 93.550781 M 56.125 94.628906 C 56.125 95.558594 56.144531 95.742188 56.257812 95.742188 C 56.359375 95.742188 56.390625 95.628906 56.390625 95.253906 C 56.390625 94.550781 56.675781 94.550781 57.054688 95.253906 C 57.234375 95.582031 57.375 95.742188 57.488281 95.742188 C 57.652344 95.742188 57.652344 95.734375 57.5 95.496094 C 57.042969 94.792969 57.058594 94.878906 57.359375 94.59375 C 57.921875 94.070312 57.5625 93.515625 56.664062 93.515625 L 56.125 93.515625 L 56.125 94.628906 M 58.082031 94.628906 L 58.082031 95.742188 L 58.839844 95.742188 C 59.386719 95.742188 59.597656 95.710938 59.597656 95.632812 C 59.597656 95.554688 59.417969 95.519531 58.996094 95.519531 L 58.394531 95.519531 L 58.339844 94.761719 L 58.925781 94.761719 C 59.382812 94.761719 59.507812 94.734375 59.507812 94.628906 C 59.507812 94.523438 59.390625 94.496094 58.976562 94.496094 C 58.480469 94.496094 58.4375 94.480469 58.386719 94.273438 C 58.285156 93.859375 58.382812 93.78125 59.015625 93.78125 C 59.472656 93.78125 59.597656 93.753906 59.597656 93.648438 C 59.597656 93.539062 59.453125 93.515625 58.839844 93.515625 L 58.082031 93.515625 L 58.082031 94.628906 M 60.132812 94.628906 C 60.132812 95.558594 60.15625 95.742188 60.265625 95.742188 C 60.367188 95.742188 60.398438 95.628906 60.398438 95.253906 L 60.398438 94.761719 L 60.839844 94.761719 C 61.207031 94.761719 61.308594 94.726562 61.460938 94.527344 C 61.882812 93.992188 61.511719 93.515625 60.671875 93.515625 L 60.132812 93.515625 L 60.132812 94.628906 M 62.015625 94.457031 C 62.046875 95.363281 62.058594 95.410156 62.296875 95.617188 C 62.785156 96.035156 63.46875 95.851562 63.699219 95.242188 C 63.847656 94.855469 63.808594 93.515625 63.652344 93.515625 C 63.542969 93.515625 63.519531 93.652344 63.519531 94.222656 C 63.519531 95.257812 63.371094 95.558594 62.871094 95.5625 C 62.398438 95.566406 62.269531 95.308594 62.269531 94.363281 C 62.269531 93.648438 62.25 93.515625 62.128906 93.515625 C 62.007812 93.515625 61.992188 93.644531 62.015625 94.457031 M 64.320312 94.632812 L 64.320312 95.75 L 64.957031 95.722656 C 65.519531 95.699219 65.613281 95.671875 65.761719 95.46875 C 65.96875 95.195312 65.90625 94.796875 65.644531 94.714844 C 65.476562 94.660156 65.480469 94.65625 65.652344 94.433594 C 66.054688 93.925781 65.691406 93.515625 64.84375 93.515625 L 64.320312 93.515625 L 64.320312 94.632812 M 66.457031 94.621094 L 66.457031 95.742188 L 67.074219 95.742188 C 67.414062 95.742188 67.71875 95.703125 67.75 95.652344 C 67.78125 95.597656 67.636719 95.5625 67.375 95.5625 C 66.746094 95.5625 66.734375 95.542969 66.707031 94.5 C 66.6875 93.859375 66.644531 93.5625 66.570312 93.539062 C 66.484375 93.507812 66.457031 93.765625 66.457031 94.621094 M 68.148438 94.628906 C 68.148438 95.558594 68.171875 95.742188 68.285156 95.742188 C 68.394531 95.742188 68.417969 95.558594 68.417969 94.628906 C 68.417969 93.699219 68.394531 93.515625 68.285156 93.515625 C 68.171875 93.515625 68.148438 93.699219 68.148438 94.628906 M 75.007812 94.625 C 75.007812 95.558594 75.03125 95.742188 75.144531 95.742188 C 75.246094 95.742188 75.277344 95.628906 75.277344 95.253906 L 75.277344 94.761719 L 75.820312 94.761719 C 76.539062 94.761719 76.507812 94.550781 75.78125 94.511719 L 75.277344 94.488281 L 75.277344 93.792969 L 75.832031 93.765625 C 76.621094 93.726562 76.527344 93.566406 75.699219 93.535156 L 75.007812 93.507812 L 75.007812 94.625 M 77.769531 94.628906 L 77.769531 95.742188 L 78.527344 95.742188 C 79.425781 95.742188 79.554688 95.582031 78.683594 95.546875 L 78.082031 95.519531 L 78.027344 94.761719 L 78.566406 94.761719 C 78.988281 94.761719 79.109375 94.734375 79.109375 94.628906 C 79.109375 94.523438 78.988281 94.496094 78.574219 94.496094 L 78.039062 94.496094 L 78.039062 93.78125 L 78.617188 93.78125 C 79.074219 93.78125 79.195312 93.753906 79.195312 93.648438 C 79.195312 93.542969 79.058594 93.515625 78.484375 93.515625 L 77.769531 93.515625 L 77.769531 94.628906 M 79.464844 93.648438 C 79.464844 93.75 79.566406 93.78125 79.863281 93.78125 L 80.265625 93.78125 L 80.265625 94.761719 C 80.265625 95.574219 80.289062 95.742188 80.398438 95.742188 C 80.511719 95.742188 80.53125 95.574219 80.53125 94.761719 L 80.53125 93.78125 L 80.890625 93.78125 C 81.148438 93.78125 81.246094 93.746094 81.246094 93.648438 C 81.246094 93.539062 81.085938 93.515625 80.355469 93.515625 C 79.621094 93.515625 79.464844 93.539062 79.464844 93.648438 M 81.691406 94.628906 C 81.691406 95.558594 81.714844 95.742188 81.824219 95.742188 C 81.925781 95.742188 81.957031 95.628906 81.957031 95.253906 L 81.957031 94.761719 L 83.207031 94.761719 L 83.207031 95.253906 C 83.207031 95.632812 83.234375 95.742188 83.34375 95.742188 C 83.519531 95.742188 83.5 93.597656 83.320312 93.539062 C 83.25 93.515625 83.207031 93.660156 83.1875 93.976562 L 83.160156 94.449219 L 81.957031 94.503906 L 81.957031 94.007812 C 81.957031 93.628906 81.925781 93.515625 81.824219 93.515625 C 81.714844 93.515625 81.691406 93.699219 81.691406 94.628906 M 84.066406 93.582031 C 84.042969 93.617188 84.019531 94.121094 84.011719 94.695312 C 84 95.675781 84.011719 95.742188 84.171875 95.742188 C 84.332031 95.742188 84.34375 95.664062 84.359375 94.628906 C 84.371094 93.699219 84.351562 93.515625 84.238281 93.515625 C 84.167969 93.515625 84.089844 93.546875 84.066406 93.582031 M 87.660156 94.628906 C 87.660156 95.542969 87.683594 95.742188 87.789062 95.742188 C 87.882812 95.742188 87.925781 95.609375 87.945312 95.273438 L 87.972656 94.808594 L 88.449219 94.757812 C 88.972656 94.707031 89.175781 94.535156 89.171875 94.144531 C 89.171875 93.699219 88.875 93.515625 88.15625 93.515625 L 87.660156 93.515625 L 87.660156 94.628906 M 89.679688 93.574219 C 89.542969 93.710938 89.613281 95.742188 89.753906 95.742188 C 89.863281 95.742188 89.886719 95.558594 89.886719 94.628906 C 89.886719 93.609375 89.847656 93.40625 89.679688 93.574219 M 90.832031 94.515625 C 90.59375 95.070312 90.378906 95.570312 90.355469 95.632812 C 90.332031 95.691406 90.378906 95.742188 90.464844 95.742188 C 90.550781 95.742188 90.660156 95.628906 90.714844 95.476562 C 90.8125 95.214844 90.835938 95.207031 91.382812 95.207031 C 91.933594 95.207031 91.953125 95.214844 92.050781 95.476562 C 92.113281 95.636719 92.21875 95.742188 92.3125 95.742188 C 92.460938 95.742188 92.460938 95.71875 92.347656 95.453125 C 92.28125 95.292969 92.070312 94.792969 91.878906 94.339844 C 91.429688 93.265625 91.367188 93.273438 90.832031 94.515625 M 41.703125 93.816406 C 41.414062 93.976562 41.253906 94.292969 41.25 94.703125 C 41.238281 95.757812 42.832031 95.882812 42.996094 94.839844 C 43.125 94.035156 42.375 93.445312 41.703125 93.816406 M 72.851562 93.828125 C 72.066406 94.269531 72.394531 95.5625 73.289062 95.5625 C 74.414062 95.5625 74.511719 93.886719 73.398438 93.734375 C 73.21875 93.710938 72.996094 93.746094 72.851562 93.828125 M 85.589844 93.828125 C 85.273438 94.003906 85.164062 94.222656 85.164062 94.675781 C 85.164062 95.628906 86.460938 95.933594 86.824219 95.0625 C 87.175781 94.222656 86.351562 93.402344 85.589844 93.828125 M 22.539062 94.625 C 22.539062 95.574219 22.554688 95.597656 23.132812 95.511719 C 24.378906 95.324219 24.238281 93.78125 22.976562 93.78125 L 22.539062 93.78125 L 22.539062 94.625 M 27.082031 94.179688 C 27.082031 94.578125 27.085938 94.585938 27.375 94.585938 C 27.792969 94.585938 27.996094 94.410156 27.957031 94.089844 C 27.929688 93.84375 27.898438 93.824219 27.503906 93.800781 L 27.082031 93.773438 L 27.082031 94.179688 M 33.960938 94.652344 L 33.984375 95.519531 L 34.375 95.496094 C 34.882812 95.460938 35.089844 95.34375 35.226562 95.011719 C 35.328125 94.777344 35.292969 94.191406 35.175781 94.101562 C 34.855469 93.867188 34.636719 93.78125 34.320312 93.78125 L 33.933594 93.78125 L 33.960938 94.652344 M 46.414062 94.179688 C 46.414062 94.578125 46.417969 94.585938 46.707031 94.585938 C 47.121094 94.585938 47.328125 94.410156 47.289062 94.089844 C 47.261719 93.84375 47.230469 93.824219 46.835938 93.800781 L 46.414062 93.773438 L 46.414062 94.179688 M 56.390625 94.183594 L 56.390625 94.585938 L 56.746094 94.585938 C 57.023438 94.585938 57.128906 94.535156 57.242188 94.367188 C 57.46875 94.019531 57.289062 93.78125 56.789062 93.78125 L 56.390625 93.78125 L 56.390625 94.183594 M 60.398438 94.183594 C 60.398438 94.570312 60.410156 94.585938 60.671875 94.585938 C 61.183594 94.585938 61.46875 94.292969 61.285156 93.953125 C 61.21875 93.824219 61.097656 93.78125 60.796875 93.78125 L 60.398438 93.78125 L 60.398438 94.183594 M 64.605469 94.117188 C 64.632812 94.472656 64.8125 94.570312 65.253906 94.460938 C 65.773438 94.328125 65.550781 93.78125 64.976562 93.78125 L 64.574219 93.78125 L 64.605469 94.117188 M 87.945312 94.160156 C 87.96875 94.515625 87.988281 94.542969 88.257812 94.566406 C 88.773438 94.617188 89.019531 94.355469 88.851562 93.921875 C 88.8125 93.820312 88.675781 93.78125 88.359375 93.78125 L 87.917969 93.78125 L 87.945312 94.160156 M 29.417969 94.3125 C 29.136719 94.988281 29.148438 95.03125 29.628906 95.03125 C 30.09375 95.03125 30.105469 94.964844 29.765625 94.1875 L 29.613281 93.839844 L 29.417969 94.3125 M 48.773438 94.273438 C 48.683594 94.515625 48.578125 94.761719 48.535156 94.816406 C 48.421875 94.96875 48.546875 95.03125 48.976562 95.03125 C 49.421875 95.03125 49.433594 94.960938 49.09375 94.183594 L 48.941406 93.828125 L 48.773438 94.273438 M 91.144531 94.417969 C 90.894531 95.023438 90.894531 95.03125 91.34375 95.03125 C 91.851562 95.03125 91.859375 95.011719 91.636719 94.445312 C 91.402344 93.851562 91.382812 93.847656 91.144531 94.417969 M 64.621094 94.796875 C 64.597656 94.867188 64.585938 95.058594 64.601562 95.222656 C 64.628906 95.503906 64.652344 95.519531 65.003906 95.546875 C 65.617188 95.589844 65.875 94.964844 65.324219 94.753906 C 65.007812 94.636719 64.675781 94.65625 64.621094 94.796875 M 26.835938 97.667969 C 26.273438 97.953125 26.34375 98.609375 26.96875 98.851562 C 27.472656 99.046875 27.589844 99.167969 27.441406 99.34375 C 27.3125 99.503906 27.054688 99.523438 26.820312 99.398438 C 26.585938 99.273438 26.300781 99.582031 26.496094 99.746094 C 26.695312 99.910156 27.273438 99.949219 27.523438 99.820312 C 28.160156 99.484375 28.078125 98.878906 27.347656 98.574219 C 26.703125 98.308594 26.847656 97.796875 27.507812 98.007812 C 27.707031 98.070312 27.960938 97.832031 27.832031 97.703125 C 27.660156 97.539062 27.128906 97.519531 26.835938 97.667969 M 35.765625 97.695312 C 35.140625 98.015625 34.9375 98.625 35.246094 99.277344 C 35.773438 100.382812 37.503906 99.960938 37.503906 98.726562 C 37.503906 97.808594 36.597656 97.273438 35.765625 97.695312 M 56.25 97.699219 C 54.859375 98.402344 55.816406 100.257812 57.355469 99.84375 L 57.726562 99.742188 L 57.726562 98.503906 L 57.328125 98.503906 C 56.957031 98.503906 56.925781 98.519531 56.925781 98.726562 C 56.925781 98.890625 56.972656 98.949219 57.109375 98.949219 C 57.257812 98.949219 57.289062 98.996094 57.265625 99.195312 C 57.226562 99.535156 56.597656 99.601562 56.308594 99.292969 C 55.722656 98.660156 56.453125 97.664062 57.207031 98.066406 C 57.351562 98.144531 57.421875 98.132812 57.535156 98.023438 C 57.90625 97.652344 56.863281 97.390625 56.25 97.699219 M 78.804688 97.613281 C 78.007812 97.859375 77.699219 98.914062 78.253906 99.511719 C 78.980469 100.292969 80.355469 99.832031 80.355469 98.804688 C 80.355469 97.917969 79.625 97.359375 78.804688 97.613281 M 18.976562 98.726562 L 18.976562 99.839844 L 19.195312 99.839844 C 19.410156 99.839844 19.414062 99.828125 19.441406 98.96875 L 19.464844 98.101562 L 19.738281 98.949219 C 20.121094 100.148438 20.273438 100.152344 20.679688 98.976562 L 20.980469 98.101562 L 21.003906 98.96875 C 21.03125 99.828125 21.035156 99.839844 21.25 99.839844 L 21.46875 99.839844 L 21.46875 97.613281 L 20.777344 97.613281 L 20.523438 98.324219 C 20.25 99.089844 20.183594 99.164062 20.097656 98.8125 C 19.863281 97.882812 19.6875 97.613281 19.324219 97.613281 L 18.976562 97.613281 L 18.976562 98.726562 M 22.003906 98.726562 L 22.003906 99.839844 L 22.449219 99.839844 L 22.449219 97.613281 L 22.003906 97.613281 L 22.003906 98.726562 M 22.894531 98.726562 L 22.894531 99.839844 L 23.117188 99.839844 C 23.335938 99.839844 23.339844 99.828125 23.339844 99.132812 C 23.339844 98.742188 23.378906 98.402344 23.421875 98.375 C 23.46875 98.34375 23.710938 98.664062 23.964844 99.082031 C 24.394531 99.796875 24.4375 99.839844 24.726562 99.839844 L 25.03125 99.839844 L 25.03125 97.613281 L 24.808594 97.613281 C 24.589844 97.613281 24.585938 97.621094 24.585938 98.375 C 24.585938 99.265625 24.570312 99.265625 24.003906 98.328125 C 23.585938 97.632812 23.5625 97.613281 23.234375 97.613281 L 22.894531 97.613281 L 22.894531 98.726562 M 25.566406 98.726562 L 25.566406 99.839844 L 26.011719 99.839844 L 26.011719 97.613281 L 25.566406 97.613281 L 25.566406 98.726562 M 28.152344 97.789062 C 28.152344 97.933594 28.210938 97.96875 28.460938 97.96875 L 28.773438 97.96875 L 28.773438 98.902344 C 28.773438 99.839844 28.773438 99.839844 28.992188 99.839844 C 29.210938 99.839844 29.214844 99.832031 29.238281 98.925781 L 29.265625 98.011719 L 29.597656 97.984375 C 29.859375 97.964844 29.933594 97.921875 29.933594 97.785156 C 29.933594 97.625 29.863281 97.613281 29.042969 97.613281 C 28.210938 97.613281 28.152344 97.625 28.152344 97.789062 M 30.199219 98.726562 L 30.199219 99.839844 L 30.421875 99.839844 C 30.628906 99.839844 30.644531 99.808594 30.644531 99.394531 C 30.644531 99.023438 30.671875 98.949219 30.808594 98.949219 C 30.917969 98.949219 31.042969 99.097656 31.179688 99.394531 C 31.359375 99.773438 31.425781 99.839844 31.640625 99.839844 C 31.945312 99.839844 31.945312 99.863281 31.667969 99.367188 L 31.441406 98.964844 L 31.667969 98.738281 C 32.234375 98.171875 31.820312 97.613281 30.839844 97.613281 L 30.199219 97.613281 L 30.199219 98.726562 M 32.292969 98.210938 C 32.652344 98.75 32.695312 98.867188 32.695312 99.324219 C 32.695312 99.808594 32.707031 99.839844 32.90625 99.839844 C 33.101562 99.839844 33.121094 99.796875 33.15625 99.328125 C 33.1875 98.90625 33.257812 98.714844 33.566406 98.261719 C 34.011719 97.609375 34.011719 97.613281 33.695312 97.613281 C 33.492188 97.613281 33.40625 97.6875 33.230469 98.011719 C 33.109375 98.234375 32.984375 98.414062 32.953125 98.414062 C 32.921875 98.414062 32.800781 98.234375 32.683594 98.011719 C 32.5 97.664062 32.433594 97.613281 32.179688 97.613281 L 31.890625 97.613281 L 32.292969 98.210938 M 37.917969 97.859375 C 37.890625 97.992188 37.878906 98.484375 37.886719 98.949219 L 37.90625 99.792969 L 38.152344 99.824219 C 38.390625 99.851562 38.394531 99.839844 38.394531 99.398438 L 38.394531 98.949219 L 38.839844 98.949219 C 39.257812 98.949219 39.285156 98.933594 39.285156 98.726562 C 39.285156 98.519531 39.257812 98.503906 38.839844 98.503906 C 38.40625 98.503906 38.394531 98.496094 38.394531 98.234375 C 38.394531 97.972656 38.402344 97.96875 38.886719 97.96875 C 39.316406 97.96875 39.375 97.945312 39.375 97.789062 C 39.375 97.628906 39.316406 97.613281 38.671875 97.613281 C 37.972656 97.613281 37.964844 97.613281 37.917969 97.859375 M 40.746094 98.703125 L 40.757812 99.792969 L 41 99.824219 C 41.238281 99.851562 41.246094 99.839844 41.246094 99.398438 L 41.246094 98.949219 L 41.589844 98.949219 C 42.070312 98.949219 42.40625 98.671875 42.40625 98.277344 C 42.40625 97.785156 42.140625 97.613281 41.375 97.613281 L 40.734375 97.613281 L 40.746094 98.703125 M 42.832031 98.726562 L 42.804688 99.839844 L 43.496094 99.839844 C 44.171875 99.839844 44.1875 99.835938 44.1875 99.617188 C 44.1875 99.410156 44.15625 99.394531 43.742188 99.394531 L 43.296875 99.394531 L 43.296875 98.503906 C 43.296875 97.617188 43.292969 97.613281 43.078125 97.613281 L 42.859375 97.613281 L 42.832031 98.726562 M 45.097656 98.035156 C 44.992188 98.269531 44.765625 98.769531 44.597656 99.148438 L 44.285156 99.839844 L 44.550781 99.839844 C 44.75 99.839844 44.835938 99.785156 44.898438 99.617188 C 44.976562 99.417969 45.035156 99.394531 45.460938 99.394531 C 45.882812 99.394531 45.949219 99.417969 46.039062 99.617188 C 46.148438 99.851562 46.65625 99.957031 46.566406 99.726562 C 45.734375 97.578125 45.449219 97.25 45.097656 98.035156 M 46.859375 98.726562 L 46.859375 99.839844 L 47.082031 99.839844 C 47.316406 99.839844 47.328125 99.792969 47.34375 98.726562 C 47.351562 98.269531 47.511719 98.371094 47.960938 99.117188 C 48.363281 99.792969 48.410156 99.839844 48.695312 99.839844 L 48.996094 99.839844 L 48.996094 97.613281 L 48.777344 97.613281 C 48.5625 97.613281 48.558594 97.628906 48.53125 98.390625 L 48.507812 99.171875 L 48.023438 98.390625 C 47.554688 97.628906 47.535156 97.613281 47.203125 97.613281 L 46.859375 97.613281 L 46.859375 98.726562 M 49.53125 98.726562 L 49.53125 99.839844 L 49.753906 99.839844 C 49.976562 99.839844 49.976562 99.835938 49.980469 99.015625 L 49.980469 98.191406 L 50.152344 98.414062 C 50.246094 98.535156 50.476562 98.90625 50.664062 99.238281 C 50.988281 99.8125 51.015625 99.839844 51.335938 99.839844 L 51.667969 99.839844 L 51.667969 97.613281 L 51.445312 97.613281 C 51.226562 97.613281 51.222656 97.621094 51.222656 98.378906 C 51.222656 99.285156 51.191406 99.28125 50.601562 98.289062 C 50.214844 97.644531 50.1875 97.617188 49.867188 97.613281 L 49.53125 97.613281 L 49.53125 98.726562 M 52.113281 98.730469 L 52.113281 99.851562 L 52.359375 99.824219 L 52.605469 99.792969 L 52.628906 98.703125 L 52.65625 97.613281 L 52.113281 97.613281 L 52.113281 98.730469 M 53.09375 98.726562 L 53.09375 99.839844 L 53.316406 99.839844 C 53.539062 99.839844 53.539062 99.835938 53.539062 99.023438 C 53.539062 98.574219 53.570312 98.234375 53.605469 98.269531 C 53.644531 98.304688 53.875 98.664062 54.121094 99.066406 C 54.542969 99.746094 54.59375 99.796875 54.902344 99.820312 L 55.234375 99.851562 L 55.234375 97.613281 L 55.011719 97.613281 C 54.789062 97.613281 54.789062 97.621094 54.789062 98.378906 C 54.789062 99.285156 54.757812 99.28125 54.164062 98.289062 C 53.777344 97.644531 53.75 97.617188 53.429688 97.613281 L 53.09375 97.613281 L 53.09375 98.726562 M 59.78125 97.941406 C 59.714844 98.128906 59.546875 98.523438 59.410156 98.820312 C 58.941406 99.832031 58.941406 99.839844 59.242188 99.839844 C 59.449219 99.839844 59.515625 99.792969 59.5625 99.617188 C 59.613281 99.414062 59.660156 99.394531 60.101562 99.394531 C 60.53125 99.394531 60.589844 99.417969 60.667969 99.617188 C 60.730469 99.785156 60.816406 99.839844 61.019531 99.839844 C 61.324219 99.839844 61.355469 99.964844 60.734375 98.546875 C 60.269531 97.492188 60.003906 97.324219 59.78125 97.941406 M 61.558594 98.726562 L 61.558594 99.839844 L 61.78125 99.839844 C 62 99.839844 62.003906 99.835938 62.003906 99.023438 C 62.003906 98.574219 62.035156 98.234375 62.070312 98.269531 C 62.105469 98.304688 62.339844 98.664062 62.585938 99.066406 C 63.003906 99.746094 63.054688 99.796875 63.363281 99.820312 L 63.695312 99.851562 L 63.695312 97.613281 L 63.472656 97.613281 C 63.253906 97.613281 63.25 97.621094 63.25 98.371094 C 63.25 98.785156 63.21875 99.125 63.183594 99.125 C 63.148438 99.121094 62.917969 98.78125 62.671875 98.367188 C 62.238281 97.636719 62.214844 97.617188 61.890625 97.613281 L 61.558594 97.613281 L 61.558594 98.726562 M 64.214844 98.734375 L 64.1875 99.855469 L 64.855469 99.824219 C 65.667969 99.789062 66.042969 99.570312 66.199219 99.035156 C 66.445312 98.222656 65.867188 97.613281 64.847656 97.613281 L 64.242188 97.613281 L 64.214844 98.734375 M 67.617188 98.714844 L 67.617188 99.839844 L 68.152344 99.839844 C 69.46875 99.839844 70.128906 98.828125 69.359375 97.992188 C 69.066406 97.667969 69.039062 97.65625 68.335938 97.625 L 67.617188 97.59375 L 67.617188 98.714844 M 70.019531 98.726562 L 70.019531 99.839844 L 70.824219 99.839844 C 71.613281 99.839844 71.625 99.835938 71.625 99.621094 C 71.625 99.414062 71.59375 99.402344 71.066406 99.375 C 70.570312 99.351562 70.507812 99.328125 70.484375 99.152344 C 70.457031 98.972656 70.496094 98.957031 70.972656 98.929688 C 71.421875 98.90625 71.492188 98.878906 71.492188 98.726562 C 71.492188 98.574219 71.421875 98.542969 71.046875 98.519531 C 70.527344 98.488281 70.425781 98.417969 70.511719 98.148438 C 70.5625 97.988281 70.632812 97.957031 70.941406 97.972656 C 71.503906 97.992188 71.535156 97.984375 71.535156 97.789062 C 71.535156 97.625 71.476562 97.613281 70.777344 97.613281 L 70.019531 97.613281 L 70.019531 98.726562 M 71.925781 97.769531 C 71.957031 97.855469 72.152344 98.355469 72.359375 98.878906 C 72.882812 100.207031 72.960938 100.195312 73.5625 98.726562 L 74.019531 97.613281 L 73.765625 97.613281 C 73.53125 97.613281 73.496094 97.660156 73.261719 98.324219 C 73.121094 98.71875 72.984375 99.039062 72.957031 99.039062 C 72.929688 99.039062 72.789062 98.71875 72.644531 98.324219 C 72.398438 97.664062 72.363281 97.613281 72.128906 97.613281 C 71.921875 97.613281 71.882812 97.644531 71.925781 97.769531 M 74.316406 98.703125 L 74.339844 99.792969 L 75.902344 99.847656 L 75.902344 99.621094 C 75.902344 99.402344 75.878906 99.394531 75.367188 99.394531 C 74.859375 99.394531 74.832031 99.382812 74.832031 99.175781 C 74.832031 98.976562 74.871094 98.957031 75.300781 98.929688 C 75.707031 98.90625 75.769531 98.878906 75.796875 98.703125 C 75.820312 98.515625 75.792969 98.503906 75.328125 98.503906 C 74.835938 98.503906 74.832031 98.5 74.832031 98.234375 C 74.832031 97.972656 74.835938 97.96875 75.320312 97.96875 C 75.753906 97.96875 75.8125 97.945312 75.8125 97.789062 C 75.8125 97.625 75.753906 97.613281 75.050781 97.613281 L 74.292969 97.613281 L 74.316406 98.703125 M 76.347656 98.726562 L 76.347656 99.839844 L 77.058594 99.839844 C 77.757812 99.839844 77.769531 99.835938 77.769531 99.617188 C 77.769531 99.40625 77.742188 99.394531 77.304688 99.394531 L 76.835938 99.394531 L 76.898438 97.613281 L 76.347656 97.613281 L 76.347656 98.726562 M 80.742188 98.703125 L 80.753906 99.792969 L 81 99.824219 C 81.238281 99.851562 81.246094 99.839844 81.246094 99.398438 L 81.246094 98.949219 L 81.589844 98.949219 C 82.070312 98.949219 82.402344 98.671875 82.402344 98.273438 C 82.402344 97.769531 82.164062 97.613281 81.386719 97.613281 L 80.730469 97.613281 L 80.742188 98.703125 M 82.761719 98.726562 L 82.761719 99.839844 L 82.984375 99.839844 C 83.203125 99.839844 83.269531 99.429688 83.230469 98.347656 C 83.21875 98.03125 83.378906 98.324219 83.605469 99.039062 C 83.964844 100.160156 84.140625 100.15625 84.5 99.03125 C 84.835938 97.972656 84.898438 97.964844 84.898438 98.988281 C 84.898438 99.835938 84.898438 99.839844 85.121094 99.839844 L 85.34375 99.839844 L 85.34375 97.613281 L 84.585938 97.613281 L 84.417969 98.125 C 84.050781 99.25 84.066406 99.25 83.726562 98.214844 L 83.527344 97.613281 L 82.761719 97.613281 L 82.761719 98.726562 M 85.878906 98.726562 L 85.878906 99.839844 L 86.636719 99.839844 C 87.382812 99.839844 87.390625 99.835938 87.390625 99.617188 C 87.390625 99.402344 87.367188 99.394531 86.859375 99.394531 C 86.347656 99.394531 86.324219 99.382812 86.324219 99.171875 C 86.324219 98.960938 86.351562 98.949219 86.8125 98.949219 C 87.277344 98.949219 87.304688 98.9375 87.304688 98.726562 C 87.304688 98.515625 87.277344 98.503906 86.8125 98.503906 C 86.324219 98.503906 86.324219 98.5 86.324219 98.230469 C 86.324219 97.96875 86.339844 97.957031 86.65625 97.96875 C 87.300781 98 87.390625 97.976562 87.390625 97.789062 C 87.390625 97.625 87.332031 97.613281 86.636719 97.613281 L 85.878906 97.613281 L 85.878906 98.726562 M 87.835938 98.726562 L 87.835938 99.839844 L 88.0625 99.839844 C 88.28125 99.839844 88.285156 99.832031 88.285156 99.082031 C 88.285156 98.664062 88.316406 98.324219 88.359375 98.324219 C 88.402344 98.324219 88.644531 98.664062 88.902344 99.082031 C 89.339844 99.792969 89.382812 99.839844 89.671875 99.839844 L 89.976562 99.839844 L 89.976562 97.613281 L 89.753906 97.613281 C 89.53125 97.613281 89.53125 97.621094 89.53125 98.375 C 89.53125 99.265625 89.511719 99.265625 88.941406 98.328125 C 88.523438 97.636719 88.496094 97.613281 88.171875 97.613281 L 87.835938 97.613281 L 87.835938 98.726562 M 90.242188 97.789062 C 90.242188 97.933594 90.300781 97.96875 90.554688 97.96875 L 90.867188 97.96875 L 90.867188 99.851562 L 91.113281 99.824219 L 91.355469 99.792969 L 91.371094 98.902344 L 91.382812 98.011719 L 91.703125 97.984375 C 91.953125 97.964844 92.023438 97.917969 92.023438 97.785156 C 92.023438 97.625 91.957031 97.613281 91.132812 97.613281 C 90.300781 97.613281 90.242188 97.625 90.242188 97.789062 M 30.660156 98.257812 C 30.695312 98.597656 31.050781 98.707031 31.300781 98.457031 C 31.53125 98.230469 31.339844 97.96875 30.949219 97.96875 C 30.648438 97.96875 30.636719 97.980469 30.660156 98.257812 M 35.925781 98.074219 C 35.503906 98.28125 35.488281 99.171875 35.90625 99.394531 C 36.453125 99.6875 37.015625 99.351562 37.015625 98.726562 C 37.015625 98.085938 36.519531 97.789062 35.925781 98.074219 M 41.246094 98.28125 C 41.246094 98.617188 41.429688 98.691406 41.785156 98.5 C 42.152344 98.304688 41.949219 97.96875 41.460938 97.96875 C 41.273438 97.96875 41.246094 98.011719 41.246094 98.28125 M 64.675781 98.671875 L 64.675781 99.394531 L 65.03125 99.394531 C 66.046875 99.394531 66.027344 98.195312 65.011719 98.011719 L 64.675781 97.949219 L 64.675781 98.671875 M 68.0625 98.683594 L 68.0625 99.394531 L 68.398438 99.394531 C 68.910156 99.394531 69.128906 99.195312 69.128906 98.734375 C 69.128906 98.269531 68.960938 98.097656 68.441406 98.023438 L 68.0625 97.972656 L 68.0625 98.683594 M 78.71875 98.152344 C 78.398438 98.402344 78.386719 99.003906 78.691406 99.289062 C 79.195312 99.761719 79.972656 99.347656 79.882812 98.652344 C 79.796875 98.011719 79.214844 97.761719 78.71875 98.152344 M 81.246094 98.273438 C 81.246094 98.546875 81.273438 98.59375 81.453125 98.59375 C 82.035156 98.59375 82.101562 98.042969 81.527344 97.984375 C 81.257812 97.957031 81.246094 97.972656 81.246094 98.273438 M 45.265625 98.605469 C 45.210938 98.757812 45.167969 98.894531 45.167969 98.90625 C 45.167969 98.917969 45.285156 98.945312 45.433594 98.96875 C 45.582031 98.988281 45.699219 98.980469 45.699219 98.945312 C 45.699219 98.796875 45.496094 98.324219 45.433594 98.324219 C 45.394531 98.324219 45.316406 98.453125 45.265625 98.605469 M 59.964844 98.605469 C 59.910156 98.757812 59.863281 98.898438 59.863281 98.917969 C 59.863281 98.933594 59.988281 98.949219 60.140625 98.949219 C 60.371094 98.949219 60.40625 98.921875 60.355469 98.792969 C 60.3125 98.691406 60.277344 98.585938 60.246094 98.480469 C 60.179688 98.246094 60.070312 98.292969 59.964844 98.605469 "/>
</g>
</svg>
