<svg width="49" height="57" viewBox="0 0 49 57" fill="none" xmlns="http://www.w3.org/2000/svg">
<g filter="url(#filter0_d_72_1363)">
<path d="M57.0865 56.2386C58.5388 45.7319 52.2847 35.6162 42.0954 32.6944C31.906 29.7727 21.2418 35.0371 16.9333 44.6208L57.114 56.1425L57.0865 56.2386Z" fill="#428BC1"/>
<path d="M71.1544 39.4666C71.2661 37.6261 70.5946 35.9771 69.3046 34.671C68.742 34.0935 68.0281 33.6808 67.2867 33.3641C66.6413 33.0751 65.9409 32.9782 65.2129 32.9776C63.9767 32.9352 62.6578 33.1812 61.4626 33.3586C59.8277 33.618 58.289 33.905 57.0394 33.5467L55.7714 37.9685C57.9823 38.6024 60.2766 38.22 62.255 37.851C64.3295 37.5096 65.6483 37.2636 66.211 37.8411C66.6089 38.2673 66.787 38.7345 66.7453 39.2427C66.6761 39.847 66.4556 40.616 66.0153 41.426C65.5474 42.3321 64.7635 43.2517 63.8284 44.336C61.9858 46.4083 59.7863 48.2744 58.1366 49.6739C57.5592 50.2365 57.0093 50.703 56.6107 51.0048L56.1569 51.4989C56.1293 51.595 56.0332 51.5674 56.0056 51.6636L20.439 41.465C20.4665 41.3688 20.3704 41.3413 20.398 41.2452L20.275 40.5857C20.1244 40.0224 19.9053 39.3354 19.6862 38.6484C19.0288 36.5873 18.1523 33.8393 17.6879 31.1054C17.4695 29.6903 17.3882 28.5227 17.3754 27.4787C17.4588 26.4624 17.5832 25.6658 17.9133 25.2403C18.1472 24.7872 18.5458 24.4854 19.1092 24.3348C19.8923 24.1433 20.908 24.9547 22.4587 26.4396C23.9409 27.8009 25.5878 29.3135 27.8949 29.975L29.1628 25.5532C27.9131 25.1949 26.7603 24.1361 25.5114 23.0498C24.6194 22.1698 23.6037 21.3584 22.5329 20.7393C21.7229 20.2989 21.0775 20.0099 20.3771 19.913C19.5805 19.7887 18.7564 19.7604 17.9732 19.952C16.1871 20.3761 14.7163 21.5148 13.8632 23.0386C12.7486 25.1117 12.4299 28.0372 13.1679 31.9939C13.6733 34.9476 14.5908 37.9155 15.3167 40.1002C15.5358 40.7872 15.755 41.4742 15.837 41.9139C15.878 42.1337 15.919 42.3535 16.0561 42.6009C16.3848 43.6314 16.5763 44.4145 16.5481 45.2387L13.4334 56.1009C13.145 56.0183 12.8976 56.1554 12.7873 56.5399C12.7047 56.8283 12.8142 57.1718 13.1026 57.2545L53.764 68.9139C54.0523 68.9966 54.2997 68.8595 54.41 68.475C54.4927 68.1866 54.3831 67.8431 54.0947 67.7604L57.1819 56.9943C57.6908 56.308 58.2682 55.7453 58.9969 55.018C59.1482 54.8533 59.2994 54.6886 59.5468 54.5515C59.8493 54.2221 60.3992 53.7556 60.9491 53.2891C62.6263 51.7935 64.9771 49.7628 67.0671 47.5533C69.6935 44.5613 70.9735 41.9115 71.1544 39.4666Z" fill="#F2B200"/>
<path d="M42.1887 35.6344C42.2283 37.3103 39.1636 38.9282 35.3723 39.0894C31.5535 39.3468 28.3679 38.1212 28.2321 36.4178C28.1925 34.742 31.2572 33.124 35.0485 32.9628C38.8398 32.8016 42.053 33.931 42.1887 35.6344Z" fill="#42ADE2"/>
<path d="M34.2205 51.4507L38.8345 52.7737L35.8576 63.1554L31.2436 61.8323L34.2205 51.4507Z" fill="#FFDD7D"/>
<path d="M42.1028 53.7109L46.7169 55.034L43.74 65.4156L39.1259 64.0926L42.1028 53.7109Z" fill="#FFCE31"/>
<path d="M38.8345 52.7734L42.1028 53.7106L39.1259 64.0922L35.8576 63.1551L38.8345 52.7734Z" fill="white"/>
<path d="M49.9852 55.9712L53.2535 56.9084L50.2766 67.29L47.0083 66.3528L49.9852 55.9712Z" fill="#FFCE31"/>
<path d="M16.1487 46.2686L19.417 47.2057L16.4401 57.5874L13.1719 56.6502L16.1487 46.2686Z" fill="#F2B200"/>
<path d="M19.8015 47.3159L26.1459 49.1351L23.169 59.5168L16.8247 57.6975L19.8015 47.3159Z" fill="#FFCE31"/>
<path d="M35.7406 41.7958C35.3272 43.2377 31.6843 46.1462 31.6843 46.1462C31.6843 46.1462 30.1364 41.7492 30.5498 40.3073C30.9633 38.8654 32.4476 38.0427 33.8894 38.4561C35.3313 38.8696 36.1541 40.3539 35.7406 41.7958ZM47.7564 45.2412C47.3429 46.6831 43.7001 49.5917 43.7001 49.5917C43.7001 49.5917 42.1521 45.1947 42.5656 43.7528C42.979 42.3109 44.4633 41.4881 45.9052 41.9016C47.3471 42.3151 48.1699 43.7993 47.7564 45.2412Z" fill="#F2B200"/>
<path d="M51.4038 23.0881L39.2919 19.6151L43.4712 15.9241L49.6233 17.6882L51.4038 23.0881Z" fill="#66CAF2"/>
<path d="M20.6509 35.2839C23.5919 33.7345 28.5367 33.9041 31.3647 35.6513C28.3276 37.1731 23.4789 37.0311 20.6509 35.2839ZM59.1014 46.3094C55.7773 46.2925 51.494 43.8159 49.8209 40.9435C53.145 40.9604 57.4283 43.437 59.1014 46.3094ZM35.3334 36.6852C38.5897 35.8504 43.2999 37.2011 45.6189 39.6346C42.3627 40.4694 37.7486 39.1463 35.3334 36.6852Z" fill="#FFCE31"/>
<path d="M47.6046 17.1094L47.3665 21.9305L51.4038 23.0882L49.6233 17.6882L47.6046 17.1094Z" fill="#428BC1"/>
<path d="M47.6046 17.1094L45.4899 16.503L43.3292 20.7728L47.3665 21.9305L47.6046 17.1094Z" fill="#42ADE2"/>
<path d="M45.4899 16.5029L43.3292 20.7728L39.2919 19.6151L43.4712 15.9241L45.4899 16.5029Z" fill="#66CAF2"/>
<path d="M17.621 43.6739C24.2954 45.0676 30.9556 46.8734 37.4922 48.7477C44.0288 50.6221 50.6339 52.6201 57.0327 54.9751C50.3583 53.5814 43.698 51.7756 37.1614 49.9012C30.6524 47.9308 24.0197 46.0289 17.621 43.6739Z" fill="#FFDD7D"/>
<path d="M16.1487 46.2686L56.8101 57.928L56.5069 58.9854L15.8455 47.3259L16.1487 46.2686Z" fill="#428BC1"/>
<path d="M15.8455 47.326C16.111 47.4021 16.4002 47.2056 16.4916 46.8871C16.5829 46.5685 16.4418 46.2486 16.1763 46.1725C15.9109 46.0964 15.6216 46.2929 15.5303 46.6114C15.439 46.93 15.5801 47.2499 15.8455 47.326Z" fill="#428BC1"/>
<path d="M61.1735 34.004C61.1883 32.8639 61.0795 31.7924 60.6547 30.7343C60.2299 29.6762 59.6814 28.6867 58.7894 27.8068C58.1306 27.2018 57.4443 26.6929 56.6067 26.3487C55.9614 26.0596 55.1648 25.9352 54.3407 25.907C53.0084 25.837 51.5658 26.1516 50.1507 26.37C49.8072 26.4796 49.3952 26.4654 48.9555 26.5474C50.1656 25.2299 51.0596 23.9258 51.3353 22.9646L39.3195 19.5191C39.0439 20.4804 39.1111 22.0601 39.439 23.8186C39.1097 23.5161 38.8488 23.3373 38.5195 23.0348C37.4352 22.0997 36.3785 21.0685 35.2116 20.4218C34.4977 20.009 33.7562 19.6924 33.0558 19.5956C32.1631 19.4436 31.339 19.4154 30.4321 19.6755C29.3055 19.9766 28.2198 20.4975 27.2989 21.1697C26.4741 21.8695 25.7178 22.6929 25.1262 23.6676C23.654 26.2623 23.0186 29.9292 23.3714 34.5037C23.5877 38.1027 24.354 41.2353 24.641 42.774L29.7357 44.2349C29.6537 43.7953 29.4755 43.3281 29.3935 42.8884C29.3525 42.6686 29.2154 42.4212 29.1744 42.2014C28.0929 38.3543 26.7548 29.9603 29.025 26.0339C29.6166 25.0592 30.3177 24.428 31.4168 24.223C31.7603 24.1135 32.1724 24.1276 32.9824 24.5679C33.7924 25.0083 34.6158 25.7645 35.5078 26.6445C36.8939 27.9782 38.4722 29.3671 40.4082 30.2343L35.8602 46.0951L40.1859 47.3355L44.7339 31.4746C46.8352 31.7651 48.9097 31.4237 50.888 31.0547C52.0832 30.8773 53.2099 30.5761 54.1301 30.632C55.0504 30.6878 55.4073 30.8942 55.6406 31.1691C56.3679 31.8978 56.7242 32.8322 56.7093 33.9723C56.5539 38.505 50.9985 44.8183 48.0151 47.6039C47.8639 47.7686 47.6165 47.9057 47.4653 48.0704C47.0666 48.3722 46.7641 48.7016 46.4616 49.031L51.5563 50.4919C52.6836 49.4627 54.9249 47.0885 57.0156 44.151C59.6427 40.431 61.0471 36.9846 61.1735 34.004Z" fill="#FFCE31"/>
<path d="M44.1075 25.6775C42.4734 25.2089 41.2244 24.1226 40.3466 22.8306C40.0285 25.028 41.2902 27.1583 43.5011 27.7923C45.6159 28.3987 47.9109 27.2883 48.8057 25.2562C47.3489 25.9828 45.7417 26.1461 44.1075 25.6775Z" fill="#F2B200"/>
</g>
<defs>
<filter id="filter0_d_72_1363" x="-3.58023" y="0.419434" width="87.1615" height="87.1616" filterUnits="userSpaceOnUse" color-interpolation-filters="sRGB">
<feFlood flood-opacity="0" result="BackgroundImageFix"/>
<feColorMatrix in="SourceAlpha" type="matrix" values="0 0 0 0 0 0 0 0 0 0 0 0 0 0 0 0 0 0 127 0" result="hardAlpha"/>
<feOffset dy="4"/>
<feGaussianBlur stdDeviation="2"/>
<feComposite in2="hardAlpha" operator="out"/>
<feColorMatrix type="matrix" values="0 0 0 0 0 0 0 0 0 0 0 0 0 0 0 0 0 0 0.25 0"/>
<feBlend mode="normal" in2="BackgroundImageFix" result="effect1_dropShadow_72_1363"/>
<feBlend mode="normal" in="SourceGraphic" in2="effect1_dropShadow_72_1363" result="shape"/>
</filter>
</defs>
</svg>
