<?xml version="1.0" encoding="iso-8859-1"?>
<!-- Uploaded to: SVG Repo, www.svgrepo.com, Generator: SVG Repo Mixer Tools -->
<svg height="800px" width="800px" version="1.1" id="Layer_1" xmlns="http://www.w3.org/2000/svg" xmlns:xlink="http://www.w3.org/1999/xlink" 
	 viewBox="0 0 392.533 392.533" xml:space="preserve">
<path style="fill:#FFFFFF;" d="M199.305,43.19c-37.883,10.925-77.059,22.174-116.364,22.174c-21.851,0-41.956-3.426-61.091-10.408
	V245.34c18.941,8.145,39.046,12.154,61.091,12.154l0,0c36.267,0,73.891-10.796,110.287-21.333
	c37.883-10.925,77.059-22.174,116.364-22.174c21.851,0,41.956,3.426,61.091,10.408V33.946
	c-18.941-8.145-39.046-12.154-61.091-12.154C273.39,21.792,235.701,32.718,199.305,43.19z"/>
<path style="fill:#194F82;" d="M386.327,17.073c-23.79-11.442-48.937-17.067-76.8-17.067c-39.305,0-78.416,11.313-116.364,22.174
	c-36.331,10.537-74.02,21.398-110.158,21.398c-24.501,0-46.545-4.848-67.297-14.933C8.145,25.089,0.582,30.39,0,38.471v213.915
	c0,4.202,2.392,8.016,6.206,9.826c23.79,11.507,48.937,17.067,76.8,17.067l0,0c39.305,0,78.416-11.313,116.299-22.174
	c36.396-10.602,74.085-21.398,110.222-21.398c24.501,0,46.545,4.848,67.297,14.933c8.275,3.879,15.709-2.521,15.709-9.826V26.899
	C392.533,22.697,390.141,18.948,386.327,17.073z M370.747,224.33c-19.135-7.046-39.305-10.408-61.091-10.408
	c-39.305,0-78.481,11.313-116.364,22.174c-36.396,10.537-74.02,21.333-110.287,21.333l0,0c-22.109,0-42.214-3.943-61.091-12.154
	V54.956c19.135,7.046,39.305,10.408,61.091,10.408c39.305,0,78.416-11.313,116.364-22.174
	c36.396-10.537,74.02-21.333,110.287-21.333c22.109,0,42.214,3.943,61.091,12.154V224.33L370.747,224.33z"/>
<path style="fill:#FFC10D;" d="M82.877,235.449c-8.857,0-17.455-0.776-25.665-2.263c-0.065-8.016-5.818-14.869-13.705-16.162
	V102.213c9.568,0.905,17.907-6.659,17.842-16.226c7.046,0.711,14.158,1.034,21.463,1.034c42.408,0,83.071-11.766,122.376-23.014
	c36.525-10.537,71.111-20.493,104.21-20.493c8.986,0,17.455,0.776,25.665,2.263c0.129,8.016,5.818,14.804,13.705,16.162V176.75
	c-9.568-0.905-17.907,6.659-17.842,16.226c-7.046-0.711-14.158-1.099-21.463-1.099c-42.408,0-83.071,11.766-122.376,23.014
	C150.626,225.493,116.04,235.449,82.877,235.449L82.877,235.449z"/>
<g>
	<path style="fill:#FFFFFF;" d="M322.974,141.647c-6.012,0-10.925-4.848-10.925-10.925v-25.212c0-6.012,4.848-10.925,10.925-10.925
		c6.012,0,10.925,4.848,10.925,10.925v25.212C333.899,136.798,329.051,141.647,322.974,141.647z"/>
	<path style="fill:#FFFFFF;" d="M69.56,184.314c-6.012,0-10.925-4.848-10.925-10.925v-25.212c0-6.012,4.848-10.925,10.925-10.925
		s10.925,4.848,10.925,10.925v25.212C80.42,179.336,75.572,184.314,69.56,184.314z"/>
</g>
<g>
	<path style="fill:#194F82;" d="M198.659,108.095c2.78-0.776,5.172-0.646,6.723,0.646c1.745,1.293,2.133,3.685,2.133,5.43
		c0,4.784,3.879,8.663,8.663,8.663s8.663-3.879,8.663-8.663c0-7.887-3.297-14.933-9.051-19.265
		c-3.168-2.392-6.853-3.814-10.925-4.331v-2.909c0-4.784-3.879-8.663-8.663-8.663s-8.663,3.879-8.663,8.663v6.4
		c-11.572,6.077-19.911,18.747-19.911,31.354c0,7.887,3.297,14.933,9.051,19.265c5.947,4.461,14.998,5.301,22.949,3.038
		c-0.259,0.065,0,0,0.065,0c2.327-0.453,4.267-0.129,5.624,0.84c1.745,1.293,2.133,3.685,2.133,5.43
		c0,7.111-6.4,15.192-13.77,17.325c-2.78,0.776-5.172,0.646-6.723-0.646c-1.745-1.293-2.133-3.685-2.133-5.43
		c0-4.784-3.879-8.663-8.663-8.663c-4.784,0-8.663,3.879-8.663,8.663c0,7.887,3.297,14.933,9.051,19.265
		c3.168,2.392,6.853,3.814,10.925,4.267v2.844c0,4.784,3.879,8.663,8.663,8.663c4.784,0,8.663-3.879,8.663-8.663v-6.335
		c11.572-6.077,19.911-18.747,19.911-31.354c0-7.887-3.297-14.933-9.05-19.265c-5.947-4.461-13.899-5.689-21.915-3.426
		c0.259-0.065,0,0-0.065,0c-2.327,0.453-5.301,0.517-6.659-0.453c-1.745-1.293-2.133-3.685-2.133-5.43
		C184.954,118.309,191.418,110.164,198.659,108.095z"/>
	<path style="fill:#194F82;" d="M386.327,289.558c-65.552-31.677-130.457-12.994-193.099,5.107
		c-61.479,17.713-119.531,34.457-177.584,6.4c-5.43-2.65-11.96-0.388-14.545,5.107c-2.651,5.43-0.323,11.96,5.107,14.545
		c52.558,26.053,110.933,20.816,193.099-5.107c61.479-17.713,119.531-34.457,177.584-6.4c5.43,2.65,11.96,0.323,14.545-5.107
		C394.085,298.673,391.758,292.144,386.327,289.558z"/>
	<path style="fill:#194F82;" d="M386.327,344.314c-65.552-31.677-130.457-12.994-193.099,5.107
		c-61.479,17.713-119.531,34.457-177.584,6.4c-5.43-2.65-11.96-0.323-14.545,5.107c-2.651,5.43-0.323,11.96,5.107,14.545
		c58.053,28.768,122.311,17.067,193.099-5.107c61.479-17.713,119.531-34.457,177.584-6.4c5.43,2.65,11.96,0.323,14.545-5.107
		C394.085,353.429,391.758,346.964,386.327,344.314z"/>
</g>
</svg>