<?xml version="1.0" encoding="iso-8859-1"?>
<!-- Uploaded to: SVG Repo, www.svgrepo.com, Generator: SVG Repo Mixer Tools -->
<svg height="800px" width="800px" version="1.1" id="Layer_1" xmlns="http://www.w3.org/2000/svg" xmlns:xlink="http://www.w3.org/1999/xlink" 
	 viewBox="0 0 248.868 248.868" xml:space="preserve">
<g>
	<path style="fill:#F9C890;" d="M124.434,0C55.821,0,0,55.821,0,124.434s55.821,124.434,124.434,124.434
		s124.434-55.821,124.434-124.434S193.048,0,124.434,0z"/>
</g>
<g>
	<g>
		<g>
			<g>
				<path style="fill:#F3A069;" d="M124.434,0C55.821,0,0,55.821,0,124.434s55.821,124.434,124.434,124.434V0z"/>
			</g>
		</g>
	</g>
</g>
<path style="fill:#FFFFFF;" d="M156.773,147.141c13.679-9.769,22.762-25.55,23.387-43.452h-20.743
	c-1.021,18.412-16.319,33.079-34.982,33.079s-33.962-14.668-34.983-33.08H68.709c0.624,17.903,9.708,33.683,23.387,43.452
	c-14.147,10.104-23.404,26.631-23.443,45.294h20.745c0.064-19.266,15.756-34.921,35.037-34.921s34.972,15.654,35.037,34.921h20.745
	C180.177,173.772,170.92,157.244,156.773,147.141z"/>
<path style="fill:#F7E3CD;" d="M124.434,136.768c-18.663,0-33.961-14.667-34.982-33.079H68.709
	c0.624,17.903,9.708,33.683,23.387,43.452c-14.147,10.104-23.404,26.631-23.443,45.294h20.745
	c0.064-19.266,15.756-34.921,35.037-34.921L124.434,136.768L124.434,136.768z"/>
<path style="fill:#FFFFFF;" d="M89.604,97.926c1.902-17.539,16.794-31.237,34.83-31.237s32.928,13.699,34.83,31.237h20.812
	c-1.963-28.992-26.161-51.983-55.642-51.983S70.755,68.934,68.792,97.926H89.604z"/>
<path style="fill:#F7E3CD;" d="M89.604,97.926c1.902-17.539,16.794-31.237,34.83-31.237V45.942
	c-29.481,0-53.679,22.991-55.642,51.983L89.604,97.926L89.604,97.926z"/>
</svg>