<?xml version="1.0" encoding="iso-8859-1"?>
<!-- Uploaded to: SVG Repo, www.svgrepo.com, Generator: SVG Repo Mixer Tools -->
<svg height="800px" width="800px" version="1.1" id="Layer_1" xmlns="http://www.w3.org/2000/svg" xmlns:xlink="http://www.w3.org/1999/xlink" 
	 viewBox="0 0 512 512" xml:space="preserve">
<path style="fill:#6E6057;" d="M395.13,445.217h-66.783c-9.217,0-16.696-7.473-16.696-16.696V317.217
	c0-9.223,7.479-16.696,16.696-16.696h66.783c9.217,0,16.696,7.473,16.696,16.696v111.304
	C411.826,437.744,404.348,445.217,395.13,445.217z"/>
<path style="fill:#615349;" d="M395.13,300.522h-33.391v144.696h33.391c9.217,0,16.696-7.473,16.696-16.696V317.217
	C411.826,307.995,404.348,300.522,395.13,300.522z"/>
<path style="fill:#9DCA40;" d="M428.522,333.913H294.957c-46.032,0-83.478-37.446-83.478-83.478
	c0-27.342,13.119-52.217,34.99-67.723c-1.065-5.26-1.598-10.527-1.598-15.755c0-27.342,13.119-52.217,34.99-67.723
	c-1.065-5.26-1.598-10.527-1.598-15.755C278.261,37.446,315.707,0,361.739,0s83.478,37.446,83.478,83.478
	c0,5.228-0.533,10.495-1.598,15.755c21.87,15.506,34.99,40.381,34.99,67.723c0,5.228-0.533,10.495-1.598,15.755
	c21.87,15.506,34.99,40.381,34.99,67.723C512,296.467,474.554,333.913,428.522,333.913z"/>
<path style="fill:#85BB04;" d="M428.522,333.913c46.032,0,83.478-37.446,83.478-83.478c0-27.342-13.119-52.217-34.99-67.723
	c1.065-5.26,1.598-10.527,1.598-15.755c0-27.342-13.119-52.217-34.99-67.723c1.065-5.26,1.598-10.527,1.598-15.755
	C445.217,37.446,407.771,0,361.739,0v333.913H428.522z"/>
<path style="fill:#6E6057;" d="M183.652,445.217H116.87c-9.217,0-16.696-7.473-16.696-16.696V317.217
	c0-9.223,7.479-16.696,16.696-16.696h66.783c9.217,0,16.696,7.473,16.696,16.696v111.304
	C200.348,437.744,192.869,445.217,183.652,445.217z"/>
<path style="fill:#615349;" d="M183.652,300.522h-33.391v144.696h33.391c9.217,0,16.696-7.473,16.696-16.696V317.217
	C200.348,307.995,192.869,300.522,183.652,300.522z"/>
<g>
	<path style="fill:#BDDBFF;" d="M495.304,445.217H16.696C7.479,445.217,0,437.744,0,428.522s7.479-16.696,16.696-16.696h478.609
		c9.217,0,16.696,7.473,16.696,16.696S504.521,445.217,495.304,445.217z"/>
	<path style="fill:#BDDBFF;" d="M317.217,512H194.783c-9.217,0-16.696-7.473-16.696-16.696s7.479-16.696,16.696-16.696h122.435
		c9.217,0,16.696,7.473,16.696,16.696S326.435,512,317.217,512z"/>
</g>
<path style="fill:#9BC9FF;" d="M317.217,478.609H256V512h61.217c9.217,0,16.696-7.473,16.696-16.696
	S326.435,478.609,317.217,478.609z"/>
<path style="fill:#BDDBFF;" d="M128,512H16.696C7.479,512,0,504.527,0,495.304s7.479-16.696,16.696-16.696H128
	c9.217,0,16.696,7.473,16.696,16.696S137.217,512,128,512z"/>
<path style="fill:#9BC9FF;" d="M495.304,512H384c-9.217,0-16.696-7.473-16.696-16.696s7.479-16.696,16.696-16.696h111.304
	c9.217,0,16.696,7.473,16.696,16.696S504.521,512,495.304,512z"/>
<path style="fill:#9DCA40;" d="M217.043,333.913H83.478C37.446,333.913,0,296.467,0,250.435c0-27.342,13.119-52.217,34.99-67.723
	c-1.065-5.26-1.598-10.527-1.598-15.755c0-27.342,13.119-52.217,34.99-67.723c-1.065-5.26-1.598-10.527-1.598-15.755
	C66.783,37.446,104.229,0,150.261,0s83.478,37.446,83.478,83.478c0,5.228-0.533,10.495-1.598,15.755
	c21.87,15.506,34.99,40.381,34.99,67.723c0,5.228-0.533,10.495-1.598,15.755c21.87,15.506,34.99,40.381,34.99,67.723
	C300.522,296.467,263.076,333.913,217.043,333.913z"/>
<path style="fill:#85BB04;" d="M217.043,333.913c46.032,0,83.478-37.446,83.478-83.478c0-27.342-13.119-52.217-34.99-67.723
	c1.065-5.26,1.598-10.527,1.598-15.755c0-27.342-13.119-52.217-34.99-67.723c1.065-5.26,1.598-10.527,1.598-15.755
	C233.739,37.446,196.293,0,150.261,0v333.913H217.043z"/>
<path style="fill:#9BC9FF;" d="M495.304,411.826H256v33.391h239.304c9.217,0,16.696-7.473,16.696-16.696
	S504.521,411.826,495.304,411.826z"/>
</svg>