<svg width="24" height="24" viewBox="0 0 24 24" fill="none" xmlns="http://www.w3.org/2000/svg">
<path d="M8.49957 17H5.91357L6.20657 16.707C6.38873 16.5184 6.48953 16.2658 6.48725 16.0036C6.48497 15.7414 6.3798 15.4906 6.19439 15.3052C6.00898 15.1198 5.75817 15.0146 5.49597 15.0123C5.23378 15.01 4.98118 15.1108 4.79257 15.293L2.79257 17.293C2.60608 17.481 2.50143 17.7352 2.50143 18C2.50143 18.2648 2.60608 18.519 2.79257 18.707L4.79257 20.707C4.98118 20.8892 5.23378 20.99 5.49597 20.9877C5.75817 20.9854 6.00898 20.8802 6.19439 20.6948C6.3798 20.5094 6.48497 20.2586 6.48725 19.9964C6.48953 19.7342 6.38873 19.4816 6.20657 19.293L5.91357 19H8.49957C8.76479 19 9.01914 18.8946 9.20668 18.7071C9.39422 18.5196 9.49957 18.2652 9.49957 18C9.49957 17.7348 9.39422 17.4804 9.20668 17.2929C9.01914 17.1054 8.76479 17 8.49957 17ZM21.2066 17.293L19.2066 15.293C19.018 15.1108 18.7654 15.01 18.5032 15.0123C18.241 15.0146 17.9902 15.1198 17.8048 15.3052C17.6193 15.4906 17.5142 15.7414 17.5119 16.0036C17.5096 16.2658 17.6104 16.5184 17.7926 16.707L18.0856 17H15.4996C15.2344 17 14.98 17.1054 14.7925 17.2929C14.6049 17.4804 14.4996 17.7348 14.4996 18C14.4996 18.2652 14.6049 18.5196 14.7925 18.7071C14.98 18.8946 15.2344 19 15.4996 19H18.0856L17.7926 19.293C17.6971 19.3852 17.6209 19.4956 17.5685 19.6176C17.5161 19.7396 17.4885 19.8708 17.4873 20.0036C17.4862 20.1364 17.5115 20.2681 17.5618 20.391C17.612 20.5138 17.6863 20.6255 17.7802 20.7194C17.8741 20.8133 17.9857 20.8875 18.1086 20.9378C18.2315 20.9881 18.3632 21.0134 18.496 21.0123C18.6288 21.0111 18.76 20.9835 18.882 20.9311C19.004 20.8787 19.1143 20.8025 19.2066 20.707L21.2066 18.707C21.3931 18.519 21.4977 18.2648 21.4977 18C21.4977 17.7352 21.3931 17.481 21.2066 17.293ZM20.6396 9.772C21.1906 9.14303 21.496 8.33622 21.4996 7.5C21.4996 6.57174 21.1308 5.6815 20.4744 5.02513C19.8181 4.36875 18.9278 4 17.9996 4C17.0713 4 16.1811 4.36875 15.5247 5.02513C14.8683 5.6815 14.4996 6.57174 14.4996 7.5C14.5031 8.33622 14.8085 9.14303 15.3596 9.772C14.6397 10.2185 14.0453 10.8409 13.6324 11.5806C13.2195 12.3203 13.0017 13.1529 12.9996 14C12.9996 14.2652 13.1049 14.5196 13.2925 14.7071C13.48 14.8946 13.7344 15 13.9996 15C14.2648 15 14.5191 14.8946 14.7067 14.7071C14.8942 14.5196 14.9996 14.2652 14.9996 14C14.9996 13.2044 15.3156 12.4413 15.8783 11.8787C16.4409 11.3161 17.2039 11 17.9996 11C18.7952 11 19.5583 11.3161 20.1209 11.8787C20.6835 12.4413 20.9996 13.2044 20.9996 14C20.9996 14.2652 21.1049 14.5196 21.2925 14.7071C21.48 14.8946 21.7344 15 21.9996 15C22.2648 15 22.5191 14.8946 22.7067 14.7071C22.8942 14.5196 22.9996 14.2652 22.9996 14C22.9974 13.1529 22.7796 12.3203 22.3668 11.5806C21.9539 10.8409 21.3595 10.2185 20.6396 9.772ZM17.9996 9C17.7029 9 17.4129 8.91203 17.1662 8.7472C16.9195 8.58238 16.7273 8.34811 16.6138 8.07403C16.5002 7.79994 16.4705 7.49834 16.5284 7.20736C16.5863 6.91639 16.7291 6.64912 16.9389 6.43934C17.1487 6.22956 17.416 6.0867 17.7069 6.02882C17.9979 5.97094 18.2995 6.00065 18.5736 6.11418C18.8477 6.22771 19.082 6.41997 19.2468 6.66664C19.4116 6.91332 19.4996 7.20333 19.4996 7.5C19.4996 7.89782 19.3415 8.27936 19.0602 8.56066C18.7789 8.84196 18.3974 9 17.9996 9ZM8.63957 9.772C9.19064 9.14303 9.49603 8.33622 9.49957 7.5C9.49957 6.57174 9.13082 5.6815 8.47445 5.02513C7.81807 4.36875 6.92783 4 5.99957 4C5.07131 4 4.18108 4.36875 3.5247 5.02513C2.86832 5.6815 2.49957 6.57174 2.49957 7.5C2.50311 8.33622 2.80851 9.14303 3.35957 9.772C2.63966 10.2185 2.04526 10.8409 1.63238 11.5806C1.2195 12.3203 1.00172 13.1529 0.999573 14C0.999573 14.2652 1.10493 14.5196 1.29247 14.7071C1.48 14.8946 1.73436 15 1.99957 15C2.26479 15 2.51914 14.8946 2.70668 14.7071C2.89422 14.5196 2.99957 14.2652 2.99957 14C2.99957 13.2044 3.31564 12.4413 3.87825 11.8787C4.44086 11.3161 5.20392 11 5.99957 11C6.79522 11 7.55828 11.3161 8.12089 11.8787C8.6835 12.4413 8.99957 13.2044 8.99957 14C8.99957 14.2652 9.10493 14.5196 9.29247 14.7071C9.48 14.8946 9.73436 15 9.99957 15C10.2648 15 10.5191 14.8946 10.7067 14.7071C10.8942 14.5196 10.9996 14.2652 10.9996 14C10.9974 13.1529 10.7796 12.3203 10.3668 11.5806C9.95388 10.8409 9.35948 10.2185 8.63957 9.772ZM5.99957 9C5.7029 9 5.41289 8.91203 5.16622 8.7472C4.91954 8.58238 4.72728 8.34811 4.61375 8.07403C4.50022 7.79994 4.47052 7.49834 4.52839 7.20736C4.58627 6.91639 4.72913 6.64912 4.93891 6.43934C5.14869 6.22956 5.41597 6.0867 5.70694 6.02882C5.99791 5.97094 6.29951 6.00065 6.5736 6.11418C6.84769 6.22771 7.08195 6.41997 7.24678 6.66664C7.4116 6.91332 7.49957 7.20333 7.49957 7.5C7.49957 7.89782 7.34154 8.27936 7.06023 8.56066C6.77893 8.84196 6.3974 9 5.99957 9Z" fill="#2F2F2F"/>
</svg>
