<svg xmlns="http://www.w3.org/2000/svg" version="1.1" xmlns:xlink="http://www.w3.org/1999/xlink" xmlns:svgjs="http://svgjs.dev/svgjs" width="1440" height="560" preserveAspectRatio="none" viewBox="0 0 1440 560">
    <g mask="url(&quot;#SvgjsMask1000&quot;)" fill="none">
        <rect width="1440" height="560" x="0" y="0" fill="#0e2a47"></rect>
        <path d="M-92.72 380.23L-92.72 380.23" stroke="#132e65" stroke-width="1.5"></path>
        <path d="M-92.72 380.23L-50.72 559.77" stroke="#132e65" stroke-width="1.5"></path>
        <path d="M-92.72 380.23L99.46 361.66" stroke="#132e65" stroke-width="1.5"></path>
        <path d="M-92.72 380.23L101.61 541.39" stroke="#132e65" stroke-width="1.5"></path>
        <path d="M-92.72 380.23L-107.28 647" stroke="#132e65" stroke-width="1.5"></path>
        <path d="M-92.72 380.23L206.96 380.88" stroke="#132e65" stroke-width="1.5"></path>
        <path d="M-50.72 559.77L-50.72 559.77" stroke="#132e65" stroke-width="1.5"></path>
        <path d="M-50.72 559.77L-107.28 647" stroke="#132e65" stroke-width="1.5"></path>
        <path d="M-50.72 559.77L41.23 678.06" stroke="#132e65" stroke-width="1.5"></path>
        <path d="M-50.72 559.77L101.61 541.39" stroke="#132e65" stroke-width="1.5"></path>
        <path d="M-50.72 559.77L99.46 361.66" stroke="#132e65" stroke-width="1.5"></path>
        <path d="M-107.28 647L-107.28 647" stroke="#132e65" stroke-width="1.5"></path>
        <path d="M-107.28 647L41.23 678.06" stroke="#132e65" stroke-width="1.5"></path>
        <path d="M-107.28 647L101.61 541.39" stroke="#132e65" stroke-width="1.5"></path>
        <path d="M-107.28 647L99.46 361.66" stroke="#132e65" stroke-width="1.5"></path>
        <path d="M99.46 361.66L99.46 361.66" stroke="#132e65" stroke-width="1.5"></path>
        <path d="M99.46 361.66L206.96 380.88" stroke="#132e65" stroke-width="1.5"></path>
        <path d="M99.46 361.66L101.61 541.39" stroke="#132e65" stroke-width="1.5"></path>
        <path d="M101.61 541.39L101.61 541.39" stroke="#132e65" stroke-width="1.5"></path>
        <path d="M101.61 541.39L41.23 678.06" stroke="#132e65" stroke-width="1.5"></path>
        <path d="M101.61 541.39L206.96 380.88" stroke="#132e65" stroke-width="1.5"></path>
        <path d="M101.61 541.39L256.8 712.03" stroke="#132e65" stroke-width="1.5"></path>
        <path d="M41.23 678.06L41.23 678.06" stroke="#132e65" stroke-width="1.5"></path>
        <path d="M41.23 678.06L256.8 712.03" stroke="#132e65" stroke-width="1.5"></path>
        <path d="M206.96 380.88L206.96 380.88" stroke="#132e65" stroke-width="1.5"></path>
        <path d="M206.96 380.88L390.44 349.6" stroke="#132e65" stroke-width="1.5"></path>
        <path d="M206.96 380.88L370.26 498.46" stroke="#132e65" stroke-width="1.5"></path>
        <path d="M256.8 712.03L256.8 712.03" stroke="#132e65" stroke-width="1.5"></path>
        <path d="M256.8 712.03L355.28 689.72" stroke="#132e65" stroke-width="1.5"></path>
        <path d="M256.8 712.03L370.26 498.46" stroke="#132e65" stroke-width="1.5"></path>
        <path d="M256.8 712.03L510.07 657.26" stroke="#132e65" stroke-width="1.5"></path>
        <path d="M256.8 712.03L206.96 380.88" stroke="#132e65" stroke-width="1.5"></path>
        <path d="M390.44 349.6L390.44 349.6" stroke="#132e65" stroke-width="1.5"></path>
        <path d="M390.44 349.6L511.94 345.59" stroke="#132e65" stroke-width="1.5"></path>
        <path d="M390.44 349.6L370.26 498.46" stroke="#132e65" stroke-width="1.5"></path>
        <path d="M390.44 349.6L552.86 491.36" stroke="#132e65" stroke-width="1.5"></path>
        <path d="M370.26 498.46L370.26 498.46" stroke="#132e65" stroke-width="1.5"></path>
        <path d="M370.26 498.46L552.86 491.36" stroke="#132e65" stroke-width="1.5"></path>
        <path d="M355.28 689.72L355.28 689.72" stroke="#132e65" stroke-width="1.5"></path>
        <path d="M355.28 689.72L510.07 657.26" stroke="#132e65" stroke-width="1.5"></path>
        <path d="M511.94 345.59L511.94 345.59" stroke="#132e65" stroke-width="1.5"></path>
        <path d="M511.94 345.59L552.86 491.36" stroke="#132e65" stroke-width="1.5"></path>
        <path d="M511.94 345.59L697.2 381.5" stroke="#132e65" stroke-width="1.5"></path>
        <path d="M511.94 345.59L673.94 233.69" stroke="#132e65" stroke-width="1.5"></path>
        <path d="M511.94 345.59L370.26 498.46" stroke="#132e65" stroke-width="1.5"></path>
        <path d="M511.94 345.59L709.43 526.08" stroke="#132e65" stroke-width="1.5"></path>
        <path d="M552.86 491.36L552.86 491.36" stroke="#132e65" stroke-width="1.5"></path>
        <path d="M552.86 491.36L709.43 526.08" stroke="#132e65" stroke-width="1.5"></path>
        <path d="M552.86 491.36L510.07 657.26" stroke="#132e65" stroke-width="1.5"></path>
        <path d="M552.86 491.36L697.2 381.5" stroke="#132e65" stroke-width="1.5"></path>
        <path d="M510.07 657.26L510.07 657.26" stroke="#132e65" stroke-width="1.5"></path>
        <path d="M510.07 657.26L645.91 673.14" stroke="#132e65" stroke-width="1.5"></path>
        <path d="M673.94 233.69L673.94 233.69" stroke="#132e65" stroke-width="1.5"></path>
        <path d="M673.94 233.69L804.42 215.3" stroke="#132e65" stroke-width="1.5"></path>
        <path d="M673.94 233.69L697.2 381.5" stroke="#132e65" stroke-width="1.5"></path>
        <path d="M673.94 233.69L937.99 193.87" stroke="#132e65" stroke-width="1.5"></path>
        <path d="M697.2 381.5L697.2 381.5" stroke="#132e65" stroke-width="1.5"></path>
        <path d="M697.2 381.5L709.43 526.08" stroke="#132e65" stroke-width="1.5"></path>
        <path d="M697.2 381.5L816.45 495.59" stroke="#132e65" stroke-width="1.5"></path>
        <path d="M709.43 526.08L709.43 526.08" stroke="#132e65" stroke-width="1.5"></path>
        <path d="M709.43 526.08L816.45 495.59" stroke="#132e65" stroke-width="1.5"></path>
        <path d="M709.43 526.08L645.91 673.14" stroke="#132e65" stroke-width="1.5"></path>
        <path d="M709.43 526.08L831.65 688.74" stroke="#132e65" stroke-width="1.5"></path>
        <path d="M709.43 526.08L510.07 657.26" stroke="#132e65" stroke-width="1.5"></path>
        <path d="M645.91 673.14L645.91 673.14" stroke="#132e65" stroke-width="1.5"></path>
        <path d="M645.91 673.14L831.65 688.74" stroke="#132e65" stroke-width="1.5"></path>
        <path d="M645.91 673.14L552.86 491.36" stroke="#132e65" stroke-width="1.5"></path>
        <path d="M804.42 215.3L804.42 215.3" stroke="#132e65" stroke-width="1.5"></path>
        <path d="M804.42 215.3L937.99 193.87" stroke="#132e65" stroke-width="1.5"></path>
        <path d="M804.42 215.3L697.2 381.5" stroke="#132e65" stroke-width="1.5"></path>
        <path d="M804.42 215.3L954.29 44.29" stroke="#132e65" stroke-width="1.5"></path>
        <path d="M804.42 215.3L994.62 408.79" stroke="#132e65" stroke-width="1.5"></path>
        <path d="M816.45 495.59L816.45 495.59" stroke="#132e65" stroke-width="1.5"></path>
        <path d="M816.45 495.59L966.69 499.16" stroke="#132e65" stroke-width="1.5"></path>
        <path d="M831.65 688.74L831.65 688.74" stroke="#132e65" stroke-width="1.5"></path>
        <path d="M831.65 688.74L963.05 641.56" stroke="#132e65" stroke-width="1.5"></path>
        <path d="M831.65 688.74L816.45 495.59" stroke="#132e65" stroke-width="1.5"></path>
        <path d="M998.21 -44.93L998.21 -44.93" stroke="#132e65" stroke-width="1.5"></path>
        <path d="M998.21 -44.93L954.29 44.29" stroke="#132e65" stroke-width="1.5"></path>
        <path d="M998.21 -44.93L1134.57 -64.29" stroke="#132e65" stroke-width="1.5"></path>
        <path d="M998.21 -44.93L1127.77 89.74" stroke="#132e65" stroke-width="1.5"></path>
        <path d="M998.21 -44.93L1240.76 -54.66" stroke="#132e65" stroke-width="1.5"></path>
        <path d="M954.29 44.29L954.29 44.29" stroke="#132e65" stroke-width="1.5"></path>
        <path d="M954.29 44.29L937.99 193.87" stroke="#132e65" stroke-width="1.5"></path>
        <path d="M954.29 44.29L1127.77 89.74" stroke="#132e65" stroke-width="1.5"></path>
        <path d="M954.29 44.29L1134.57 -64.29" stroke="#132e65" stroke-width="1.5"></path>
        <path d="M937.99 193.87L937.99 193.87" stroke="#132e65" stroke-width="1.5"></path>
        <path d="M937.99 193.87L1118.18 192.65" stroke="#132e65" stroke-width="1.5"></path>
        <path d="M937.99 193.87L1127.77 89.74" stroke="#132e65" stroke-width="1.5"></path>
        <path d="M937.99 193.87L994.62 408.79" stroke="#132e65" stroke-width="1.5"></path>
        <path d="M937.99 193.87L1092.98 361.68" stroke="#132e65" stroke-width="1.5"></path>
        <path d="M994.62 408.79L994.62 408.79" stroke="#132e65" stroke-width="1.5"></path>
        <path d="M994.62 408.79L966.69 499.16" stroke="#132e65" stroke-width="1.5"></path>
        <path d="M994.62 408.79L1092.98 361.68" stroke="#132e65" stroke-width="1.5"></path>
        <path d="M966.69 499.16L966.69 499.16" stroke="#132e65" stroke-width="1.5"></path>
        <path d="M966.69 499.16L963.05 641.56" stroke="#132e65" stroke-width="1.5"></path>
        <path d="M963.05 641.56L963.05 641.56" stroke="#132e65" stroke-width="1.5"></path>
        <path d="M963.05 641.56L1109.31 661.27" stroke="#132e65" stroke-width="1.5"></path>
        <path d="M1134.57 -64.29L1134.57 -64.29" stroke="#132e65" stroke-width="1.5"></path>
        <path d="M1134.57 -64.29L1240.76 -54.66" stroke="#132e65" stroke-width="1.5"></path>
        <path d="M1134.57 -64.29L1127.77 89.74" stroke="#132e65" stroke-width="1.5"></path>
        <path d="M1127.77 89.74L1127.77 89.74" stroke="#132e65" stroke-width="1.5"></path>
        <path d="M1127.77 89.74L1118.18 192.65" stroke="#132e65" stroke-width="1.5"></path>
        <path d="M1127.77 89.74L1262.21 198.68" stroke="#132e65" stroke-width="1.5"></path>
        <path d="M1127.77 89.74L1240.76 -54.66" stroke="#132e65" stroke-width="1.5"></path>
        <path d="M1118.18 192.65L1118.18 192.65" stroke="#132e65" stroke-width="1.5"></path>
        <path d="M1118.18 192.65L1262.21 198.68" stroke="#132e65" stroke-width="1.5"></path>
        <path d="M1118.18 192.65L1092.98 361.68" stroke="#132e65" stroke-width="1.5"></path>
        <path d="M1118.18 192.65L954.29 44.29" stroke="#132e65" stroke-width="1.5"></path>
        <path d="M1092.98 361.68L1092.98 361.68" stroke="#132e65" stroke-width="1.5"></path>
        <path d="M1092.98 361.68L1158.19 489.03" stroke="#132e65" stroke-width="1.5"></path>
        <path d="M1092.98 361.68L1269.03 355.42" stroke="#132e65" stroke-width="1.5"></path>
        <path d="M1092.98 361.68L966.69 499.16" stroke="#132e65" stroke-width="1.5"></path>
        <path d="M1158.19 489.03L1158.19 489.03" stroke="#132e65" stroke-width="1.5"></path>
        <path d="M1158.19 489.03L1308.5 534.24" stroke="#132e65" stroke-width="1.5"></path>
        <path d="M1109.31 661.27L1109.31 661.27" stroke="#132e65" stroke-width="1.5"></path>
        <path d="M1109.31 661.27L1275.6 654.9" stroke="#132e65" stroke-width="1.5"></path>
        <path d="M1109.31 661.27L1158.19 489.03" stroke="#132e65" stroke-width="1.5"></path>
        <path d="M1240.76 -54.66L1240.76 -54.66" stroke="#132e65" stroke-width="1.5"></path>
        <path d="M1240.76 -54.66L1305 37.8" stroke="#132e65" stroke-width="1.5"></path>
        <path d="M1305 37.8L1305 37.8" stroke="#132e65" stroke-width="1.5"></path>
        <path d="M1305 37.8L1416.24 88.92" stroke="#132e65" stroke-width="1.5"></path>
        <path d="M1305 37.8L1388.44 -52.3" stroke="#132e65" stroke-width="1.5"></path>
        <path d="M1305 37.8L1262.21 198.68" stroke="#132e65" stroke-width="1.5"></path>
        <path d="M1305 37.8L1127.77 89.74" stroke="#132e65" stroke-width="1.5"></path>
        <path d="M1305 37.8L1134.57 -64.29" stroke="#132e65" stroke-width="1.5"></path>
        <path d="M1262.21 198.68L1262.21 198.68" stroke="#132e65" stroke-width="1.5"></path>
        <path d="M1262.21 198.68L1400.32 240.93" stroke="#132e65" stroke-width="1.5"></path>
        <path d="M1269.03 355.42L1269.03 355.42" stroke="#132e65" stroke-width="1.5"></path>
        <path d="M1269.03 355.42L1262.21 198.68" stroke="#132e65" stroke-width="1.5"></path>
        <path d="M1269.03 355.42L1158.19 489.03" stroke="#132e65" stroke-width="1.5"></path>
        <path d="M1269.03 355.42L1400.32 240.93" stroke="#132e65" stroke-width="1.5"></path>
        <path d="M1308.5 534.24L1308.5 534.24" stroke="#132e65" stroke-width="1.5"></path>
        <path d="M1308.5 534.24L1275.6 654.9" stroke="#132e65" stroke-width="1.5"></path>
        <path d="M1308.5 534.24L1269.03 355.42" stroke="#132e65" stroke-width="1.5"></path>
        <path d="M1275.6 654.9L1275.6 654.9" stroke="#132e65" stroke-width="1.5"></path>
        <path d="M1388.44 -52.3L1388.44 -52.3" stroke="#132e65" stroke-width="1.5"></path>
        <path d="M1388.44 -52.3L1416.24 88.92" stroke="#132e65" stroke-width="1.5"></path>
        <path d="M1416.24 88.92L1416.24 88.92" stroke="#132e65" stroke-width="1.5"></path>
        <path d="M1400.32 240.93L1400.32 240.93" stroke="#132e65" stroke-width="1.5"></path>
        <path d="M1400.32 240.93L1416.24 88.92" stroke="#132e65" stroke-width="1.5"></path>
        <path d="M1400.32 240.93L1440.72 400.9" stroke="#132e65" stroke-width="1.5"></path>
        <path d="M1400.32 240.93L1573.67 259.85" stroke="#132e65" stroke-width="1.5"></path>
        <path d="M1440.72 400.9L1440.72 400.9" stroke="#132e65" stroke-width="1.5"></path>
        <path d="M1440.72 400.9L1575.56 390.21" stroke="#132e65" stroke-width="1.5"></path>
        <path d="M1440.72 400.9L1554.18 516.12" stroke="#132e65" stroke-width="1.5"></path>
        <path d="M1440.72 400.9L1269.03 355.42" stroke="#132e65" stroke-width="1.5"></path>
        <path d="M1462 654.71L1462 654.71" stroke="#132e65" stroke-width="1.5"></path>
        <path d="M1462 654.71L1584.06 648.33" stroke="#132e65" stroke-width="1.5"></path>
        <path d="M1462 654.71L1554.18 516.12" stroke="#132e65" stroke-width="1.5"></path>
        <path d="M1462 654.71L1275.6 654.9" stroke="#132e65" stroke-width="1.5"></path>
        <path d="M1462 654.71L1308.5 534.24" stroke="#132e65" stroke-width="1.5"></path>
        <path d="M1462 654.71L1440.72 400.9" stroke="#132e65" stroke-width="1.5"></path>
        <path d="M1462 654.71L1575.56 390.21" stroke="#132e65" stroke-width="1.5"></path>
        <path d="M1591.29 -65.99L1591.29 -65.99" stroke="#132e65" stroke-width="1.5"></path>
        <path d="M1591.29 -65.99L1599.81 42.3" stroke="#132e65" stroke-width="1.5"></path>
        <path d="M1591.29 -65.99L1388.44 -52.3" stroke="#132e65" stroke-width="1.5"></path>
        <path d="M1591.29 -65.99L1416.24 88.92" stroke="#132e65" stroke-width="1.5"></path>
        <path d="M1599.81 42.3L1599.81 42.3" stroke="#132e65" stroke-width="1.5"></path>
        <path d="M1599.81 42.3L1416.24 88.92" stroke="#132e65" stroke-width="1.5"></path>
        <path d="M1599.81 42.3L1573.67 259.85" stroke="#132e65" stroke-width="1.5"></path>
        <path d="M1573.67 259.85L1573.67 259.85" stroke="#132e65" stroke-width="1.5"></path>
        <path d="M1573.67 259.85L1575.56 390.21" stroke="#132e65" stroke-width="1.5"></path>
        <path d="M1573.67 259.85L1440.72 400.9" stroke="#132e65" stroke-width="1.5"></path>
        <path d="M1575.56 390.21L1575.56 390.21" stroke="#132e65" stroke-width="1.5"></path>
        <path d="M1575.56 390.21L1554.18 516.12" stroke="#132e65" stroke-width="1.5"></path>
        <path d="M1575.56 390.21L1400.32 240.93" stroke="#132e65" stroke-width="1.5"></path>
        <path d="M1554.18 516.12L1554.18 516.12" stroke="#132e65" stroke-width="1.5"></path>
        <path d="M1554.18 516.12L1584.06 648.33" stroke="#132e65" stroke-width="1.5"></path>
        <path d="M1584.06 648.33L1584.06 648.33" stroke="#132e65" stroke-width="1.5"></path>
        <path d="M1584.06 648.33L1575.56 390.21" stroke="#132e65" stroke-width="1.5"></path>
        <path d="M1584.06 648.33L1440.72 400.9" stroke="#132e65" stroke-width="1.5"></path>
        <circle r="5" cx="-92.72" cy="380.23" fill="#132e65"></circle>
        <circle r="5" cx="-50.72" cy="559.77" fill="#132e65"></circle>
        <circle r="5" cx="-107.28" cy="647" fill="#132e65"></circle>
        <circle r="5" cx="99.46" cy="361.66" fill="#132e65"></circle>
        <circle r="5" cx="101.61" cy="541.39" fill="#132e65"></circle>
        <circle r="5" cx="41.23" cy="678.06" fill="#132e65"></circle>
        <circle r="5" cx="206.96" cy="380.88" fill="#132e65"></circle>
        <circle r="5" cx="256.8" cy="712.03" fill="#132e65"></circle>
        <circle r="5" cx="390.44" cy="349.6" fill="#132e65"></circle>
        <circle r="5" cx="370.26" cy="498.46" fill="#132e65"></circle>
        <circle r="5" cx="355.28" cy="689.72" fill="#132e65"></circle>
        <circle r="5" cx="511.94" cy="345.59" fill="#132e65"></circle>
        <circle r="5" cx="552.86" cy="491.36" fill="#132e65"></circle>
        <circle r="5" cx="510.07" cy="657.26" fill="#132e65"></circle>
        <circle r="5" cx="673.94" cy="233.69" fill="#132e65"></circle>
        <circle r="5" cx="697.2" cy="381.5" fill="#132e65"></circle>
        <circle r="5" cx="709.43" cy="526.08" fill="#132e65"></circle>
        <circle r="5" cx="645.91" cy="673.14" fill="#132e65"></circle>
        <circle r="5" cx="804.42" cy="215.3" fill="#132e65"></circle>
        <circle r="5" cx="816.45" cy="495.59" fill="#132e65"></circle>
        <circle r="5" cx="831.65" cy="688.74" fill="#132e65"></circle>
        <circle r="5" cx="998.21" cy="-44.93" fill="#132e65"></circle>
        <circle r="5" cx="954.29" cy="44.29" fill="#132e65"></circle>
        <circle r="5" cx="937.99" cy="193.87" fill="#132e65"></circle>
        <circle r="5" cx="994.62" cy="408.79" fill="#132e65"></circle>
        <circle r="5" cx="966.69" cy="499.16" fill="#132e65"></circle>
        <circle r="5" cx="963.05" cy="641.56" fill="#132e65"></circle>
        <circle r="5" cx="1134.57" cy="-64.29" fill="#132e65"></circle>
        <circle r="5" cx="1127.77" cy="89.74" fill="#132e65"></circle>
        <circle r="5" cx="1118.18" cy="192.65" fill="#132e65"></circle>
        <circle r="5" cx="1092.98" cy="361.68" fill="#132e65"></circle>
        <circle r="5" cx="1158.19" cy="489.03" fill="#132e65"></circle>
        <circle r="5" cx="1109.31" cy="661.27" fill="#132e65"></circle>
        <circle r="5" cx="1240.76" cy="-54.66" fill="#132e65"></circle>
        <circle r="5" cx="1305" cy="37.8" fill="#132e65"></circle>
        <circle r="5" cx="1262.21" cy="198.68" fill="#132e65"></circle>
        <circle r="5" cx="1269.03" cy="355.42" fill="#132e65"></circle>
        <circle r="5" cx="1308.5" cy="534.24" fill="#132e65"></circle>
        <circle r="5" cx="1275.6" cy="654.9" fill="#132e65"></circle>
        <circle r="5" cx="1388.44" cy="-52.3" fill="#132e65"></circle>
        <circle r="5" cx="1416.24" cy="88.92" fill="#132e65"></circle>
        <circle r="5" cx="1400.32" cy="240.93" fill="#132e65"></circle>
        <circle r="5" cx="1440.72" cy="400.9" fill="#132e65"></circle>
        <circle r="5" cx="1462" cy="654.71" fill="#132e65"></circle>
        <circle r="5" cx="1591.29" cy="-65.99" fill="#132e65"></circle>
        <circle r="5" cx="1599.81" cy="42.3" fill="#132e65"></circle>
        <circle r="5" cx="1573.67" cy="259.85" fill="#132e65"></circle>
        <circle r="5" cx="1575.56" cy="390.21" fill="#132e65"></circle>
        <circle r="5" cx="1554.18" cy="516.12" fill="#132e65"></circle>
        <circle r="5" cx="1584.06" cy="648.33" fill="#132e65"></circle>
        <path d="M-37.57 667.48L-37.57 667.48" stroke="hsl(228.5, 77.2%, 51.5%)" stroke-width="1.5"></path>
        <path d="M-37.57 667.48L103.06 711.5" stroke="hsl(228.5, 77.2%, 51.5%)" stroke-width="1.5"></path>
        <path d="M-37.57 667.48L-52.08 515.08" stroke="hsl(228.5, 77.2%, 51.5%)" stroke-width="1.5"></path>
        <path d="M-37.57 667.48L64.25 492.14" stroke="hsl(228.5, 77.2%, 51.5%)" stroke-width="1.5"></path>
        <path d="M-37.57 667.48L198.88 668.06" stroke="hsl(228.5, 77.2%, 51.5%)" stroke-width="1.5"></path>
        <path d="M797.93 360.49L797.93 360.49" stroke="hsl(228.5, 77.2%, 51.5%)" stroke-width="1.5"></path>
        <path d="M797.93 360.49L663.99 377.01" stroke="hsl(228.5, 77.2%, 51.5%)" stroke-width="1.5"></path>
        <path d="M797.93 360.49L798.81 496.46" stroke="hsl(228.5, 77.2%, 51.5%)" stroke-width="1.5"></path>
        <path d="M797.93 360.49L957.73 362.9" stroke="hsl(228.5, 77.2%, 51.5%)" stroke-width="1.5"></path>
        <path d="M1141.88 105.74L1141.88 105.74" stroke="hsl(228.5, 77.2%, 51.5%)" stroke-width="1.5"></path>
        <path d="M1141.88 105.74L1147.36 190.62" stroke="hsl(228.5, 77.2%, 51.5%)" stroke-width="1.5"></path>
        <path d="M1141.88 105.74L1281.35 111.6" stroke="hsl(228.5, 77.2%, 51.5%)" stroke-width="1.5"></path>
        <path d="M1141.88 105.74L1243.12 -57.64" stroke="hsl(228.5, 77.2%, 51.5%)" stroke-width="1.5"></path>
        <path d="M1141.88 105.74L1303.57 253.37" stroke="hsl(228.5, 77.2%, 51.5%)" stroke-width="1.5"></path>
        <path d="M1141.88 105.74L1286.77 338.97" stroke="hsl(228.5, 77.2%, 51.5%)" stroke-width="1.5"></path>
        <path d="M1141.88 105.74L1141.89 381.01" stroke="hsl(228.5, 77.2%, 51.5%)" stroke-width="1.5"></path>
        <path d="M1141.89 381.01L1141.89 381.01" stroke="hsl(228.5, 77.2%, 51.5%)" stroke-width="1.5"></path>
        <path d="M1141.89 381.01L1153 520.79" stroke="hsl(228.5, 77.2%, 51.5%)" stroke-width="1.5"></path>
        <path d="M1141.89 381.01L1286.77 338.97" stroke="hsl(228.5, 77.2%, 51.5%)" stroke-width="1.5"></path>
        <path d="M1141.89 381.01L957.73 362.9" stroke="hsl(228.5, 77.2%, 51.5%)" stroke-width="1.5"></path>
        <path d="M1141.89 381.01L1147.36 190.62" stroke="hsl(228.5, 77.2%, 51.5%)" stroke-width="1.5"></path>
        <path d="M1160.01 672.73L1160.01 672.73" stroke="hsl(228.5, 77.2%, 51.5%)" stroke-width="1.5"></path>
        <path d="M1160.01 672.73L1258.4 684.45" stroke="hsl(228.5, 77.2%, 51.5%)" stroke-width="1.5"></path>
        <path d="M1160.01 672.73L1153 520.79" stroke="hsl(228.5, 77.2%, 51.5%)" stroke-width="1.5"></path>
        <path d="M1281.35 111.6L1281.35 111.6" stroke="hsl(228.5, 77.2%, 51.5%)" stroke-width="1.5"></path>
        <path d="M1281.35 111.6L1420.13 98.23" stroke="hsl(228.5, 77.2%, 51.5%)" stroke-width="1.5"></path>
        <path d="M1281.35 111.6L1303.57 253.37" stroke="hsl(228.5, 77.2%, 51.5%)" stroke-width="1.5"></path>
        <path d="M1258.4 684.45L1258.4 684.45" stroke="hsl(228.5, 77.2%, 51.5%)" stroke-width="1.5"></path>
        <path d="M1258.4 684.45L1283.59 526.91" stroke="hsl(228.5, 77.2%, 51.5%)" stroke-width="1.5"></path>
        <path d="M1258.4 684.45L1153 520.79" stroke="hsl(228.5, 77.2%, 51.5%)" stroke-width="1.5"></path>
        <path d="M1258.4 684.45L1410.65 561.3" stroke="hsl(228.5, 77.2%, 51.5%)" stroke-width="1.5"></path>
        <path d="M1258.4 684.45L1457.4 659.1" stroke="hsl(228.5, 77.2%, 51.5%)" stroke-width="1.5"></path>
        <path d="M1569.44 533.47L1569.44 533.47" stroke="hsl(228.5, 77.2%, 51.5%)" stroke-width="1.5"></path>
        <path d="M1569.44 533.47L1589.39 389.29" stroke="hsl(228.5, 77.2%, 51.5%)" stroke-width="1.5"></path>
        <path d="M1569.44 533.47L1572.51 691.57" stroke="hsl(228.5, 77.2%, 51.5%)" stroke-width="1.5"></path>
        <path d="M1569.44 533.47L1410.65 561.3" stroke="hsl(228.5, 77.2%, 51.5%)" stroke-width="1.5"></path>
        <path d="M1569.44 533.47L1457.4 659.1" stroke="hsl(228.5, 77.2%, 51.5%)" stroke-width="1.5"></path>
        <path d="M-52.08 515.08L-52.08 515.08" stroke="hsl(228.5, 77.2%, 51.5%)" stroke-width="1.5"></path>
        <path d="M-52.08 515.08L64.25 492.14" stroke="hsl(228.5, 77.2%, 51.5%)" stroke-width="1.5"></path>
        <path d="M64.25 492.14L64.25 492.14" stroke="hsl(228.5, 77.2%, 51.5%)" stroke-width="1.5"></path>
        <path d="M103.06 711.5L103.06 711.5" stroke="hsl(228.5, 77.2%, 51.5%)" stroke-width="1.5"></path>
        <path d="M103.06 711.5L198.88 668.06" stroke="hsl(228.5, 77.2%, 51.5%)" stroke-width="1.5"></path>
        <path d="M103.06 711.5L250.62 561.48" stroke="hsl(228.5, 77.2%, 51.5%)" stroke-width="1.5"></path>
        <path d="M103.06 711.5L64.25 492.14" stroke="hsl(228.5, 77.2%, 51.5%)" stroke-width="1.5"></path>
        <path d="M103.06 711.5L-52.08 515.08" stroke="hsl(228.5, 77.2%, 51.5%)" stroke-width="1.5"></path>
        <path d="M103.06 711.5L411.08 710.87" stroke="hsl(228.5, 77.2%, 51.5%)" stroke-width="1.5"></path>
        <path d="M250.62 561.48L250.62 561.48" stroke="hsl(228.5, 77.2%, 51.5%)" stroke-width="1.5"></path>
        <path d="M250.62 561.48L198.88 668.06" stroke="hsl(228.5, 77.2%, 51.5%)" stroke-width="1.5"></path>
        <path d="M250.62 561.48L371.59 517.15" stroke="hsl(228.5, 77.2%, 51.5%)" stroke-width="1.5"></path>
        <path d="M250.62 561.48L64.25 492.14" stroke="hsl(228.5, 77.2%, 51.5%)" stroke-width="1.5"></path>
        <path d="M198.88 668.06L198.88 668.06" stroke="hsl(228.5, 77.2%, 51.5%)" stroke-width="1.5"></path>
        <path d="M371.59 517.15L371.59 517.15" stroke="hsl(228.5, 77.2%, 51.5%)" stroke-width="1.5"></path>
        <path d="M371.59 517.15L533.88 526.29" stroke="hsl(228.5, 77.2%, 51.5%)" stroke-width="1.5"></path>
        <path d="M371.59 517.15L411.08 710.87" stroke="hsl(228.5, 77.2%, 51.5%)" stroke-width="1.5"></path>
        <path d="M371.59 517.15L198.88 668.06" stroke="hsl(228.5, 77.2%, 51.5%)" stroke-width="1.5"></path>
        <path d="M371.59 517.15L658.2 551" stroke="hsl(228.5, 77.2%, 51.5%)" stroke-width="1.5"></path>
        <path d="M371.59 517.15L64.25 492.14" stroke="hsl(228.5, 77.2%, 51.5%)" stroke-width="1.5"></path>
        <path d="M411.08 710.87L411.08 710.87" stroke="hsl(228.5, 77.2%, 51.5%)" stroke-width="1.5"></path>
        <path d="M411.08 710.87L198.88 668.06" stroke="hsl(228.5, 77.2%, 51.5%)" stroke-width="1.5"></path>
        <path d="M411.08 710.87L250.62 561.48" stroke="hsl(228.5, 77.2%, 51.5%)" stroke-width="1.5"></path>
        <path d="M411.08 710.87L533.88 526.29" stroke="hsl(228.5, 77.2%, 51.5%)" stroke-width="1.5"></path>
        <path d="M411.08 710.87L671.09 671.15" stroke="hsl(228.5, 77.2%, 51.5%)" stroke-width="1.5"></path>
        <path d="M411.08 710.87L658.2 551" stroke="hsl(228.5, 77.2%, 51.5%)" stroke-width="1.5"></path>
        <path d="M533.88 526.29L533.88 526.29" stroke="hsl(228.5, 77.2%, 51.5%)" stroke-width="1.5"></path>
        <path d="M533.88 526.29L658.2 551" stroke="hsl(228.5, 77.2%, 51.5%)" stroke-width="1.5"></path>
        <path d="M533.88 526.29L663.99 377.01" stroke="hsl(228.5, 77.2%, 51.5%)" stroke-width="1.5"></path>
        <path d="M533.88 526.29L671.09 671.15" stroke="hsl(228.5, 77.2%, 51.5%)" stroke-width="1.5"></path>
        <path d="M663.99 377.01L663.99 377.01" stroke="hsl(228.5, 77.2%, 51.5%)" stroke-width="1.5"></path>
        <path d="M663.99 377.01L658.2 551" stroke="hsl(228.5, 77.2%, 51.5%)" stroke-width="1.5"></path>
        <path d="M663.99 377.01L798.81 496.46" stroke="hsl(228.5, 77.2%, 51.5%)" stroke-width="1.5"></path>
        <path d="M658.2 551L658.2 551" stroke="hsl(228.5, 77.2%, 51.5%)" stroke-width="1.5"></path>
        <path d="M658.2 551L671.09 671.15" stroke="hsl(228.5, 77.2%, 51.5%)" stroke-width="1.5"></path>
        <path d="M658.2 551L798.81 496.46" stroke="hsl(228.5, 77.2%, 51.5%)" stroke-width="1.5"></path>
        <path d="M671.09 671.15L671.09 671.15" stroke="hsl(228.5, 77.2%, 51.5%)" stroke-width="1.5"></path>
        <path d="M671.09 671.15L808.92 694.18" stroke="hsl(228.5, 77.2%, 51.5%)" stroke-width="1.5"></path>
        <path d="M671.09 671.15L798.81 496.46" stroke="hsl(228.5, 77.2%, 51.5%)" stroke-width="1.5"></path>
        <path d="M798.81 496.46L798.81 496.46" stroke="hsl(228.5, 77.2%, 51.5%)" stroke-width="1.5"></path>
        <path d="M798.81 496.46L958.84 507.54" stroke="hsl(228.5, 77.2%, 51.5%)" stroke-width="1.5"></path>
        <path d="M808.92 694.18L808.92 694.18" stroke="hsl(228.5, 77.2%, 51.5%)" stroke-width="1.5"></path>
        <path d="M808.92 694.18L955.41 637.51" stroke="hsl(228.5, 77.2%, 51.5%)" stroke-width="1.5"></path>
        <path d="M957.73 362.9L957.73 362.9" stroke="hsl(228.5, 77.2%, 51.5%)" stroke-width="1.5"></path>
        <path d="M957.73 362.9L958.84 507.54" stroke="hsl(228.5, 77.2%, 51.5%)" stroke-width="1.5"></path>
        <path d="M958.84 507.54L958.84 507.54" stroke="hsl(228.5, 77.2%, 51.5%)" stroke-width="1.5"></path>
        <path d="M958.84 507.54L955.41 637.51" stroke="hsl(228.5, 77.2%, 51.5%)" stroke-width="1.5"></path>
        <path d="M955.41 637.51L955.41 637.51" stroke="hsl(228.5, 77.2%, 51.5%)" stroke-width="1.5"></path>
        <path d="M955.41 637.51L1160.01 672.73" stroke="hsl(228.5, 77.2%, 51.5%)" stroke-width="1.5"></path>
        <path d="M955.41 637.51L798.81 496.46" stroke="hsl(228.5, 77.2%, 51.5%)" stroke-width="1.5"></path>
        <path d="M955.41 637.51L1153 520.79" stroke="hsl(228.5, 77.2%, 51.5%)" stroke-width="1.5"></path>
        <path d="M1147.36 190.62L1147.36 190.62" stroke="hsl(228.5, 77.2%, 51.5%)" stroke-width="1.5"></path>
        <path d="M1147.36 190.62L1281.35 111.6" stroke="hsl(228.5, 77.2%, 51.5%)" stroke-width="1.5"></path>
        <path d="M1153 520.79L1153 520.79" stroke="hsl(228.5, 77.2%, 51.5%)" stroke-width="1.5"></path>
        <path d="M1153 520.79L1283.59 526.91" stroke="hsl(228.5, 77.2%, 51.5%)" stroke-width="1.5"></path>
        <path d="M1153 520.79L958.84 507.54" stroke="hsl(228.5, 77.2%, 51.5%)" stroke-width="1.5"></path>
        <path d="M1153 520.79L1286.77 338.97" stroke="hsl(228.5, 77.2%, 51.5%)" stroke-width="1.5"></path>
        <path d="M1243.12 -57.64L1243.12 -57.64" stroke="hsl(228.5, 77.2%, 51.5%)" stroke-width="1.5"></path>
        <path d="M1243.12 -57.64L1394.09 -106.96" stroke="hsl(228.5, 77.2%, 51.5%)" stroke-width="1.5"></path>
        <path d="M1243.12 -57.64L1281.35 111.6" stroke="hsl(228.5, 77.2%, 51.5%)" stroke-width="1.5"></path>
        <path d="M1243.12 -57.64L1420.13 98.23" stroke="hsl(228.5, 77.2%, 51.5%)" stroke-width="1.5"></path>
        <path d="M1243.12 -57.64L1147.36 190.62" stroke="hsl(228.5, 77.2%, 51.5%)" stroke-width="1.5"></path>
        <path d="M1243.12 -57.64L1418.16 194.78" stroke="hsl(228.5, 77.2%, 51.5%)" stroke-width="1.5"></path>
        <path d="M1303.57 253.37L1303.57 253.37" stroke="hsl(228.5, 77.2%, 51.5%)" stroke-width="1.5"></path>
        <path d="M1303.57 253.37L1286.77 338.97" stroke="hsl(228.5, 77.2%, 51.5%)" stroke-width="1.5"></path>
        <path d="M1303.57 253.37L1418.16 194.78" stroke="hsl(228.5, 77.2%, 51.5%)" stroke-width="1.5"></path>
        <path d="M1286.77 338.97L1286.77 338.97" stroke="hsl(228.5, 77.2%, 51.5%)" stroke-width="1.5"></path>
        <path d="M1286.77 338.97L1283.59 526.91" stroke="hsl(228.5, 77.2%, 51.5%)" stroke-width="1.5"></path>
        <path d="M1286.77 338.97L1418.16 194.78" stroke="hsl(228.5, 77.2%, 51.5%)" stroke-width="1.5"></path>
        <path d="M1283.59 526.91L1283.59 526.91" stroke="hsl(228.5, 77.2%, 51.5%)" stroke-width="1.5"></path>
        <path d="M1283.59 526.91L1410.65 561.3" stroke="hsl(228.5, 77.2%, 51.5%)" stroke-width="1.5"></path>
        <path d="M1283.59 526.91L1160.01 672.73" stroke="hsl(228.5, 77.2%, 51.5%)" stroke-width="1.5"></path>
        <path d="M1283.59 526.91L1141.89 381.01" stroke="hsl(228.5, 77.2%, 51.5%)" stroke-width="1.5"></path>
        <path d="M1394.09 -106.96L1394.09 -106.96" stroke="hsl(228.5, 77.2%, 51.5%)" stroke-width="1.5"></path>
        <path d="M1394.09 -106.96L1561.52 -107.32" stroke="hsl(228.5, 77.2%, 51.5%)" stroke-width="1.5"></path>
        <path d="M1394.09 -106.96L1420.13 98.23" stroke="hsl(228.5, 77.2%, 51.5%)" stroke-width="1.5"></path>
        <path d="M1394.09 -106.96L1538.54 59.22" stroke="hsl(228.5, 77.2%, 51.5%)" stroke-width="1.5"></path>
        <path d="M1394.09 -106.96L1281.35 111.6" stroke="hsl(228.5, 77.2%, 51.5%)" stroke-width="1.5"></path>
        <path d="M1394.09 -106.96L1418.16 194.78" stroke="hsl(228.5, 77.2%, 51.5%)" stroke-width="1.5"></path>
        <path d="M1420.13 98.23L1420.13 98.23" stroke="hsl(228.5, 77.2%, 51.5%)" stroke-width="1.5"></path>
        <path d="M1420.13 98.23L1418.16 194.78" stroke="hsl(228.5, 77.2%, 51.5%)" stroke-width="1.5"></path>
        <path d="M1420.13 98.23L1538.54 59.22" stroke="hsl(228.5, 77.2%, 51.5%)" stroke-width="1.5"></path>
        <path d="M1420.13 98.23L1546.58 242.26" stroke="hsl(228.5, 77.2%, 51.5%)" stroke-width="1.5"></path>
        <path d="M1420.13 98.23L1303.57 253.37" stroke="hsl(228.5, 77.2%, 51.5%)" stroke-width="1.5"></path>
        <path d="M1418.16 194.78L1418.16 194.78" stroke="hsl(228.5, 77.2%, 51.5%)" stroke-width="1.5"></path>
        <path d="M1410.65 561.3L1410.65 561.3" stroke="hsl(228.5, 77.2%, 51.5%)" stroke-width="1.5"></path>
        <path d="M1410.65 561.3L1457.4 659.1" stroke="hsl(228.5, 77.2%, 51.5%)" stroke-width="1.5"></path>
        <path d="M1457.4 659.1L1457.4 659.1" stroke="hsl(228.5, 77.2%, 51.5%)" stroke-width="1.5"></path>
        <path d="M1457.4 659.1L1572.51 691.57" stroke="hsl(228.5, 77.2%, 51.5%)" stroke-width="1.5"></path>
        <path d="M1457.4 659.1L1283.59 526.91" stroke="hsl(228.5, 77.2%, 51.5%)" stroke-width="1.5"></path>
        <path d="M1457.4 659.1L1160.01 672.73" stroke="hsl(228.5, 77.2%, 51.5%)" stroke-width="1.5"></path>
        <path d="M1561.52 -107.32L1561.52 -107.32" stroke="hsl(228.5, 77.2%, 51.5%)" stroke-width="1.5"></path>
        <path d="M1561.52 -107.32L1538.54 59.22" stroke="hsl(228.5, 77.2%, 51.5%)" stroke-width="1.5"></path>
        <path d="M1538.54 59.22L1538.54 59.22" stroke="hsl(228.5, 77.2%, 51.5%)" stroke-width="1.5"></path>
        <path d="M1538.54 59.22L1418.16 194.78" stroke="hsl(228.5, 77.2%, 51.5%)" stroke-width="1.5"></path>
        <path d="M1538.54 59.22L1546.58 242.26" stroke="hsl(228.5, 77.2%, 51.5%)" stroke-width="1.5"></path>
        <path d="M1538.54 59.22L1281.35 111.6" stroke="hsl(228.5, 77.2%, 51.5%)" stroke-width="1.5"></path>
        <path d="M1546.58 242.26L1546.58 242.26" stroke="hsl(228.5, 77.2%, 51.5%)" stroke-width="1.5"></path>
        <path d="M1546.58 242.26L1418.16 194.78" stroke="hsl(228.5, 77.2%, 51.5%)" stroke-width="1.5"></path>
        <path d="M1546.58 242.26L1589.39 389.29" stroke="hsl(228.5, 77.2%, 51.5%)" stroke-width="1.5"></path>
        <path d="M1589.39 389.29L1589.39 389.29" stroke="hsl(228.5, 77.2%, 51.5%)" stroke-width="1.5"></path>
        <path d="M1589.39 389.29L1410.65 561.3" stroke="hsl(228.5, 77.2%, 51.5%)" stroke-width="1.5"></path>
        <path d="M1572.51 691.57L1572.51 691.57" stroke="hsl(228.5, 77.2%, 51.5%)" stroke-width="1.5"></path>
        <path d="M1572.51 691.57L1410.65 561.3" stroke="hsl(228.5, 77.2%, 51.5%)" stroke-width="1.5"></path>
        <path d="M1572.51 691.57L1589.39 389.29" stroke="hsl(228.5, 77.2%, 51.5%)" stroke-width="1.5"></path>
        <path d="M1572.51 691.57L1258.4 684.45" stroke="hsl(228.5, 77.2%, 51.5%)" stroke-width="1.5"></path>
        <circle r="25" cx="-37.57" cy="667.48" fill="url(&quot;#SvgjsRadialGradient1001&quot;)"></circle>
        <circle r="25" cx="797.93" cy="360.49" fill="url(&quot;#SvgjsRadialGradient1001&quot;)"></circle>
        <circle r="25" cx="1141.88" cy="105.74" fill="url(&quot;#SvgjsRadialGradient1001&quot;)"></circle>
        <circle r="25" cx="1141.89" cy="381.01" fill="url(&quot;#SvgjsRadialGradient1001&quot;)"></circle>
        <circle r="25" cx="1160.01" cy="672.73" fill="url(&quot;#SvgjsRadialGradient1001&quot;)"></circle>
        <circle r="25" cx="1281.35" cy="111.6" fill="url(&quot;#SvgjsRadialGradient1001&quot;)"></circle>
        <circle r="25" cx="1258.4" cy="684.45" fill="url(&quot;#SvgjsRadialGradient1001&quot;)"></circle>
        <circle r="25" cx="1569.44" cy="533.47" fill="url(&quot;#SvgjsRadialGradient1001&quot;)"></circle>
        <circle r="5" cx="-52.08" cy="515.08" fill="#8b9ad9"></circle>
        <circle r="5" cx="64.25" cy="492.14" fill="#8b9ad9"></circle>
        <circle r="5" cx="103.06" cy="711.5" fill="#8b9ad9"></circle>
        <circle r="5" cx="250.62" cy="561.48" fill="#8b9ad9"></circle>
        <circle r="5" cx="198.88" cy="668.06" fill="#8b9ad9"></circle>
        <circle r="5" cx="371.59" cy="517.15" fill="#8b9ad9"></circle>
        <circle r="5" cx="411.08" cy="710.87" fill="#8b9ad9"></circle>
        <circle r="5" cx="533.88" cy="526.29" fill="#8b9ad9"></circle>
        <circle r="5" cx="663.99" cy="377.01" fill="#8b9ad9"></circle>
        <circle r="5" cx="658.2" cy="551" fill="#8b9ad9"></circle>
        <circle r="5" cx="671.09" cy="671.15" fill="#8b9ad9"></circle>
        <circle r="5" cx="798.81" cy="496.46" fill="#8b9ad9"></circle>
        <circle r="5" cx="808.92" cy="694.18" fill="#8b9ad9"></circle>
        <circle r="5" cx="957.73" cy="362.9" fill="#8b9ad9"></circle>
        <circle r="5" cx="958.84" cy="507.54" fill="#8b9ad9"></circle>
        <circle r="5" cx="955.41" cy="637.51" fill="#8b9ad9"></circle>
        <circle r="5" cx="1147.36" cy="190.62" fill="#8b9ad9"></circle>
        <circle r="5" cx="1153" cy="520.79" fill="#8b9ad9"></circle>
        <circle r="5" cx="1243.12" cy="-57.64" fill="#8b9ad9"></circle>
        <circle r="5" cx="1303.57" cy="253.37" fill="#8b9ad9"></circle>
        <circle r="5" cx="1286.77" cy="338.97" fill="#8b9ad9"></circle>
        <circle r="5" cx="1283.59" cy="526.91" fill="#8b9ad9"></circle>
        <circle r="5" cx="1394.09" cy="-106.96" fill="#8b9ad9"></circle>
        <circle r="5" cx="1420.13" cy="98.23" fill="#8b9ad9"></circle>
        <circle r="5" cx="1418.16" cy="194.78" fill="#8b9ad9"></circle>
        <circle r="5" cx="1410.65" cy="561.3" fill="#8b9ad9"></circle>
        <circle r="5" cx="1457.4" cy="659.1" fill="#8b9ad9"></circle>
        <circle r="5" cx="1561.52" cy="-107.32" fill="#8b9ad9"></circle>
        <circle r="5" cx="1538.54" cy="59.22" fill="#8b9ad9"></circle>
        <circle r="5" cx="1546.58" cy="242.26" fill="#8b9ad9"></circle>
        <circle r="5" cx="1589.39" cy="389.29" fill="#8b9ad9"></circle>
        <circle r="5" cx="1572.51" cy="691.57" fill="#8b9ad9"></circle>
    </g>
    <defs>
        <mask id="SvgjsMask1000">
            <rect width="1440" height="560" fill="#ffffff"></rect>
        </mask>
        <radialGradient id="SvgjsRadialGradient1001">
            <stop stop-color="#ffffff" offset="0.1"></stop>
            <stop stop-color="#1735b3" offset="0.2"></stop>
            <stop stop-color="rgba(23, 53, 179, 0)" offset="1"></stop>
        </radialGradient>
    </defs>
</svg>