<svg width="24" height="24" viewBox="0 0 24 24" fill="none" xmlns="http://www.w3.org/2000/svg">
<path d="M11.2499 1.5C11.051 1.5 10.8602 1.57902 10.7195 1.71967C10.5789 1.86032 10.4999 2.05109 10.4999 2.25V6C10.4999 6.063 10.5074 6.124 10.5224 6.183C9.22902 6.51161 8.08211 7.26201 7.26304 8.31552C6.44397 9.36904 5.99949 10.6655 5.99988 12V13.5H3.74988C3.15314 13.5 2.58084 13.7371 2.15889 14.159C1.73693 14.581 1.49988 15.1533 1.49988 15.75L1.49988 21.75C1.49988 21.9489 1.5789 22.1397 1.71955 22.2803C1.8602 22.421 2.05097 22.5 2.24988 22.5H21.7499C21.9488 22.5 22.1396 22.421 22.2802 22.2803C22.4209 22.1397 22.4999 21.9489 22.4999 21.75V15.75C22.4999 15.1533 22.2628 14.581 21.8409 14.159C21.4189 13.7371 20.8466 13.5 20.2499 13.5H17.9999V12C17.9999 10.4087 17.3677 8.88258 16.2425 7.75736C15.1173 6.63214 13.5912 6 11.9999 6V4.5L14.2499 4.5C14.4488 4.5 14.6396 4.42098 14.7802 4.28033C14.9209 4.13968 14.9999 3.94891 14.9999 3.75V2.25C14.9999 2.05109 14.9209 1.86032 14.7802 1.71967C14.6396 1.57902 14.4488 1.5 14.2499 1.5L11.2499 1.5ZM14.2499 21V17.625C14.2499 17.3266 14.1314 17.0405 13.9204 16.8295C13.7094 16.6185 13.4232 16.5 13.1249 16.5H10.8749C10.5765 16.5 10.2904 16.6185 10.0794 16.8295C9.8684 17.0405 9.74988 17.3266 9.74988 17.625V21H2.99988V15.75C2.99988 15.5511 3.0789 15.3603 3.21955 15.2197C3.3602 15.079 3.55097 15 3.74988 15H6.74988C6.94879 15 7.13956 14.921 7.28021 14.7803C7.42086 14.6397 7.49988 14.4489 7.49988 14.25V12C7.49988 10.8065 7.97398 9.66193 8.8179 8.81802C9.66181 7.97411 10.8064 7.5 11.9999 7.5C13.1934 7.5 14.3379 7.97411 15.1819 8.81802C16.0258 9.66193 16.4999 10.8065 16.4999 12V14.25C16.4999 14.4489 16.5789 14.6397 16.7195 14.7803C16.8602 14.921 17.051 15 17.2499 15L20.2499 15C20.4488 15 20.6396 15.079 20.7802 15.2197C20.9209 15.3603 20.9999 15.5511 20.9999 15.75V21H14.2499ZM6.74988 16.5C6.94879 16.5 7.13956 16.579 7.28021 16.7197C7.42086 16.8603 7.49988 17.0511 7.49988 17.25V18.75C7.49988 18.9489 7.42086 19.1397 7.28021 19.2803C7.13956 19.421 6.94879 19.5 6.74988 19.5C6.55097 19.5 6.3602 19.421 6.21955 19.2803C6.0789 19.1397 5.99988 18.9489 5.99988 18.75V17.25C5.99988 17.0511 6.0789 16.8603 6.21955 16.7197C6.3602 16.579 6.55097 16.5 6.74988 16.5ZM17.9999 17.25C17.9999 17.0511 17.9209 16.8603 17.7802 16.7197C17.6396 16.579 17.4488 16.5 17.2499 16.5C17.051 16.5 16.8602 16.579 16.7195 16.7197C16.5789 16.8603 16.4999 17.0511 16.4999 17.25V18.75C16.4999 18.9489 16.5789 19.1397 16.7195 19.2803C16.8602 19.421 17.051 19.5 17.2499 19.5C17.4488 19.5 17.6396 19.421 17.7802 19.2803C17.9209 19.1397 17.9999 18.9489 17.9999 18.75V17.25ZM14.2499 10.5C14.4488 10.5 14.6396 10.579 14.7802 10.7197C14.9209 10.8603 14.9999 11.0511 14.9999 11.25V12.75C14.9999 12.9489 14.9209 13.1397 14.7802 13.2803C14.6396 13.421 14.4488 13.5 14.2499 13.5C14.051 13.5 13.8602 13.421 13.7195 13.2803C13.5789 13.1397 13.4999 12.9489 13.4999 12.75V11.25C13.4999 11.0511 13.5789 10.8603 13.7195 10.7197C13.8602 10.579 14.051 10.5 14.2499 10.5ZM9.74988 10.5C9.94879 10.5 10.1396 10.579 10.2802 10.7197C10.4209 10.8603 10.4999 11.0511 10.4999 11.25V12.75C10.4999 12.9489 10.4209 13.1397 10.2802 13.2803C10.1396 13.421 9.94879 13.5 9.74988 13.5C9.55097 13.5 9.3602 13.421 9.21955 13.2803C9.0789 13.1397 8.99988 12.9489 8.99988 12.75V11.25C8.99988 11.0511 9.0789 10.8603 9.21955 10.7197C9.3602 10.579 9.55097 10.5 9.74988 10.5ZM12.7499 21H11.2499V18H12.7499V21Z" fill="#2F2F2F"/>
</svg>
