<svg width="25" height="24" viewBox="0 0 25 24" fill="none" xmlns="http://www.w3.org/2000/svg">
<path d="M8.35625 1.2627C8.35625 1.2627 8.07031 3.63691 8.67031 4.56363C8.99843 5.06754 9.66406 5.62066 10.2406 5.44723C10.6812 5.31129 10.9156 4.67098 10.8594 4.21488C10.7047 2.93379 8.35625 1.2627 8.35625 1.2627ZM15.3922 1.2777C15.3922 1.2777 15.8937 4.53129 16.9719 5.63941C17.3797 6.0566 18.0922 6.54879 18.6031 6.27223C18.9969 6.0566 19.0016 5.3816 18.8797 4.95035C18.4203 3.3252 15.3922 1.2777 15.3922 1.2777ZM1.65125 1.98223C1.65125 1.98223 2.14156 5.39098 3.20046 6.63785C3.56421 7.06441 4.30671 7.59879 4.69296 7.42066C5.00468 7.28004 5.075 6.53473 4.96718 6.09879C4.55703 4.38223 1.65125 1.98223 1.65125 1.98223ZM12.7672 5.16129C12.7672 5.16129 12.7109 8.02535 13.5687 9.01441C13.9297 9.42223 14.6187 9.80191 15.1109 9.56754C15.5328 9.36129 15.6594 8.6816 15.5609 8.21754C15.2703 6.86754 12.7672 5.16129 12.7672 5.16129ZM7.35781 6.40816C7.35781 6.40816 7.02499 8.69098 7.66718 9.5066C8.01406 9.94723 8.73593 10.28 9.25625 10.0644C9.66875 9.89566 9.91718 9.29566 9.84218 8.85504C9.64531 7.7066 7.35781 6.40816 7.35781 6.40816ZM21.0453 10.3879C18.9031 11.2316 15.4531 10.1113 14.3703 12.0707C13.9953 12.6004 14.5062 13.1957 14.7359 13.641C14.1266 14.1613 13.5078 14.7519 13.0062 15.3707C12.1062 15.216 11.5344 15.0425 11.15 14.78L11.1547 14.7754C11.2906 10.9644 6.6875 13.416 4.21765 12.1035C4.54531 14.5363 7.7 14.4097 8.27187 15.1504C8.77343 15.6707 9.69218 15.6285 10.4281 15.2863C10.4844 15.3379 10.5453 15.3894 10.6109 15.4363C11.0937 15.7832 11.6844 15.98 12.4766 16.13C12.3547 16.341 12.2516 16.5519 12.1719 16.7675C12.0172 17.1988 11.9375 17.691 11.9094 18.2113C11.1266 17.6629 9.55625 17.9113 8.33281 17.1847C8.45937 18.0472 10.1656 20.8222 11.975 19.8566C12.0266 20.3113 12.0969 20.766 12.1719 21.1972C12.3078 21.9754 12.4719 22.6691 12.5984 23.1566H13.4656C13.3437 22.6972 13.1562 21.9238 13.0016 21.0519C12.9922 21.005 12.9875 20.9535 12.9781 20.9066C14.2016 20.6394 15.5047 20.1613 16.3344 19.0972C16.5453 19.1675 16.8172 19.1863 17.1359 19.1347C18.5375 18.4457 19.5594 17.3863 22.2453 17.9394C20.8625 17.2738 19.1281 16.6222 17.7922 16.6082H17.6937C16.7094 16.6175 15.9547 17.0019 15.7578 18.0285C15.7297 18.1832 15.7297 18.3238 15.7531 18.455C15.1156 19.3691 14.0094 19.8097 12.8562 20.0675C12.725 18.9191 12.7109 17.7566 12.9687 17.0582C13.2875 16.1769 14.4406 14.9863 15.5234 14.0816C15.6031 14.016 15.6781 13.9504 15.7578 13.8894C16.0766 14.0207 16.3484 14.2129 16.7703 14.1613C18.7437 13.8285 20.0703 11.8222 21.0453 10.3879Z" fill="#2F2F2F"/>
</svg>
