<svg width="29" height="28" viewBox="0 0 29 28" fill="none" xmlns="http://www.w3.org/2000/svg">
<path d="M14.5 4.39844L13.625 5.37844C13.625 5.37844 12.1317 7.0701 10.6267 9.26344C9.12167 11.4568 7.5 14.0818 7.5 16.6018C7.5 18.4583 8.2375 20.2388 9.55025 21.5515C10.863 22.8643 12.6435 23.6018 14.5 23.6018C16.3565 23.6018 18.137 22.8643 19.4497 21.5515C20.7625 20.2388 21.5 18.4583 21.5 16.6018C21.5 14.0818 19.8783 11.4568 18.3733 9.26344C16.8683 7.0701 15.375 5.37844 15.375 5.37844L14.5 4.39844ZM14.5 8.0501C15.0133 8.65677 15.48 9.15844 16.46 10.5818C17.8717 12.6351 19.1667 15.2484 19.1667 16.6018C19.1667 19.1918 17.09 21.2684 14.5 21.2684C11.91 21.2684 9.83333 19.1918 9.83333 16.6018C9.83333 15.2484 11.1283 12.6351 12.54 10.5818C13.52 9.15844 13.9867 8.65677 14.5 8.0501Z" fill="#2F2F2F"/>
</svg>
