<?xml version="1.0" encoding="iso-8859-1"?>
<!-- Uploaded to: SVG Repo, www.svgrepo.com, Generator: SVG Repo Mixer Tools -->
<svg fill="#000000" height="800px" width="800px" version="1.1" id="Layer_1" xmlns="http://www.w3.org/2000/svg" xmlns:xlink="http://www.w3.org/1999/xlink" 
	 viewBox="0 0 512 512" xml:space="preserve">
<g>
	<g>
		<path d="M456.272,162.832v-0.006c-1.207-29.408-17.87-58.244-44.565-77.125C392.142,71.858,371.968,65.69,350.359,67
			C336.543,27.37,299.087,0,256,0s-80.543,27.37-94.358,67c-22.707-1.388-43.015,5.718-61.348,18.701
			c-26.695,18.881-43.359,47.717-44.565,77.131c-1.022,25.017,7.479,49.353,23.576,68.424c-8.946,22.555-9.294,46.435-0.892,69.744
			c11.664,32.337,39.217,56.826,71.913,63.902c34.794,7.533,70.022-3.049,94.326-28.256c5.674-5.869,15.076-6.076,20.979-0.462
			c28.329,26.96,62.729,35.944,96.055,28.712c32.707-7.081,60.261-31.576,71.903-63.908c8.474-23.504,7.769-48.03-0.707-69.974
			C448.852,211.98,457.289,187.746,456.272,162.832z"/>
	</g>
</g>
<g>
	<g>
		<path d="M495.304,478.609H330.15c-15.511-17.727-24.063-40.141-24.063-63.919v-18.235c-17.881-4.616-34.835-12.96-50.326-24.83
			c-14.763,11.813-31.688,20.228-49.848,24.867v18.199c0,23.777-8.552,46.191-24.063,63.919H16.696
			C7.479,478.61,0,486.083,0,495.305C0,504.528,7.479,512,16.696,512c356.518,0,253.772,0,478.609,0
			c9.217,0,16.696-7.473,16.696-16.696C512,486.082,504.521,478.609,495.304,478.609z"/>
	</g>
</g>
</svg>