<svg width="161" height="94" viewBox="0 0 161 94" fill="none" xmlns="http://www.w3.org/2000/svg">
<g clip-path="url(#clip0_193_1674)">
<rect width="161" height="94" rx="16" fill="#0A0A0A" fill-opacity="0.05"/>
<path d="M118.687 1.2041C117.504 2.21825 116.241 3.30164 114.867 4.47895C112.23 6.73965 109.143 9.3877 105.48 12.5276C103.381 14.3282 101.065 16.3142 98.4977 18.5139C95.6378 20.9671 92.4285 23.7184 88.8054 26.8254C84.6803 30.3632 79.9421 34.4257 74.4434 39.1408C71.3493 41.7947 67.9848 44.6787 64.3125 47.8279C60.2896 51.2777 55.8632 55.0737 50.9672 59.2711C45.5254 63.9369 39.4406 69.1556 32.5901 75.0292C28.8311 78.2524 24.8212 81.6904 20.5319 85.369C17.2075 88.219 13.6982 91.2285 10 94.3989H107.495C108.876 90.3951 110.172 86.6379 111.38 83.1341C112.707 79.2841 113.944 75.7006 115.096 72.3565C117.185 66.2974 119.029 60.9532 120.666 56.2052C122.132 51.9573 123.449 48.1355 124.641 44.6787C125.725 41.5364 126.715 38.6677 127.62 36.0396C128.454 33.6216 129.224 31.3891 129.936 29.3232C131.212 25.6188 132.325 22.3932 133.303 19.5597C134.168 17.0502 134.94 14.8118 135.632 12.8034C136.824 9.34779 137.812 6.48142 138.646 4.06461C138.998 3.04459 139.325 2.09499 139.632 1.20527L118.687 1.2041Z" fill="#222222"/>
<path d="M120.282 1.20431C119.172 2.21024 117.988 3.2819 116.702 4.44747C114.193 6.72109 111.253 9.38439 107.76 12.5489C105.757 14.3648 103.543 16.3696 101.09 18.5927C98.3512 21.0729 95.2778 23.8583 91.8021 27.0076C87.8401 30.5982 83.2804 34.7275 77.9808 39.5307C74.9928 42.2374 71.7409 45.1836 68.1876 48.4033C64.2889 51.9352 59.9918 55.8286 55.2329 60.1399C49.9321 64.9419 43.9922 70.3237 37.2904 76.3957C33.6065 79.7339 29.669 83.301 25.4534 87.1205C22.8935 89.4399 20.2108 91.8708 17.4232 94.3968H19.6015C22.1394 92.0574 24.5842 89.8061 26.928 87.6464C31.1216 83.7834 35.0345 80.1776 38.6952 76.8041C45.3504 70.6723 51.245 65.2412 56.5019 60.3982C61.2193 56.0516 65.4764 52.13 69.3362 48.5735C72.8533 45.3327 76.0716 42.3677 79.026 39.6457C84.2674 34.8168 88.7714 30.6663 92.6856 27.0604C96.1174 23.8982 99.152 21.1034 101.853 18.6139C104.273 16.3837 106.455 14.3741 108.43 12.5536C111.872 9.38204 114.769 6.71404 117.241 4.4369C118.5 3.27603 119.662 2.20671 120.75 1.20312H120.282V1.20431Z" fill="#FFA800"/>
<path d="M136.912 1.2047C136.504 2.10969 136.066 3.07687 135.597 4.11684C134.514 6.5137 133.232 9.35192 131.69 12.7664C130.795 14.7478 129.8 16.9522 128.685 19.4194C127.428 22.2013 126.001 25.3623 124.365 28.9834C123.454 31 122.473 33.1738 121.409 35.5273C120.256 38.0814 119 40.8621 117.626 43.9034C116.118 47.2416 114.454 50.925 112.611 55.0062C110.555 59.557 108.25 64.6606 105.645 70.4274C104.212 73.6001 102.68 76.9923 101.038 80.6287C99.2733 84.535 97.3718 88.7442 95.3177 93.2926C95.1534 93.6565 94.9853 94.0286 94.8184 94.3972H97.3292C97.3951 94.2446 97.4624 94.0873 97.5271 93.9359C99.51 89.33 101.346 85.0679 103.047 81.1146C104.63 77.4372 106.106 74.0074 107.486 70.8018C109.993 64.9798 112.21 59.8281 114.186 55.2398C115.957 51.1257 117.555 47.4165 119.002 44.0536C120.32 40.9924 121.525 38.1941 122.63 35.6259C123.649 33.2607 124.59 31.0739 125.462 29.048C127.028 25.4104 128.394 22.2365 129.596 19.4441C130.662 16.9674 131.614 14.7572 132.469 12.77C133.942 9.34723 135.166 6.50315 136.201 4.10276C136.647 3.06749 137.062 2.10264 137.45 1.20117H136.912V1.2047Z" fill="#FFA800"/>
<path d="M57.744 94.3965C59.7166 91.8142 61.6078 89.3387 63.4174 86.9712C67.7417 81.3112 71.6481 76.1994 75.1924 71.5594C74.6569 71.435 74.1239 71.3117 73.5936 71.1885C69.9937 75.7815 66.0303 80.8393 61.6453 86.4347C59.6623 88.9642 57.581 91.6205 55.4053 94.3965H57.744Z" fill="#F6F6F6"/>
<path d="M101.302 37.3842C100.924 37.3489 100.546 37.3126 100.17 37.2773C97.1341 41.1508 93.6908 45.5455 89.7507 50.5716C90.1918 50.635 90.6342 50.6996 91.0791 50.7641C94.9468 45.7039 98.3255 41.2811 101.302 37.3842Z" fill="#F6F6F6"/>
<path d="M120.92 11.7078C120.684 11.7066 120.449 11.7043 120.214 11.7031C119.202 12.9943 118.115 14.3805 116.945 15.8747C117.205 15.8794 117.465 15.8853 117.725 15.89C118.87 14.3922 119.932 13.0025 120.92 11.7078Z" fill="#F6F6F6"/>
<path d="M113.69 21.1715C113.399 21.161 113.109 21.1504 112.819 21.1387C111.192 23.2139 109.411 25.4887 107.449 27.9912C107.776 28.0112 108.104 28.0311 108.433 28.0511C110.354 25.538 112.099 23.255 113.69 21.1715Z" fill="#F6F6F6"/>
<path d="M125.66 5.50391C125.462 5.50625 125.264 5.50978 125.066 5.51213C124.376 6.39129 123.646 7.32444 122.868 8.31629C123.083 8.31511 123.298 8.31395 123.514 8.31277C124.273 7.31975 124.987 6.38542 125.66 5.50391Z" fill="#F6F6F6"/>
<path d="M14.316 28.5V18.7H18.348C19.216 18.7 19.958 18.84 20.574 19.12C21.1993 19.4 21.68 19.8013 22.016 20.324C22.352 20.8467 22.52 21.4673 22.52 22.186C22.52 22.9047 22.352 23.5253 22.016 24.048C21.68 24.5613 21.1993 24.958 20.574 25.238C19.958 25.5087 19.216 25.644 18.348 25.644H15.324L16.136 24.818V28.5H14.316ZM20.728 28.5L18.25 24.944H20.196L22.688 28.5H20.728ZM16.136 25.014L15.324 24.146H18.264C19.0667 24.146 19.6687 23.9733 20.07 23.628C20.4807 23.2827 20.686 22.802 20.686 22.186C20.686 21.5607 20.4807 21.08 20.07 20.744C19.6687 20.408 19.0667 20.24 18.264 20.24H15.324L16.136 19.344V25.014ZM29.1482 28.64C28.3829 28.64 27.6782 28.514 27.0342 28.262C26.3902 28.01 25.8302 27.66 25.3542 27.212C24.8782 26.7547 24.5096 26.2227 24.2482 25.616C23.9869 25 23.8562 24.328 23.8562 23.6C23.8562 22.872 23.9869 22.2047 24.2482 21.598C24.5096 20.982 24.8782 20.45 25.3542 20.002C25.8302 19.5447 26.3902 19.19 27.0342 18.938C27.6782 18.686 28.3782 18.56 29.1342 18.56C29.8996 18.56 30.5996 18.686 31.2342 18.938C31.8782 19.19 32.4382 19.5447 32.9142 20.002C33.3902 20.45 33.7589 20.982 34.0202 21.598C34.2816 22.2047 34.4122 22.872 34.4122 23.6C34.4122 24.328 34.2816 25 34.0202 25.616C33.7589 26.232 33.3902 26.764 32.9142 27.212C32.4382 27.66 31.8782 28.01 31.2342 28.262C30.5996 28.514 29.9042 28.64 29.1482 28.64ZM29.1342 27.044C29.6289 27.044 30.0862 26.96 30.5062 26.792C30.9262 26.624 31.2902 26.386 31.5982 26.078C31.9062 25.7607 32.1442 25.3967 32.3122 24.986C32.4896 24.566 32.5782 24.104 32.5782 23.6C32.5782 23.096 32.4896 22.6387 32.3122 22.228C32.1442 21.808 31.9062 21.444 31.5982 21.136C31.2902 20.8187 30.9262 20.576 30.5062 20.408C30.0862 20.24 29.6289 20.156 29.1342 20.156C28.6396 20.156 28.1822 20.24 27.7622 20.408C27.3516 20.576 26.9876 20.8187 26.6702 21.136C26.3622 21.444 26.1196 21.808 25.9422 22.228C25.7742 22.6387 25.6902 23.096 25.6902 23.6C25.6902 24.0947 25.7742 24.552 25.9422 24.972C26.1196 25.392 26.3622 25.7607 26.6702 26.078C26.9782 26.386 27.3422 26.624 27.7622 26.792C28.1822 26.96 28.6396 27.044 29.1342 27.044ZM34.8187 28.5L39.2287 18.7H41.0207L45.4447 28.5H43.5407L39.7467 19.666H40.4747L36.6947 28.5H34.8187ZM36.8487 26.232L37.3387 24.804H42.6307L43.1207 26.232H36.8487ZM46.691 28.5V18.7L50.975 18.7C52.039 18.7 52.9723 18.9053 53.775 19.316C54.5777 19.7267 55.203 20.296 55.651 21.024C56.099 21.752 56.323 22.6107 56.323 23.6C56.323 24.58 56.099 25.4387 55.651 26.176C55.203 26.904 54.5777 27.4733 53.775 27.884C52.9723 28.2947 52.039 28.5 50.975 28.5H46.691ZM48.511 26.96H50.891C51.6283 26.96 52.263 26.82 52.795 26.54C53.3363 26.26 53.7517 25.868 54.041 25.364C54.3397 24.86 54.489 24.272 54.489 23.6C54.489 22.9187 54.3397 22.3307 54.041 21.836C53.7517 21.332 53.3363 20.94 52.795 20.66C52.263 20.38 51.6283 20.24 50.891 20.24L48.511 20.24V26.96Z" fill="#222222"/>
<rect x="129.471" y="62.5" width="23" height="23" rx="11.5" stroke="#222222" stroke-opacity="0.7"/>
<path d="M135.637 74H146.304M146.304 74L142.304 70M146.304 74L142.304 78" stroke="#222222" stroke-opacity="0.7" stroke-width="1.5" stroke-linecap="round" stroke-linejoin="round"/>
</g>
<defs>
<clipPath id="clip0_193_1674">
<rect width="161" height="94" rx="16" fill="white"/>
</clipPath>
</defs>
</svg>
