<svg width="99" height="56" viewBox="0 0 99 56" fill="none" xmlns="http://www.w3.org/2000/svg">
<path d="M2.90453 67.9211L70.9968 86.2616C69.764 83.56 68.645 80.9512 67.6577 78.4338C65.8245 73.755 64.4513 69.3906 63.6352 65.3535C62.8781 61.6087 62.6033 58.1264 62.8287 54.9518C63.2428 49.154 65.4575 44.246 68.5633 40.2938C71.4803 36.5848 75.1157 33.6037 78.4807 30.8501C84.3421 26.0524 88.8665 21.3897 87.7801 16.5299C86.6483 11.5077 81.1988 6.50113 76.0103 1.66424C71.3176 -2.71077 67.2064 -6.49524 67.3964 -9.21544C67.557 -11.4226 71.2733 -12.4163 74.7553 -13.1593C77.943 -13.8396 80.755 -14.7403 80.4295 -16.2002C80.019 -18.0175 76.9855 -20.0048 73.9962 -22.1294C68.7794 -23.8048 63.5119 -25.496 58.1939 -27.2028C60.7329 -25.2099 63.3838 -23.2055 63.0698 -21.7128C62.7505 -20.2236 59.0834 -19.7779 55.009 -19.3426C50.5508 -18.8667 45.8533 -18.4097 44.5041 -16.2534C43.1686 -14.1059 46.1544 -10.319 49.6951 -6.22733C53.6207 -1.6923 57.7535 3.27342 56.843 7.5767C56.3602 9.8421 54.4327 11.9649 51.6047 13.8285C48.3204 15.9907 43.9314 17.9092 39.0468 20.0526C33.7006 22.3989 27.9455 24.9178 22.5843 28.2119C16.9929 31.649 11.922 35.9802 8.4968 41.4682C6.68822 44.3686 5.29842 47.6252 4.37067 51.1927C3.3886 54.9734 2.90812 59.145 2.84638 63.6614C2.82592 65.0447 2.84961 66.4678 2.90453 67.9211Z" fill="#1A1A1A"/>
<path d="M8.48655 64.9454C8.52312 66.4207 8.60939 67.9384 8.72996 69.4901L10.4178 69.9447C10.2769 68.3647 10.1712 66.819 10.1179 65.3175C9.95515 60.7811 10.2165 56.5846 10.9903 52.7737C11.7198 49.1849 12.9153 45.8998 14.5428 42.9682C17.6133 37.4395 22.3617 33.0411 27.669 29.5472C32.7514 26.204 38.2659 23.6327 43.3864 21.2401C48.0669 19.0542 52.2777 17.0939 55.388 14.8972C58.0743 12.9985 59.8612 10.8358 60.2247 8.55589C60.918 4.16717 56.6259 -0.799018 52.5602 -5.36764C48.891 -9.48977 45.7669 -13.2787 46.9888 -15.4889C48.1963 -17.6575 52.796 -18.1667 57.147 -18.6715C61.1239 -19.1331 64.7058 -19.6275 64.946 -21.1153C65.1868 -22.6474 62.4877 -24.6461 59.8997 -26.6533C59.7718 -26.6939 59.6433 -26.7358 59.5155 -26.7764C62.0929 -24.7721 64.7812 -22.7721 64.5242 -21.2486C64.2672 -19.7602 60.6657 -19.2772 56.6666 -18.8216C52.2914 -18.3234 47.6698 -17.8252 46.4301 -15.6601C45.182 -13.4642 48.2763 -9.67605 51.9162 -5.56076C55.9508 -0.999492 60.2077 3.96654 59.4646 8.33665C59.074 10.6134 57.2561 12.7678 54.538 14.6579C51.3883 16.847 47.1367 18.7974 42.4109 20.9743C37.2395 23.3562 31.6713 25.9152 26.5266 29.2478C21.1564 32.7289 16.3353 37.1129 13.1856 42.6317C11.5175 45.5565 10.2792 48.8352 9.50538 52.4193C8.68371 56.2235 8.37318 60.414 8.48655 64.9454Z" fill="#FFA800"/>
<path d="M72.9096 0.734111C77.952 5.53682 83.2602 10.5333 84.1493 15.4798C85.0117 20.3258 80.1273 24.8792 73.8829 29.5913C70.2952 32.2994 66.4186 35.2259 63.2285 38.8914C59.8437 42.784 57.3051 47.6295 56.5648 53.3964C56.1621 56.5409 56.2556 60.0003 56.8282 63.7264C57.4464 67.7372 58.6186 72.0826 60.2462 76.7443C61.0766 79.1211 62.0287 81.5845 63.079 84.1292L64.6674 84.5571C63.581 81.9809 62.5962 79.489 61.735 77.0842C60.0657 72.4196 58.8524 68.0693 58.195 64.0542C57.5851 60.3242 57.4555 56.8603 57.8217 53.7091C58.4964 47.9359 60.9702 43.0771 64.298 39.1732C67.4335 35.4992 71.2615 32.5607 74.804 29.8436C80.9714 25.1138 85.7838 20.539 84.8757 15.6899C83.9378 10.7282 78.6023 5.72956 73.5294 0.920726C68.9435 -3.42761 64.9244 -7.21211 65.2319 -9.87996C65.4916 -12.0863 69.3105 -13.0265 72.8834 -13.745C76.1538 -14.402 79.0531 -15.2615 78.7798 -16.7229C78.4409 -18.5137 75.4398 -20.4985 72.4927 -22.6107C72.3678 -22.6505 72.2419 -22.6906 72.1172 -22.7315C75.0537 -20.6222 78.0465 -18.6375 78.3678 -16.8546C78.6273 -15.3918 75.7061 -14.5433 72.4154 -13.8917C68.8197 -13.1804 64.9763 -12.2531 64.6908 -10.0474C64.3547 -7.39248 68.3497 -3.6072 72.9096 0.734111Z" fill="#FFA800"/>
<path d="M70.5218 -21.2301C71.2157 -20.5575 71.7532 -19.9 71.9479 -19.2925C71.8107 -19.3367 71.6722 -19.3802 71.5348 -19.4235C71.3459 -20.0294 70.8122 -20.6858 70.1231 -21.3571C70.2567 -21.3149 70.3891 -21.272 70.5218 -21.2301ZM71.4943 -17.8312C70.9668 -17.3995 70.1036 -17.0976 69.0776 -16.8489C68.9278 -16.8965 68.7768 -16.9434 68.6271 -16.991C69.6598 -17.2379 70.5298 -17.5379 71.0649 -17.9675C71.207 -17.922 71.3512 -17.877 71.4943 -17.8312ZM65.2238 -16.1522C63.7871 -15.9282 62.3373 -15.7056 60.9711 -15.3859C60.804 -15.4382 60.6378 -15.4902 60.4704 -15.5415C61.8452 -15.8588 63.304 -16.0801 64.7491 -16.3008C64.9078 -16.2518 65.0654 -16.2022 65.2238 -16.1522ZM57.5988 -14.1235C56.7858 -13.5927 56.2693 -12.8443 56.234 -11.9901C56.0485 -12.0473 55.863 -12.1045 55.6762 -12.161C55.7215 -13.0136 56.2483 -13.7582 57.07 -14.2867C57.2459 -14.232 57.4227 -14.1772 57.5988 -14.1235ZM57.4453 -8.78576C58.3275 -7.45865 59.5702 -6.05514 60.9857 -4.55851C60.7806 -4.61996 60.5748 -4.68263 60.3688 -4.74435C58.9632 -6.23934 57.7302 -7.64025 56.8586 -8.9645C57.0547 -8.90443 57.2501 -8.84558 57.4453 -8.78576ZM65.7939 0.414123C67.4402 2.15315 69.0081 3.91453 70.2756 5.71825C70.0474 5.65056 69.8189 5.58384 69.5896 5.51588C68.3359 3.71484 66.7799 1.95561 65.1451 0.219702C65.3615 0.285239 65.5772 0.349551 65.7939 0.414123ZM72.7569 10.9631C73.0883 12.6627 72.8215 14.3763 71.9569 15.9289C71.6943 15.854 71.4318 15.7792 71.1704 15.7036C72.0543 14.1562 72.3417 12.4471 72.0263 10.7497C72.27 10.8216 72.5137 10.8934 72.7569 10.9631ZM67.3783 20.693C65.1498 22.3609 62.4502 23.967 59.547 25.6985C59.2315 25.6125 58.9153 25.5253 58.5988 25.439C61.5345 23.7142 64.2626 22.1136 66.5193 20.4524C66.8063 20.5328 67.0925 20.6119 67.3783 20.693ZM50.0554 31.7772C46.8093 34.1475 43.7534 36.8684 41.3324 40.0895C40.9352 39.9877 40.539 39.8862 40.1418 39.7844C42.6107 36.5699 45.7096 33.8585 48.9971 31.4962C49.35 31.5892 49.7027 31.6832 50.0554 31.7772ZM36.0908 52.0137C35.1554 56.9668 35.3453 62.6829 36.4854 69.0278C35.9754 68.9101 35.4643 68.7931 34.9524 68.6749C33.876 62.3359 33.7486 56.6262 34.7422 51.6836C35.1931 51.7936 35.6418 51.9041 36.0908 52.0137Z" fill="white"/>
</svg>
