<svg width="130" height="93" viewBox="0 0 130 93" fill="none" xmlns="http://www.w3.org/2000/svg">
<path d="M108.687 0.204102C107.504 1.21825 106.241 2.30164 104.867 3.47895C102.23 5.73965 99.1435 8.3877 95.4802 11.5276C93.3808 13.3282 91.0654 15.3142 88.4977 17.5139C85.6378 19.9671 82.4285 22.7184 78.8054 25.8254C74.6803 29.3632 69.9421 33.4257 64.4434 38.1408C61.3493 40.7947 57.9848 43.6787 54.3125 46.8279C50.2896 50.2777 45.8632 54.0737 40.9672 58.2711C35.5254 62.9369 29.4406 68.1556 22.5901 74.0292C18.8311 77.2524 14.8212 80.6904 10.5319 84.369C7.20751 87.219 3.69819 90.2285 0 93.3989H97.4955C98.8757 89.3951 100.172 85.6379 101.38 82.1341C102.707 78.2841 103.944 74.7006 105.096 71.3565C107.185 65.2974 109.029 59.9532 110.666 55.2052C112.132 50.9573 113.449 47.1355 114.641 43.6787C115.725 40.5364 116.715 37.6677 117.62 35.0396C118.454 32.6216 119.224 30.3891 119.936 28.3232C121.212 24.6188 122.325 21.3932 123.303 18.5597C124.168 16.0502 124.94 13.8118 125.632 11.8034C126.824 8.34779 127.812 5.48142 128.646 3.06461C128.998 2.04459 129.325 1.09499 129.632 0.205266L108.687 0.204102Z" fill="#222222"/>
<path d="M110.282 0.204307C109.172 1.21024 107.988 2.2819 106.702 3.44747C104.193 5.72109 101.253 8.38439 97.7604 11.5489C95.7567 13.3648 93.5434 15.3696 91.0896 17.5927C88.3512 20.0729 85.2778 22.8583 81.8021 26.0076C77.8401 29.5982 73.2804 33.7275 67.9808 38.5307C64.9928 41.2374 61.7409 44.1836 58.1876 47.4033C54.2889 50.9352 49.9918 54.8286 45.2329 59.1399C39.9321 63.9419 33.9922 69.3237 27.2904 75.3957C23.6065 78.7339 19.669 82.301 15.4534 86.1205C12.8935 88.4399 10.2108 90.8708 7.42322 93.3968H9.6015C12.1394 91.0574 14.5842 88.8061 16.928 86.6464C21.1216 82.7834 25.0345 79.1776 28.6952 75.8041C35.3504 69.6723 41.245 64.2412 46.5019 59.3982C51.2193 55.0516 55.4764 51.13 59.3362 47.5735C62.8533 44.3327 66.0716 41.3677 69.026 38.6457C74.2674 33.8168 78.7714 29.6663 82.6856 26.0604C86.1174 22.8982 89.152 20.1034 91.8528 17.6139C94.273 15.3837 96.4552 13.3741 98.4304 11.5536C101.872 8.38204 104.769 5.71404 107.241 3.4369C108.5 2.27603 109.662 1.20671 110.75 0.203125H110.282V0.204307Z" fill="#FFA800"/>
<path d="M126.912 0.2047C126.504 1.10969 126.066 2.07687 125.597 3.11684C124.514 5.5137 123.232 8.35192 121.69 11.7664C120.795 13.7478 119.8 15.9522 118.685 18.4194C117.428 21.2013 116.001 24.3623 114.365 27.9834C113.454 30 112.473 32.1738 111.409 34.5273C110.256 37.0814 109 39.8621 107.626 42.9034C106.118 46.2416 104.454 49.925 102.611 54.0062C100.555 58.557 98.2504 63.6606 95.6452 69.4274C94.212 72.6001 92.6804 75.9923 91.0377 79.6287C89.2733 83.535 87.3718 87.7442 85.3177 92.2926C85.1534 92.6565 84.9853 93.0286 84.8184 93.3972H87.3292C87.3951 93.2446 87.4624 93.0873 87.5271 92.9359C89.51 88.33 91.3455 84.0679 93.0465 80.1146C94.6298 76.4372 96.1057 73.0074 97.4859 69.8018C99.9928 63.9798 102.21 58.8281 104.186 54.2398C105.957 50.1257 107.555 46.4165 109.002 43.0536C110.32 39.9924 111.525 37.1941 112.63 34.6259C113.649 32.2607 114.59 30.0739 115.462 28.048C117.028 24.4104 118.394 21.2365 119.596 18.4441C120.662 15.9674 121.614 13.7572 122.469 11.77C123.942 8.34723 125.166 5.50315 126.201 3.10276C126.647 2.06749 127.062 1.10264 127.45 0.201172H126.912V0.2047Z" fill="#FFA800"/>
<path d="M47.744 93.3965C49.7166 90.8142 51.6078 88.3387 53.4174 85.9712C57.7417 80.3112 61.6481 75.1994 65.1924 70.5594C64.6569 70.435 64.1239 70.3117 63.5936 70.1885C59.9937 74.7815 56.0303 79.8393 51.6453 85.4347C49.6623 87.9642 47.581 90.6205 45.4053 93.3965H47.744Z" fill="#F6F6F6"/>
<path d="M91.3019 36.3842C90.9242 36.3489 90.5465 36.3126 90.17 36.2773C87.1341 40.1508 83.6908 44.5455 79.7507 49.5716C80.1918 49.635 80.6342 49.6996 81.0791 49.7641C84.9468 44.7039 88.3255 40.2811 91.3019 36.3842Z" fill="#F6F6F6"/>
<path d="M110.92 10.7078C110.684 10.7066 110.449 10.7043 110.214 10.7031C109.202 11.9943 108.115 13.3805 106.945 14.8747C107.205 14.8794 107.465 14.8853 107.725 14.89C108.87 13.3922 109.932 12.0025 110.92 10.7078Z" fill="#F6F6F6"/>
<path d="M103.69 20.1715C103.399 20.161 103.109 20.1504 102.819 20.1387C101.192 22.2139 99.4108 24.4887 97.4486 26.9912C97.7758 27.0112 98.1044 27.0311 98.4329 27.0511C100.354 24.538 102.099 22.255 103.69 20.1715Z" fill="#F6F6F6"/>
<path d="M115.66 4.50391C115.462 4.50625 115.264 4.50978 115.066 4.51213C114.376 5.39129 113.646 6.32444 112.868 7.31629C113.083 7.31511 113.298 7.31395 113.514 7.31277C114.273 6.31975 114.987 5.38542 115.66 4.50391Z" fill="#F6F6F6"/>
</svg>
