<svg width="117" height="94" viewBox="0 0 117 94" fill="none" xmlns="http://www.w3.org/2000/svg">
<path d="M10.8661 85.4772C10.8661 85.4772 3.59618 104.254 0.0248766 118.532L59.619 134.677C59.619 134.677 66.0361 113.312 66.6533 100.591L10.8661 85.4772Z" fill="#FFDDBF"/>
<path d="M10.8664 85.4768C15.1868 75.3309 68.3932 90.6887 66.6537 100.591C64.7897 111.2 6.34592 96.0926 10.8664 85.4768Z" fill="#BA6A65"/>
<path d="M15.2241 86.7283C16.6571 79.1879 62.582 92.4158 62.1144 99.4318C61.7211 105.335 13.7912 94.2687 15.2241 86.7283Z" fill="#8C504C"/>
<path d="M41.6518 79.5155C45.0692 65.3529 25.5846 56.5962 14.3283 67.3979C26.3726 69.3513 23.1043 81.8776 38.1619 82.1848C38.2475 83.0085 38.2478 83.875 38.1835 84.7601C38.1248 85.5667 38.0123 86.3886 37.8613 87.2075C37.0692 91.5049 35.218 95.72 34.5245 97.2035C35.7264 97.5401 36.9428 97.8617 38.1613 98.1652C38.9591 95.1152 39.2947 91.5419 40.6435 87.9814C40.9331 87.2175 41.2712 86.4541 41.6687 85.6965C42.0457 84.978 42.4758 84.2648 42.9756 83.5616C56.8669 91.5369 59.329 78.6988 70.3482 82.8891C62.3536 68.3069 47.9798 65.67 41.6518 79.5155Z" fill="#768D54"/>
<path d="M43.6476 81.5002C43.6464 81.5726 43.7485 81.4937 43.671 81.5546C43.6329 81.5353 43.6071 81.5116 43.6476 81.5002Z" fill="#91A476"/>
<path d="M57.528 77.8057C57.3164 78.0552 57.1233 77.7463 56.9041 77.891C56.8797 77.899 56.9349 77.7421 56.8782 77.7694C56.6561 77.9504 56.3845 77.7714 56.1853 77.5699L56.2065 77.5296C56.1677 77.4922 56.0909 77.6241 56.0482 77.5974C56.0525 77.5693 56.0695 77.5596 56.0651 77.5191C56.0397 77.6026 55.9752 77.5457 55.9455 77.6059C55.9327 77.57 55.945 77.5028 55.9272 77.4615L55.8857 77.5543C55.7774 77.7732 55.7099 77.5108 55.5925 77.6141C55.6003 77.5922 55.6128 77.5761 55.6078 77.5531C55.4289 77.663 55.2306 77.6266 55.0467 77.6588C55.0571 77.625 55.0696 77.5631 55.0625 77.5231C55.0441 77.625 54.9866 77.6454 54.937 77.6611C54.9236 77.5534 54.8477 77.7496 54.7963 77.6858L54.8028 77.6632C54.7541 77.7699 54.7453 77.5934 54.7037 77.723L54.6821 77.6374C54.6557 77.784 54.6207 77.5562 54.5845 77.6306L54.5832 77.6613C54.5479 77.696 54.5367 77.6206 54.5047 77.6445L54.5032 77.6272C54.4299 77.6631 54.3944 77.5787 54.3882 77.695C54.3696 77.6007 54.4595 77.6553 54.4299 77.5178C54.1881 77.6286 53.9514 77.5951 53.7167 77.5879C53.6911 77.5398 53.6745 77.5248 53.6692 77.4802C53.6452 77.5032 53.5801 77.4983 53.5583 77.5572C53.5661 77.5549 53.5436 77.4968 53.5311 77.4904C53.4885 77.4447 53.4836 77.6167 53.4371 77.5624C53.4557 77.5323 53.4624 77.495 53.4563 77.4511C53.4157 77.5394 53.3624 77.5239 53.3153 77.5572C53.3225 77.5371 53.3338 77.5249 53.3318 77.4885C53.2808 77.5938 53.2371 77.4709 53.1925 77.5381L53.2084 77.47C53.134 77.3915 53.1888 77.6119 53.1252 77.5662C53.1399 77.5443 53.1341 77.5181 53.1364 77.4907C53.0796 77.6156 52.984 77.579 52.9267 77.6232C52.93 77.6138 52.9282 77.5955 52.9282 77.5955C52.8652 77.6134 52.7968 77.5784 52.729 77.6346C52.7023 77.606 52.7303 77.4703 52.6635 77.498C52.6723 77.6329 52.5511 77.5585 52.5989 77.7093C52.5404 77.6899 52.4464 77.643 52.4109 77.6905C52.4336 77.6382 52.3724 77.527 52.4197 77.5136L52.3779 77.4332C52.3799 77.378 52.4169 77.4504 52.4009 77.3812C52.3769 77.3881 52.3095 77.4445 52.2862 77.4232C52.2468 77.5079 52.2176 77.664 52.1471 77.6841C52.1768 77.6301 52.1159 77.5363 52.1372 77.5123C52.1065 77.6004 52.088 77.685 52.0658 77.7767C52.0429 77.7865 52.048 77.6719 52.018 77.7118C52.024 77.7469 52.0118 77.7711 52.005 77.8016C51.994 77.7869 51.9114 77.8486 51.8839 77.7179C51.8668 77.6682 51.9192 77.6854 51.8868 77.6416C51.8431 77.649 51.8472 77.6949 51.8036 77.7032L51.8004 77.6855C51.7687 77.6699 51.7226 77.7537 51.764 77.8223C51.7846 77.8233 51.7456 77.7441 51.7804 77.7782C51.7705 77.8575 51.7231 77.8862 51.6799 77.8934C51.6918 77.8705 51.6849 77.8356 51.6856 77.7974C51.6417 77.9093 51.5849 77.9507 51.5265 78.0034C51.5349 78.0661 51.5336 77.886 51.5482 77.9177C51.4511 77.8429 51.3953 78.0651 51.3057 77.9482C51.3153 77.9357 51.3262 78.0361 51.3227 78.0187C51.2814 78.0167 51.2682 77.926 51.2475 77.9629C51.2359 77.9106 51.2174 77.9847 51.1932 78.0052C51.1861 78.0465 51.1817 77.9799 51.2043 77.971C51.1739 78.0218 51.0426 78.1346 50.9429 78.0748C50.951 78.1094 50.9154 78.2137 50.8955 78.2137L50.887 78.1306C50.8594 78.0854 50.8229 78.1509 50.8058 78.0818C50.7835 78.1894 50.9503 77.9641 50.9087 78.0522C50.8806 77.9873 50.8555 78.1984 50.8459 78.0847C50.8068 78.0959 50.7878 78.1955 50.7345 78.1268C50.7481 78.1379 50.7432 78.0071 50.7124 78.0195C50.6592 78.0456 50.7046 78.0617 50.6646 78.0981L50.6433 78.1374C50.6583 78.217 50.591 78.1368 50.6309 78.2212C50.6098 78.1573 50.559 78.278 50.5356 78.1456L50.5204 78.0406C50.4978 78.0533 50.505 78.1578 50.4963 78.2072C50.4912 78.1984 50.4799 78.179 50.4775 78.1619C50.5097 78.3208 50.4166 78.1607 50.4164 78.2882C50.3531 78.2442 50.2869 78.3081 50.2403 78.2192C50.2141 78.278 50.194 78.3439 50.1426 78.3229C50.1472 78.3057 50.1579 78.2978 50.1517 78.2634C50.1126 78.2251 50.1164 78.2684 50.0984 78.3009C50.098 78.276 50.02 78.225 49.9743 78.1784C49.949 78.2362 49.9852 78.3167 49.9955 78.3691C49.918 78.2251 49.9176 78.4989 49.835 78.3718C49.8418 78.3467 49.8684 78.2804 49.8258 78.2508C49.7464 78.1075 49.7887 78.384 49.7115 78.3268L49.7633 78.4499C49.7148 78.3783 49.7046 78.547 49.6705 78.4163C49.6663 78.4671 49.5921 78.3929 49.6369 78.5146C49.5132 78.4384 49.4365 78.6358 49.3093 78.441C49.3039 78.4665 49.2651 78.4583 49.2935 78.5186C49.3379 78.5783 49.3056 78.458 49.3294 78.5014C49.3195 78.5097 49.3288 78.5443 49.3334 78.5615C49.2968 78.5443 49.2721 78.5443 49.2622 78.4322C49.1741 78.3814 49.2735 78.6648 49.1804 78.6473C49.1652 78.596 49.1524 78.5793 49.1329 78.5964L49.1228 78.6992C49.0661 78.6989 49.0511 78.5965 49.0173 78.5124C48.9961 78.5375 48.9616 78.5468 48.9744 78.6147L48.8998 78.5217C48.9543 78.5886 48.898 78.5815 48.8938 78.6071L48.898 78.5815C48.8785 78.5475 48.8562 78.5822 48.8449 78.5988C48.8702 78.6495 48.9102 78.6578 48.9332 78.6663C48.9348 78.7085 48.9101 78.7083 48.9102 78.759C48.8823 78.6743 48.8429 78.7176 48.8184 78.7175C48.7866 78.7096 48.8222 78.8017 48.8139 78.8019C48.7954 78.7596 48.7718 78.8104 48.7651 78.7434C48.7673 78.7263 48.8014 78.7769 48.7991 78.7338C48.7698 78.7088 48.74 78.6343 48.7299 78.7015C48.7222 78.7519 48.806 78.8602 48.7367 78.8273C48.7401 78.8021 48.7282 78.7686 48.7251 78.7353L48.6619 78.7108L48.6928 78.7857C48.6785 78.7693 48.6799 78.7611 48.6728 78.7525C48.6942 78.8358 48.6158 78.8035 48.6454 78.8949C48.6269 78.9115 48.5753 78.8623 48.5501 78.8624L48.5513 78.8543C48.4992 78.8227 48.5351 78.8418 48.5149 78.9137L48.5074 78.8977C48.4894 78.9001 48.4607 78.9297 48.4648 78.9813C48.3977 78.948 48.3048 78.7198 48.3129 78.831C48.2772 78.8532 48.3243 78.9932 48.364 79.031C48.2702 79.0189 48.2522 79.1781 48.1314 79.0997C48.1364 79.1338 48.1514 79.1497 48.1401 79.1766C48.0282 79.1961 47.9767 79.3641 47.8279 79.2598C47.8408 79.2153 47.7936 79.186 47.7725 79.1452C47.7814 79.2217 47.711 79.0915 47.758 79.2072C47.7929 79.2717 47.8064 79.3047 47.8469 79.3173C47.8069 79.3814 47.7159 79.4253 47.6572 79.3799C47.6875 79.4021 47.6856 79.4282 47.6837 79.4541C47.6352 79.3476 47.5864 79.3533 47.5746 79.4059L47.6027 79.4714L47.5492 79.4167C47.5477 79.443 47.6048 79.5561 47.5432 79.5111C47.5289 79.4874 47.514 79.4633 47.499 79.4481C47.4942 79.5165 47.4964 79.6267 47.4338 79.591L47.3565 79.5141C47.3472 79.5318 47.3525 79.5994 47.3923 79.6124C47.3037 79.5874 47.2627 79.6003 47.2023 79.5333C47.2158 79.7821 47.0938 79.8672 46.9785 79.9185L46.952 79.8722C46.8954 79.8483 46.989 79.9586 46.9484 79.9399C46.9711 79.8688 46.6586 79.9772 46.8522 79.7964C46.6604 79.8398 46.8026 79.9292 46.7594 79.9809C46.7861 80.0461 46.761 79.929 46.7948 80.012C46.8014 80.0366 46.7148 79.993 46.7565 80.0908C46.7279 80.059 46.6999 79.9855 46.6863 79.9441L46.6846 80.0034C46.5956 79.911 46.6561 79.7679 46.5544 79.6494L46.5365 79.6774C46.4611 79.5924 46.5489 79.5294 46.466 79.5307C46.4605 79.5927 46.5091 79.741 46.555 79.7697C46.5126 79.8253 46.6474 80.0065 46.5868 80.0289C46.5412 79.9826 46.6249 79.9916 46.5726 79.9207C46.5043 79.8605 46.5408 79.9917 46.5025 79.9782C46.5489 79.9985 46.5787 80.1038 46.5723 80.1293C46.5188 80.1009 46.5409 80.0326 46.4945 80.0446C46.5184 80.101 46.5056 80.1595 46.5587 80.1797C46.616 80.3051 46.498 80.1696 46.5318 80.2765C46.4672 80.202 46.4563 80.0564 46.3857 80.0447C46.4416 80.1202 46.3976 80.1896 46.4943 80.2921C46.4633 80.2808 46.4219 80.2194 46.4044 80.1622C46.3481 80.1298 46.4355 80.3466 46.3272 80.195L46.3706 80.2813C46.3458 80.26 46.3218 80.2474 46.2808 80.2125C46.2573 80.2257 46.2816 80.3674 46.2029 80.2454C46.2042 80.2624 46.1499 80.2901 46.2257 80.3601C46.2908 80.3908 46.221 80.2762 46.3134 80.3777C46.2302 80.2999 46.2768 80.4189 46.2802 80.4608L46.2456 80.4163C46.2476 80.4413 46.2159 80.4469 46.244 80.5012C46.2338 80.4696 46.2079 80.4408 46.1917 80.4352L46.2289 80.5132C46.209 80.5802 46.1328 80.3978 46.1035 80.4494L46.0987 80.3714C46.0997 80.3883 46.0389 80.3334 46.0331 80.3702C46.0699 80.4399 46.1084 80.5271 46.1364 80.5815C46.1319 80.6269 46.0748 80.5176 46.0971 80.6001L46.0742 80.5009C46.0643 80.4765 45.9789 80.411 45.947 80.4363C45.9417 80.4736 45.9744 80.5882 46.0322 80.5995C46.0166 80.6123 45.9661 80.59 45.9459 80.5343C45.9245 80.5831 45.9996 80.5991 45.9957 80.6612C45.9525 80.6285 45.8686 80.5977 45.7996 80.5543L45.7569 80.4243L45.7337 80.4395C45.7017 80.3341 45.6721 80.3858 45.6241 80.2846C45.5983 80.282 45.6016 80.3257 45.6037 80.3596C45.7525 80.4696 45.6948 80.591 45.802 80.7119C45.7633 80.794 45.5325 80.4241 45.6132 80.6762C45.6486 80.7024 45.6886 80.8244 45.7019 80.7573C45.6518 80.7721 45.7689 80.9081 45.6827 80.8882C45.6793 80.8092 45.5507 80.7826 45.5449 80.6686C45.5724 80.714 45.5965 80.681 45.5956 80.6635C45.543 80.6249 45.5043 80.5293 45.4639 80.5586C45.448 80.5887 45.416 80.6157 45.4697 80.6805C45.5241 80.755 45.5017 80.6453 45.54 80.7325C45.5089 80.7942 45.4195 80.6858 45.4939 80.8343C45.5174 80.8008 45.5805 80.8725 45.6167 80.9245L45.6021 80.9823L45.5737 80.9274C45.4895 80.9337 45.6204 81.0305 45.5541 81.0582L45.4576 80.9785C45.4114 80.8836 45.5672 80.9568 45.4592 80.8255C45.4289 80.8387 45.4323 80.943 45.4193 80.8976C45.423 80.8769 45.3829 80.9015 45.4024 80.8686C45.3841 80.8748 45.2742 80.6764 45.2841 80.8316C45.288 80.8918 45.3134 80.8843 45.3517 80.9352C45.3033 80.9937 45.3242 81.0584 45.2909 81.0944C45.2245 80.9897 45.2149 81.1342 45.1817 81.002C45.2447 81.046 45.3284 80.9772 45.2776 80.8685C45.1664 80.7677 45.3374 80.8511 45.2588 80.7244C45.2092 80.7559 45.1235 80.6398 45.0582 80.5702C45.0412 80.5741 45.053 80.6149 45.054 80.632C45.1025 80.7068 45.1189 80.6935 45.1757 80.7658C45.108 80.7845 45.0871 80.8603 45.1096 80.9513C45.0655 80.929 45.018 80.8534 45.0336 80.8314C44.9866 80.898 44.9117 80.9367 44.8361 80.9576C44.9603 81.0477 44.7892 81.0332 44.8861 81.1125C44.9376 81.116 45.0261 81.1795 45.0463 81.2454C45.0204 81.2527 45.0096 81.1933 44.983 81.1744C45.0031 81.2574 44.8686 81.0999 44.9158 81.2197C44.947 81.1398 44.8243 81.0676 44.769 80.9674C44.7648 81.0492 44.7233 80.9 44.6832 80.9294C44.6824 81.011 44.6676 81.0871 44.6427 81.1387C44.5256 81.0945 44.5129 81.2409 44.4718 81.2794C44.4104 81.2547 44.3422 81.1446 44.3005 81.1491C44.2711 81.1762 44.4154 81.2348 44.3307 81.2277L44.3181 81.2048C44.3244 81.2376 44.1735 81.2092 44.2868 81.3543L44.2053 81.2415C44.1879 81.2393 44.2017 81.269 44.2049 81.2855C44.1733 81.2527 44.1345 81.2311 44.1282 81.198C44.0386 81.1464 44.0718 81.2659 44.0511 81.2879L44.1232 81.3352C44.1398 81.4057 44.0495 81.3943 44.0413 81.4574L43.9742 81.4127L43.9971 81.4699C43.9342 81.4215 43.8717 81.4299 43.9191 81.4784C43.8773 81.4192 43.8385 81.3539 43.8038 81.283C43.8598 81.2816 43.8677 81.3662 43.9453 81.3914C44.0094 81.4136 44.0262 81.361 43.9719 81.3031C43.9501 81.3167 43.9633 81.3289 43.9759 81.3599C43.879 81.3018 43.9058 81.274 43.8603 81.2102C43.8549 81.2247 43.8144 81.2214 43.8411 81.2452C43.8153 81.1892 43.8274 81.1583 43.8589 81.1155C43.8671 81.1727 43.9239 81.148 43.9383 81.1806C43.8482 81.1264 43.9416 81.0076 43.9424 81.0429C44.0505 81.1024 43.9699 80.9263 44.0406 80.9094C44.0877 81.0001 44.1175 81.0791 44.117 81.1315C44.1801 81.145 44.1475 81.1032 44.2104 81.1172C44.1746 81.0506 44.1084 80.957 44.1183 80.8907L44.1689 80.9447C44.1791 80.8877 44.1088 80.8037 44.1684 80.7825C44.2707 80.7468 44.3511 80.6823 44.4169 80.6417L44.4623 80.6994C44.4038 80.542 44.5374 80.571 44.5399 80.4825C44.6564 80.4866 44.6586 80.3109 44.7731 80.3854C44.8667 80.2488 44.9742 80.1026 45.1161 80.0337L45.1555 80.1375C45.1341 80.0557 45.2077 80.1762 45.2223 80.1459C45.1446 80.0964 45.1906 80.0317 45.1689 79.9661C45.2779 79.9905 45.3042 79.8592 45.3165 79.7581L45.3619 79.8167C45.3372 79.6637 45.4753 79.7142 45.558 79.6828C45.5837 79.702 45.6361 79.7498 45.652 79.7282C45.6207 79.603 45.6481 79.5968 45.6654 79.4958C45.7092 79.4674 45.7961 79.4456 45.8652 79.4561C45.9328 79.2027 46.1814 79.2005 46.3239 79.0092L46.3748 79.0802C46.3255 78.8955 46.7163 78.8506 46.7889 78.6974L46.8467 78.8351C46.9143 78.8501 46.9326 78.7466 46.8707 78.6597C46.9387 78.6757 46.9534 78.5357 47.0397 78.6284C47.0999 78.628 47.0661 78.5373 47.0969 78.4989C47.2178 78.4995 47.2483 78.4687 47.3212 78.4024L47.2957 78.4048C47.301 78.4386 47.328 78.4953 47.3536 78.4935C47.3675 78.4403 47.4897 78.4709 47.379 78.3281C47.5155 78.374 47.558 78.1479 47.7055 78.2274C47.6767 78.1879 47.6934 78.1684 47.687 78.1349C47.7593 78.0939 47.8843 78.1396 47.9043 78.0358C47.9276 78.0506 47.9248 78.118 47.9579 78.1061C47.9668 78.0802 47.9276 78.0506 47.9367 78.0154C47.993 77.8747 48.3428 77.9314 48.4144 77.8795C48.6126 77.7008 48.8763 77.6411 49.0972 77.545L49.106 77.5796C49.1408 77.4281 49.3282 77.6598 49.3276 77.447C49.356 77.4741 49.402 77.4421 49.4087 77.5118C49.4424 77.4019 49.6048 77.5491 49.6592 77.4066C49.6503 77.4057 49.6475 77.4139 49.6424 77.4313C49.7524 77.4814 49.8029 77.355 49.915 77.397C49.9094 77.4145 49.8948 77.4302 49.9009 77.4654C49.9539 77.5212 49.9496 77.2953 50.0114 77.4559C50.0317 77.4487 50.0055 77.3682 49.9938 77.3766C50.2152 77.387 50.4117 77.2435 50.6214 77.158C50.7966 77.2266 50.6867 77.4392 50.7839 77.2887C50.8 77.3192 50.7787 77.223 50.7871 77.2575C50.8256 77.2007 50.8954 77.4307 50.9115 77.3359C50.8791 77.2352 50.9225 77.2733 50.912 77.2103C51.0187 77.2592 51.0527 77.3451 51.1139 77.2566L51.1174 77.3118C51.1789 77.1451 51.2935 77.2134 51.3401 77.0245C51.8127 76.9065 52.3226 76.7706 52.79 76.7406C53.2679 76.7395 53.7412 76.6788 54.2249 76.7991C54.331 76.9492 54.3385 76.9453 54.4671 76.8917C54.4603 76.9149 54.4523 76.9202 54.4591 76.9427C54.4735 76.8237 54.5473 76.9348 54.5676 76.8222C54.7492 76.848 54.8757 76.8348 55.0833 76.8516C55.0523 76.8616 55.0293 76.9572 55.0651 76.9526L55.1087 76.88L55.1117 76.9141C55.1373 76.8988 55.1696 76.8424 55.148 76.8019C55.6443 76.7348 56.0528 77.0596 56.4899 77.0976C56.5827 77.1642 56.7344 77.1443 56.8484 77.1391C57.1491 77.3557 57.4111 77.5134 57.7504 77.4528C57.7505 77.4541 57.6742 77.7549 57.528 77.8057Z" fill="#91A476"/>
<path d="M43.6683 81.416C43.7282 81.4235 43.7766 81.4022 43.8328 81.4665C43.7815 81.4453 43.7154 81.4418 43.6683 81.416Z" fill="#91A476"/>
<path d="M44.8274 81.1213C44.8183 81.1061 44.8535 81.132 44.8618 81.1379C44.8536 81.1493 44.8726 81.197 44.8483 81.1775C44.8553 81.1668 44.8368 81.1448 44.8274 81.1213Z" fill="#91A476"/>
<path d="M45.0691 80.9912C45.0972 81.0359 45.0747 81.1036 45.0505 81.1289L45.0691 80.9912Z" fill="#91A476"/>
<path d="M45.4088 81.0166C45.4539 81.0388 45.464 81.0617 45.4385 81.078C45.4199 81.0573 45.4193 81.0403 45.4088 81.0166Z" fill="#91A476"/>
<path d="M45.3505 80.9102C45.3668 80.8967 45.3944 80.9151 45.4214 80.9332C45.3929 80.8975 45.3988 80.9842 45.3505 80.9102Z" fill="#91A476"/>
<path d="M45.8636 80.732C45.8712 80.7215 45.8671 80.6703 45.9109 80.7112C45.8763 80.6855 45.9014 80.8002 45.8636 80.732Z" fill="#91A476"/>
<path d="M46.0107 80.5265C46.019 80.5248 46.0269 80.5307 46.0261 80.5137C46.0513 80.525 46.0615 80.5653 46.0547 80.5762L46.0107 80.5265Z" fill="#91A476"/>
<path d="M49.7933 78.4021L49.7759 78.4342L49.7647 78.3828L49.7933 78.4021Z" fill="#91A476"/>
<path d="M51.6702 78.0024C51.6911 77.9659 51.695 78.049 51.7004 78.056C51.6779 78.065 51.6999 77.9904 51.6702 78.0024Z" fill="#91A476"/>
<path d="M52.6827 77.6486L52.6748 77.6504L52.6724 77.542L52.6827 77.6486Z" fill="#91A476"/>
<path d="M38.4364 79.4125C38.4828 79.4138 38.4978 79.3518 38.4885 79.4001C38.447 79.4185 38.416 79.4355 38.4364 79.4125Z" fill="#91A476"/>
<path d="M28.2304 69.7158C28.4472 69.4768 28.6274 69.7821 28.8526 69.6597C28.8774 69.6551 28.8087 69.8053 28.8665 69.7849C29.1003 69.6366 29.3631 69.835 29.5095 70.0779L29.4816 70.1131C29.5103 70.1579 29.6096 70.0445 29.6453 70.0803C29.6354 70.1069 29.6171 70.1126 29.6125 70.1533C29.6544 70.0772 29.7037 70.1467 29.7453 70.0944C29.7497 70.1321 29.7228 70.1949 29.7301 70.2388L29.791 70.1575C29.9471 69.9694 29.9496 70.2375 30.0884 70.1652C30.0749 70.1844 30.0588 70.1967 30.0574 70.2202C30.2607 70.1552 30.4349 70.2612 30.621 70.2862C30.6006 70.315 30.569 70.3699 30.563 70.41C30.6127 70.319 30.6741 70.3179 30.7265 70.3189C30.7069 70.4262 30.8266 70.2577 30.8633 70.3356L30.8505 70.3553C30.9291 70.2677 30.886 70.4388 30.9655 70.3278L30.9604 70.4156C31.0322 70.2838 30.9888 70.511 31.049 70.4533L31.0595 70.4246C31.1037 70.4036 31.0915 70.4796 31.1294 70.4679L31.1255 70.4848C31.207 70.4764 31.213 70.5683 31.2575 70.4605C31.2437 70.556 31.1763 70.4732 31.1594 70.6136C31.4267 70.5832 31.6312 70.7277 31.8437 70.8305C31.8457 70.8842 31.854 70.9045 31.8382 70.9463C31.8703 70.9359 31.927 70.9673 31.9753 70.9249C31.967 70.9235 31.9597 70.984 31.9679 70.9946C31.984 71.0521 32.0714 70.907 32.0861 70.9767C32.0545 70.9937 32.0305 71.0229 32.0142 71.0639C32.0934 71.006 32.1319 71.0472 32.1873 71.047C32.171 71.0599 32.1553 71.0639 32.1381 71.0964C32.2352 71.0355 32.2069 71.1648 32.2794 71.1333L32.2297 71.1814C32.2482 71.2894 32.3222 71.0732 32.3505 71.148C32.3262 71.158 32.3168 71.1831 32.2999 71.205C32.4152 71.1326 32.4754 71.2179 32.5487 71.2146C32.5406 71.2204 32.5311 71.2364 32.5311 71.2364C32.5952 71.257 32.6303 71.3249 32.7166 71.3258C32.7202 71.3657 32.6154 71.4551 32.6837 71.4754C32.7603 71.3638 32.8084 71.4999 32.8663 71.3521C32.9008 71.4057 32.9444 71.5021 33.0036 71.4893C32.9514 71.5143 32.9255 71.6371 32.8801 71.6172L32.8591 71.7041C32.8211 71.7446 32.841 71.667 32.8076 71.7292C32.8299 71.7387 32.9178 71.7384 32.9212 71.7684C33.0076 71.7298 33.1378 71.6344 33.2076 71.6656C33.1467 71.6854 33.1282 71.7923 33.095 71.7961L33.3318 71.6558C33.3547 71.6667 33.2707 71.7433 33.3198 71.7381C33.3403 71.709 33.3662 71.7013 33.3925 71.6852C33.3897 71.7036 33.4936 71.7255 33.4176 71.8358C33.3934 71.8826 33.3697 71.8317 33.3605 71.8859C33.3957 71.9136 33.4263 71.8794 33.4625 71.9068L33.4519 71.921C33.4617 71.9549 33.556 71.9337 33.5786 71.8568C33.5649 71.8405 33.533 71.9231 33.5341 71.8736C33.6001 71.8282 33.6557 71.846 33.692 71.8749C33.6661 71.8805 33.6443 71.9086 33.6148 71.9333C33.7291 71.8942 33.8068 71.9094 33.884 71.9257C33.9273 71.8795 33.788 71.9934 33.8032 71.9617C33.8068 72.0867 34.0188 71.9958 33.984 72.1402C33.9678 72.1399 34.041 72.0704 34.0295 72.0838C34.0548 72.119 33.9902 72.1839 34.0334 72.1786C33.9982 72.2193 34.0704 72.1898 34.1022 72.198C34.1398 72.1802 34.0893 72.2219 34.0676 72.209C34.1265 72.2035 34.3019 72.2548 34.3102 72.3743C34.3342 72.348 34.4414 72.3223 34.453 72.34L34.3882 72.3926C34.3659 72.4412 34.4414 72.4376 34.3931 72.4899C34.4958 72.4509 34.2137 72.428 34.3106 72.4163C34.272 72.476 34.463 72.3831 34.3731 72.4534C34.4042 72.481 34.499 72.4446 34.4708 72.5277C34.4725 72.51 34.3648 72.5842 34.3923 72.6039C34.4438 72.636 34.4324 72.5882 34.4855 72.6034L34.5308 72.6012C34.5904 72.5463 34.5595 72.647 34.6095 72.568C34.5664 72.6198 34.6989 72.6015 34.5978 72.6902L34.5156 72.7577C34.5388 72.7705 34.6251 72.7105 34.6727 72.6927L34.6441 72.7322C34.7642 72.6232 34.6766 72.7855 34.7885 72.7212C34.7851 72.7985 34.8769 72.8218 34.8214 72.9093C34.8848 72.9049 34.9522 72.8916 34.9589 72.9488C34.9416 72.9527 34.9295 72.9467 34.9025 72.9689C34.8879 73.0228 34.9238 72.9985 34.9611 72.9997C34.9396 73.0119 34.9323 73.1072 34.9132 73.1701C34.9757 73.1659 35.0294 73.0953 35.0708 73.0615C34.9806 73.1987 35.2234 73.0725 35.1503 73.2062C35.1248 73.2114 35.0531 73.2179 35.0473 73.2701C34.9591 73.4101 35.1796 73.2363 35.1725 73.3445L35.26 73.2431C35.2177 73.3198 35.3778 73.2617 35.2734 73.3475C35.3227 73.3317 35.2885 73.4331 35.3808 73.3419C35.3653 73.4921 35.5967 73.4932 35.458 73.6883C35.4843 73.6859 35.4908 73.7275 35.5379 73.6801C35.5782 73.6162 35.4756 73.6865 35.5079 73.6486C35.5194 73.6562 35.5489 73.6362 35.5638 73.6261C35.5617 73.6692 35.5705 73.6939 35.467 73.7384C35.4504 73.8409 35.685 73.6583 35.6996 73.7619C35.655 73.7913 35.6429 73.8092 35.6653 73.8252L35.768 73.8095C35.7858 73.8694 35.6904 73.9096 35.6189 73.9655C35.6496 73.9805 35.6684 74.0131 35.731 73.9842L35.6616 74.0815C35.7115 74.0112 35.7206 74.0695 35.747 74.068L35.7206 74.0696C35.6927 74.0968 35.7329 74.1112 35.7529 74.119C35.7959 74.0827 35.7927 74.0401 35.7941 74.0143C35.8356 74.0036 35.8428 74.029 35.8934 74.0184C35.8171 74.0649 35.872 74.096 35.8792 74.1211C35.8802 74.1549 35.9632 74.1007 35.9657 74.1091C35.9284 74.1362 35.9869 74.1507 35.9208 74.1701C35.9029 74.1711 35.9443 74.1267 35.9014 74.1375C35.8846 74.1721 35.8175 74.2165 35.8884 74.2137C35.9409 74.2121 36.0286 74.107 36.0129 74.1848C35.9867 74.1854 35.9561 74.2033 35.9237 74.2122L35.9138 74.2811L35.9817 74.2371C35.9686 74.2546 35.96 74.2545 35.953 74.2633C36.0317 74.2277 36.0177 74.3136 36.1037 74.2694C36.1251 74.2863 36.0873 74.3466 36.0932 74.3722L36.0847 74.3724C36.0617 74.424 36.1097 74.4399 36.1695 74.431L36.154 74.4397C36.1577 74.457 36.1898 74.4827 36.2414 74.4741C36.2131 74.5424 35.9919 74.6519 36.1028 74.6348C36.1282 74.6681 36.2645 74.6098 36.2988 74.5678C36.2958 74.66 36.4512 74.6649 36.3805 74.7912C36.4139 74.7835 36.4279 74.7668 36.456 74.7761C36.4856 74.8879 36.6601 74.9299 36.5681 75.0865C36.5221 75.0761 36.4967 75.1256 36.4573 75.1491C36.5336 75.1354 36.4084 75.2142 36.5209 75.16C36.5829 75.1211 36.6152 75.1056 36.6246 75.064C36.6941 75.1022 36.742 75.1866 36.7007 75.2515C36.7212 75.2193 36.7474 75.2202 36.7735 75.2214C36.6697 75.2755 36.6782 75.3255 36.7319 75.336L36.7962 75.3051L36.7443 75.3619C36.7708 75.3624 36.8814 75.3008 36.8398 75.3656C36.8167 75.381 36.7934 75.3968 36.7791 75.4126C36.8481 75.4158 36.96 75.412 36.9276 75.4772L36.854 75.5574C36.8725 75.5665 36.9412 75.5608 36.952 75.5194C36.932 75.6104 36.9472 75.6526 36.8802 75.7165C37.1291 75.7104 37.2225 75.8553 37.2776 75.9826L37.2293 76.0057C37.2047 76.0626 37.3198 75.976 37.3005 76.0168C37.2503 76.0319 37.2186 76.0963 37.1501 76.1022C37.1278 76.1761 37.2644 76.1154 37.3025 76.1334C37.3659 76.103 37.2498 76.1314 37.3303 76.093C37.3548 76.0857 37.3192 76.1838 37.4153 76.1383C37.3858 76.1706 37.3131 76.2003 37.2722 76.2154L37.3331 76.2179C37.2455 76.3137 37.0964 76.2497 36.9847 76.3616L37.0137 76.3794C36.932 76.4591 36.8661 76.3729 36.8704 76.4568C36.932 76.4591 37.0791 76.4068 37.1054 76.3582C37.1643 76.4025 37.3399 76.2598 37.3683 76.3274C37.3242 76.3757 37.3263 76.2843 37.2578 76.3399C37.2008 76.4122 37.3333 76.3756 37.3225 76.4171C37.3402 76.3679 37.4473 76.3395 37.4753 76.3487C37.4501 76.4057 37.3763 76.3778 37.3929 76.4288C37.4502 76.4057 37.514 76.4248 37.5303 76.3674C37.6601 76.3149 37.5241 76.4339 37.6314 76.4052C37.5551 76.4687 37.409 76.4704 37.3954 76.5449C37.4723 76.4902 37.5416 76.5428 37.6469 76.4473C37.635 76.4801 37.5721 76.5192 37.514 76.5334C37.4797 76.5903 37.7016 76.5161 37.5452 76.618L37.634 76.5796C37.6118 76.6042 37.5985 76.6283 37.5619 76.6683C37.5742 76.692 37.7208 76.687 37.5933 76.7564C37.6109 76.7575 37.6378 76.8219 37.7125 76.7496C37.7453 76.6811 37.6256 76.7413 37.732 76.653C37.6503 76.7349 37.7742 76.7015 37.8187 76.7064L37.7715 76.7371C37.7978 76.7398 37.8033 76.7767 37.8611 76.7559C37.8276 76.7609 37.7968 76.7846 37.7904 76.8016L37.8729 76.7751C37.9393 76.8096 37.7477 76.859 37.7972 76.8996L37.7179 76.8913C37.7351 76.8933 37.6738 76.9485 37.7104 76.9609C37.7842 76.934 37.8768 76.9089 37.9349 76.8895C37.9811 76.9039 37.8641 76.9434 37.9506 76.9361L37.847 76.941C37.8213 76.947 37.7463 77.0259 37.7687 77.0637C37.8058 77.0759 37.927 77.0651 37.9441 77.0059C37.9559 77.0253 37.928 77.0745 37.8688 77.084C37.9164 77.1168 37.941 77.0409 38.0041 77.0579C37.965 77.096 37.9215 77.1758 37.8674 77.2374L37.7319 77.2567L37.7428 77.2829C37.6334 77.296 37.6798 77.3345 37.5718 77.3647C37.5649 77.3896 37.6086 77.3942 37.6426 77.3983C37.7762 77.2695 37.8865 77.3489 38.0237 77.2634C38.0973 77.3144 37.6936 77.4789 37.9551 77.4416C37.987 77.4111 38.1135 77.392 38.0504 77.3682C38.0558 77.4195 38.2099 77.3272 38.175 77.4078C38.0972 77.3987 38.0483 77.5199 37.9354 77.5069C37.9849 77.4874 37.9567 77.4586 37.9396 77.4565C37.8926 77.5016 37.792 77.5239 37.8136 77.5681C37.8403 77.5886 37.8612 77.6243 37.9341 77.5823C38.0164 77.5412 37.9051 77.5453 37.9974 77.522C38.0522 77.5613 37.9303 77.6289 38.0877 77.5781C38.0598 77.5525 38.1411 77.5032 38.1985 77.476L38.2511 77.4946L38.1926 77.5148C38.1824 77.5918 38.3006 77.4825 38.3141 77.5447L38.2195 77.6253C38.1198 77.6592 38.2194 77.5234 38.0727 77.6092C38.0857 77.6491 38.1685 77.6222 38.1471 77.6766L38.1039 77.6661C38.1054 77.6816 37.9123 77.7978 38.0564 77.7907C38.1157 77.7944 38.1133 77.7701 38.17 77.7411C38.2171 77.7913 38.283 77.7779 38.3106 77.8106C38.1975 77.8644 38.3353 77.8794 38.202 77.9023C38.2554 77.8481 38.2064 77.7669 38.0912 77.8007C37.9723 77.8911 38.0856 77.7445 37.947 77.7999C37.9686 77.85 37.8395 77.915 37.76 77.9669C37.761 77.9841 37.8035 77.9785 37.8206 77.98C37.902 77.9441 37.892 77.9266 37.9725 77.8827C37.9794 77.9474 38.048 77.9804 38.1416 77.9625C38.1133 78.0001 38.0329 78.0389 38.0126 78.0232C38.0729 78.0698 38.1012 78.1383 38.1136 78.2096C38.2142 78.0959 38.1807 78.2539 38.267 78.1635C38.2764 78.1161 38.3492 78.037 38.4138 78.0178C38.4165 78.04 38.3596 78.0514 38.3381 78.075C38.4184 78.0543 38.253 78.1797 38.3713 78.1336C38.3007 78.1082 38.217 78.2205 38.1161 78.2734C38.1941 78.278 38.0472 78.3161 38.072 78.3562C38.1377 78.3427 38.2352 78.4058 38.2814 78.4352C38.2229 78.5471 38.3659 78.5791 38.3988 78.626C38.3671 78.6826 38.2482 78.7361 38.2498 78.7757C38.2755 78.8055 38.3473 78.6751 38.3333 78.7536L38.3088 78.7638C38.3429 78.7597 38.3029 78.9006 38.4603 78.8024L38.3386 78.8723C38.3349 78.8888 38.3666 78.8777 38.3838 78.8754C38.3478 78.9034 38.3231 78.9391 38.2885 78.9427C38.2352 79.0316 38.3481 78.9962 38.3746 79.0251L38.4227 78.952C38.5092 78.9682 38.5086 79.0815 38.5467 79.0657L38.4896 79.1228L38.5442 79.1071C38.4891 79.163 38.4839 79.2258 38.541 79.189C38.4767 79.2189 38.411 79.2502 38.325 79.2601C38.333 79.2028 38.4246 79.2196 38.4631 79.1469C38.5016 79.087 38.4515 79.0776 38.3753 79.1088C38.3859 79.1296 38.4021 79.1215 38.4382 79.1147C38.3568 79.1907 38.3305 79.1612 38.2491 79.1818C38.2645 79.1915 38.2545 79.2297 38.2861 79.2115C38.1942 79.1884 38.2103 79.2312 38.1808 79.1948C38.2324 79.1899 38.2244 79.1369 38.2557 79.1255C38.1782 79.1867 38.1283 79.1716 38.1169 79.1105C38.1845 79.0105 37.9961 79.0732 37.9821 79.0016C38.0803 78.9655 38.1646 78.944 38.2189 78.9485C38.2368 78.8891 38.1914 78.9168 38.2101 78.858C38.1382 78.8866 38.0361 78.9412 37.9667 78.9242L38.0269 78.8814C37.9718 78.8639 37.8796 78.9228 37.8671 78.8617C37.8508 78.7645 37.7838 78.6525 37.773 78.6171L37.8322 78.573C37.6794 78.6257 37.7091 78.485 37.6197 78.4736C37.6306 78.3533 37.4415 78.325 37.5339 78.2193C37.4089 78.0983 37.2864 77.9861 37.2376 77.8225L37.3465 77.8012C37.2624 77.8084 37.3936 77.7563 37.3662 77.7367C37.3041 77.8048 37.2482 77.7483 37.1802 77.7583C37.2224 77.6542 37.0984 77.6075 37.0023 77.581L37.0675 77.5458C36.9138 77.5477 36.9865 77.4287 36.9689 77.3456C36.9916 77.3233 37.0459 77.2776 37.0273 77.26C36.9016 77.2776 36.8984 77.2535 36.8038 77.2338C36.7838 77.1939 36.7703 77.1103 36.7853 77.0439C36.5481 76.9677 36.5476 76.751 36.3648 76.6353L36.4332 76.5801C36.1799 76.5114 36.2125 76.2298 36.051 76.1396L36.1872 76.0791C36.202 76.0134 36.0973 76.0002 36.0123 76.0637C36.027 75.9979 35.8881 75.9916 35.9782 75.9035C35.9767 75.8458 35.8877 75.8837 35.8493 75.8569C35.8473 75.7408 35.8174 75.7136 35.7457 75.6451L35.7496 75.6698C35.7831 75.6626 35.8381 75.6322 35.8346 75.6065C35.7807 75.5977 35.8034 75.4771 35.6682 75.5959C35.7052 75.4593 35.479 75.4423 35.5477 75.2884C35.5108 75.3205 35.4904 75.3047 35.4574 75.3131C35.4128 75.2397 35.4461 75.1119 35.3387 75.0998C35.3516 75.0753 35.4201 75.0731 35.4051 75.0413C35.3778 75.0343 35.3517 75.0754 35.3151 75.0688C35.1632 75.0045 35.2397 74.7819 35.1474 74.6921C34.9365 74.573 34.8484 74.3471 34.697 74.2068L34.7259 74.1859C34.5779 74.2218 34.725 73.9709 34.5356 74.0635C34.5503 74.0287 34.5073 74.0053 34.566 73.9686C34.4623 73.9915 34.5365 73.8001 34.3811 73.8138C34.3843 73.8216 34.3926 73.8203 34.41 73.8164C34.406 73.6979 34.2745 73.7156 34.2616 73.5987C34.2793 73.595 34.299 73.5999 34.3268 73.5774C34.3513 73.504 34.1592 73.619 34.2698 73.4864C34.2545 73.4723 34.1972 73.5349 34.2095 73.5408C34.1161 73.3442 33.8913 73.2709 33.7195 73.1486C33.6897 72.9699 33.9189 72.9395 33.7464 72.9447C33.7632 72.9146 33.695 72.9857 33.7192 72.9596C33.6539 72.9604 33.8049 72.7761 33.7193 72.8172C33.6543 72.9007 33.6628 72.845 33.6171 72.8899C33.6014 72.7804 33.6538 72.699 33.5477 72.708L33.5899 72.6717C33.4224 72.7279 33.4111 72.6008 33.2394 72.6863C32.8985 72.4233 32.4602 72.216 32.1366 72.0031C31.8092 71.7462 31.4227 71.6186 31.0844 71.3506C31.0542 71.179 31.0427 71.1802 30.918 71.1928C30.9314 71.1729 30.9401 71.1701 30.9419 71.1472C30.89 71.2551 30.8655 71.1282 30.8121 71.2293C30.7134 71.1635 30.4822 71.1086 30.3274 71.039C30.3577 71.0383 30.4098 70.9548 30.3765 70.9487L30.3145 71.0048L30.323 70.9717C30.2953 70.9789 30.2494 71.023 30.255 71.0676C29.8096 70.9805 29.5254 70.6014 29.1367 70.4908C29.0644 70.4168 28.9231 70.4211 28.8212 70.415C28.5867 70.1559 28.3264 70.0205 28.0124 70.0621C28.0125 70.0613 28.0856 69.7619 28.2304 69.7158Z" fill="#91A476"/>
<path d="M38.402 79.4046C38.4417 79.3606 38.439 79.3135 38.5083 79.2695C38.4754 79.3152 38.4415 79.3684 38.402 79.4046Z" fill="#91A476"/>
<path d="M38.2686 78.2173C38.2534 78.226 38.2817 78.1929 38.2883 78.1852C38.298 78.1922 38.3448 78.1733 38.3239 78.1981C38.3144 78.1906 38.2918 78.2079 38.2686 78.2173Z" fill="#91A476"/>
<path d="M38.1742 77.9982C38.2218 77.9751 38.2838 77.9949 38.304 78.0157L38.1742 77.9982Z" fill="#91A476"/>
<path d="M38.2601 77.697C38.2909 77.6591 38.3148 77.6527 38.3253 77.6764C38.3014 77.691 38.2849 77.69 38.2601 77.697Z" fill="#91A476"/>
<path d="M38.1448 77.7382C38.135 77.722 38.1584 77.6993 38.1812 77.6773C38.141 77.6988 38.2261 77.7029 38.1448 77.7382Z" fill="#91A476"/>
<path d="M38.0543 77.2068C38.0448 77.197 37.9934 77.1913 38.0408 77.1547C38.0098 77.1848 38.1281 77.1816 38.0543 77.2068Z" fill="#91A476"/>
<path d="M37.8663 77.0132C37.8655 77.0039 37.8723 76.9965 37.8547 76.9943C37.8688 76.9694 37.9108 76.9666 37.9215 76.9761L37.8663 77.0132Z" fill="#91A476"/>
<path d="M35.198 73.23L35.2351 73.2311L35.1947 73.2646L35.198 73.23Z" fill="#91A476"/>
<path d="M33.782 71.8119C33.7386 71.8191 33.7995 71.762 33.801 71.7532C33.8243 71.7653 33.7512 71.7962 33.782 71.8119Z" fill="#91A476"/>
<path d="M32.763 71.3453L32.7704 71.3492L32.7051 71.4359L32.763 71.3453Z" fill="#91A476"/>
<path d="M58.5584 30.5516L54.0715 43.6166C59.4564 41.9906 62.1785 38.5106 62.1785 38.5106L62.8165 36.3803C62.8165 36.3803 61.8557 33.2002 58.5584 30.5516Z" fill="#EAB129"/>
<path d="M62.8169 36.3807L62.1788 38.5109L84.2802 45.5246L79.6279 35.7096L62.8169 36.3807Z" fill="#EAB129"/>
<path d="M99.9532 18.005L100.894 19.7505C100.894 19.7505 104.535 12.9552 107.627 19.0701C109.763 23.2941 106.192 29.3239 106.192 29.3239L106.836 30.1377C106.836 30.1377 114.571 18.64 106.855 14.0933C101.652 11.0276 99.9532 18.005 99.9532 18.005Z" fill="#EAB129"/>
<path d="M97.4287 11.9261L110.334 35.8615C112.732 42.7139 84.6602 49.7036 84.6602 49.7036L73.1707 28.9815L97.4287 11.9261Z" fill="#EAB129"/>
<path d="M96.7924 12.2483C92.9602 5.90819 71.3346 21.0686 69.875 22.1024L69.6622 21.6968C69.6622 21.6968 93.1759 4.88943 97.4286 11.9257C101.681 18.9621 73.1708 28.9811 73.1708 28.9811L72.9522 28.5754C75.3223 27.7252 100.571 18.5003 96.7924 12.2483Z" fill="#BF9847"/>
<path d="M96.7926 12.248C100.571 18.5 75.5991 27.6399 73.2287 28.4906L69.8751 22.1022C71.3349 21.0683 92.9606 5.90792 96.7926 12.248Z" fill="#806530"/>
<path d="M73.6255 28.3468C73.8775 28.2564 73.9878 28.2161 74.6885 27.9519C79.9864 25.9546 96.3494 19.3735 97.1482 14.0046C97.0963 13.7587 97.0018 13.5179 96.8598 13.2833C93.3211 7.42869 72.5362 21.8505 71.1883 22.8049L73.6255 28.3468Z" fill="white"/>
<path d="M95.2763 13.8752C95.3253 13.943 95.2925 13.8155 95.3187 13.914C95.2961 13.9135 95.2752 13.9062 95.2763 13.8752Z" fill="#C1C1C1"/>
<path d="M75.3327 23.7139C75.4952 23.4642 75.8634 23.3854 76.0688 23.1581C76.0956 23.1351 76.0992 23.2219 76.1559 23.1659C76.3442 22.9291 76.7546 22.7361 77.0892 22.6126L77.0821 22.6406C77.1453 22.6169 77.1785 22.5182 77.2426 22.4879C77.2503 22.4986 77.2338 22.5157 77.2572 22.5224C77.2505 22.4792 77.3541 22.4382 77.3631 22.3973C77.3948 22.3953 77.4096 22.4233 77.4489 22.4186L77.4588 22.3588C77.4951 22.2083 77.6913 22.2184 77.7904 22.0898C77.7896 22.1026 77.7813 22.1176 77.797 22.1197C77.9682 21.9329 78.2328 21.7781 78.4516 21.6113C78.4509 21.6307 78.458 21.6603 78.4813 21.667C78.4671 21.6197 78.5321 21.5642 78.5891 21.517C78.6429 21.5405 78.6715 21.4121 78.7592 21.3892L78.7585 21.402C78.7853 21.3251 78.854 21.3768 78.8654 21.2976L78.92 21.3083C78.9073 21.2353 79.017 21.2895 79.0428 21.2319L79.034 21.2209C79.0671 21.1804 79.1072 21.196 79.1404 21.1618L79.1483 21.1663C79.2305 21.0942 79.3037 21.0935 79.2731 21.0493C79.328 21.0658 79.1946 21.1211 79.2781 21.1429C79.549 20.9083 79.868 20.7276 80.174 20.5444C80.2201 20.5428 80.2455 20.5354 80.2636 20.5485C80.2891 20.5212 80.3749 20.4726 80.3892 20.4325C80.3792 20.4393 80.4225 20.4446 80.4403 20.4376C80.5063 20.4223 80.4729 20.351 80.5472 20.3373C80.529 20.3634 80.5289 20.3831 80.5472 20.3959C80.5796 20.3301 80.6543 20.2964 80.7105 20.2493C80.7053 20.2628 80.6926 20.276 80.7032 20.2895C80.749 20.2092 80.8337 20.2298 80.8798 20.1705L80.872 20.2101C80.9873 20.1905 80.8699 20.1375 80.9651 20.1117C80.9494 20.1311 80.9623 20.138 80.9644 20.151C81.0167 20.0592 81.1526 20.0069 81.2221 19.9477L81.2247 19.9609C81.3069 19.9084 81.4046 19.8756 81.487 19.8035C81.5275 19.797 81.5116 19.8758 81.5969 19.8171C81.564 19.7641 81.7385 19.7117 81.6518 19.6785C81.7336 19.6458 81.8673 19.6004 81.9088 19.554C81.8851 19.5935 81.9825 19.6006 81.9204 19.6396L81.9872 19.6467C81.9918 19.6731 81.9328 19.666 81.9638 19.6858C81.9946 19.6663 82.0768 19.594 82.1103 19.5875C82.1521 19.5217 82.1732 19.4297 82.2658 19.3705C82.2317 19.4163 82.3241 19.417 82.2985 19.443L82.3768 19.2656C82.4077 19.2457 82.407 19.305 82.4457 19.2657C82.4357 19.2526 82.4509 19.2326 82.4586 19.2131C82.4745 19.2131 82.5851 19.1275 82.628 19.1739C82.6535 19.187 82.5819 19.2132 82.6276 19.2134C82.6868 19.1809 82.6794 19.1609 82.7382 19.128L82.7432 19.1344C82.7867 19.1214 82.8464 19.0493 82.7877 19.0425C82.7595 19.0558 82.8158 19.0695 82.7666 19.0753C82.7777 19.0292 82.8417 18.9832 82.9014 18.9509C82.8855 18.9701 82.8955 18.9834 82.8957 19.003C82.9527 18.9176 83.03 18.8586 83.1092 18.7929C83.0971 18.7666 83.1013 18.8575 83.0812 18.8509C83.2143 18.8248 83.2899 18.6735 83.4128 18.6741C83.3995 18.687 83.3846 18.6422 83.3897 18.6489C83.4466 18.6225 83.4642 18.6608 83.4924 18.6279C83.5078 18.6477 83.5335 18.5966 83.5671 18.57C83.5775 18.5442 83.5823 18.5755 83.5516 18.5951C83.5932 18.549 83.7807 18.4047 83.9165 18.3723C83.9065 18.3591 83.9611 18.28 83.9889 18.267L83.9967 18.3064C84.0293 18.313 84.1052 18.2475 84.1163 18.2797C84.1559 18.205 83.8917 18.4386 83.9628 18.3626C83.9984 18.3795 84.0437 18.2496 84.0518 18.3047C84.124 18.2682 84.1495 18.211 84.2228 18.2168C84.204 18.2184 84.1989 18.2861 84.2433 18.2626C84.3216 18.2199 84.2591 18.2357 84.3193 18.1946L84.3538 18.1615C84.3411 18.1264 84.4286 18.1333 84.3809 18.1091C84.4038 18.1324 84.4912 18.0386 84.5084 18.0988L84.5172 18.1481C84.5508 18.129 84.5532 18.0754 84.572 18.0435C84.5785 18.0454 84.5916 18.0502 84.5932 18.0581C84.5684 17.9875 84.6793 18.0262 84.6975 17.9549C84.7817 17.9449 84.8855 17.8728 84.9388 17.9002C84.9862 17.8546 85.027 17.8076 85.0976 17.7937C85.0877 17.8057 85.0711 17.8152 85.0737 17.8316C85.1229 17.8337 85.1252 17.8114 85.1573 17.7841C85.1533 17.7977 85.256 17.7884 85.3116 17.7924C85.3585 17.7474 85.323 17.7192 85.3184 17.6942C85.3997 17.739 85.4579 17.581 85.5493 17.6138C85.5334 17.6316 85.4821 17.6828 85.5361 17.679C85.6171 17.7233 85.6181 17.5847 85.714 17.5791L85.6689 17.5327C85.7213 17.5505 85.7749 17.4451 85.7922 17.5057C85.8106 17.4731 85.8969 17.4797 85.863 17.4298C86.0185 17.4139 86.1762 17.2526 86.304 17.3112C86.3193 17.2933 86.3718 17.2803 86.3488 17.2574C86.3027 17.2421 86.3143 17.2993 86.2927 17.2843C86.3093 17.2749 86.3061 17.2582 86.3045 17.2502C86.3521 17.2433 86.3866 17.2321 86.3682 17.2948C86.4773 17.2859 86.4209 17.1599 86.5461 17.1221C86.5515 17.1468 86.5646 17.1506 86.5963 17.1301L86.6418 17.0599C86.7208 17.031 86.7096 17.0887 86.7298 17.1249C86.7663 17.0982 86.8163 17.0753 86.8205 17.0382L86.8931 17.0603C86.8402 17.0446 86.9144 17.0211 86.9286 17.0027L86.9144 17.0211C86.9296 17.0332 86.9713 17.0002 86.9922 16.9837C86.9744 16.9635 86.9225 16.9781 86.8935 16.9845C86.9057 16.9579 86.9394 16.9455 86.9564 16.9127C86.9663 16.9536 87.035 16.9058 87.0683 16.8933C87.1092 16.8828 87.0924 16.8403 87.1034 16.8359C87.1146 16.8543 87.1645 16.8094 87.1501 16.8498C87.1413 16.8621 87.1121 16.8459 87.1007 16.8729C87.1319 16.8748 87.1466 16.9086 87.1837 16.8594C87.2118 16.8227 87.1357 16.7933 87.2195 16.7801C87.2053 16.7986 87.21 16.8148 87.2022 16.8349L87.2798 16.8197L87.265 16.7853C87.2787 16.7892 87.2738 16.7952 87.2806 16.7975C87.2822 16.7529 87.3784 16.735 87.3734 16.6882C87.4059 16.6676 87.4576 16.675 87.4928 16.6626L87.4879 16.6685C87.5382 16.668 87.5846 16.6287 87.6067 16.5896L87.6086 16.5976C87.6316 16.5894 87.6806 16.5583 87.6985 16.5251C87.7667 16.5226 87.7806 16.6413 87.8205 16.5691C87.8756 16.5401 87.8775 16.4643 87.8445 16.4543C87.9564 16.4266 88.0447 16.3148 88.1634 16.3203C88.1715 16.2994 88.1579 16.2955 88.1841 16.2725C88.3381 16.2099 88.4795 16.078 88.6304 16.0933C88.5936 16.1267 88.6431 16.1284 88.6529 16.1474C88.6747 16.1008 88.7106 16.1592 88.6997 16.1017C88.6821 16.0727 88.6788 16.0563 88.6308 16.0629C88.7127 16.0062 88.8495 15.945 88.9122 15.9514C88.881 15.9486 88.896 15.9306 88.9113 15.9126C88.9272 15.9643 88.9966 15.942 89.0387 15.9024L89.0324 15.8694L89.079 15.8854C89.0938 15.8674 89.0717 15.8134 89.1344 15.8197L89.1633 15.8451C89.2042 15.7975 89.2588 15.7232 89.3265 15.7235L89.3916 15.7466C89.4135 15.7309 89.4425 15.6866 89.3944 15.693C89.5022 15.6762 89.5652 15.6519 89.6119 15.6761C89.7223 15.5126 89.9608 15.3936 90.1517 15.3101L90.1564 15.3348C90.2172 15.3309 90.1644 15.2834 90.2073 15.2817C90.201 15.3108 90.2679 15.3089 90.2405 15.3539C90.3244 15.3422 90.3157 15.2707 90.358 15.2378C90.3514 15.2053 90.3291 15.2748 90.3205 15.2334C90.3237 15.2192 90.4319 15.2079 90.4221 15.1584C90.4488 15.1668 90.4502 15.2058 90.4486 15.2285L90.4827 15.1858C90.5617 15.2109 90.403 15.3369 90.49 15.3729L90.5279 15.3464C90.5886 15.3735 90.4444 15.4501 90.5546 15.4167C90.5883 15.3732 90.5965 15.2919 90.5473 15.2911C90.6352 15.2352 90.5409 15.1661 90.6435 15.1223C90.6832 15.1354 90.5656 15.1665 90.6022 15.1937C90.6665 15.2069 90.688 15.1292 90.736 15.1217C90.6816 15.1274 90.7003 15.0642 90.7269 15.0418C90.788 15.0385 90.7133 15.0991 90.7877 15.0697C90.788 15.0385 90.8462 14.9883 90.7797 14.9975C90.7793 14.927 90.863 14.9781 90.8821 14.9147C90.9243 14.9444 90.8506 15.0436 90.9395 15.0269C90.9084 14.993 91.0147 14.9285 90.9455 14.8895C90.9825 14.8865 91 14.916 90.9875 14.9504C91.0439 14.9548 91.0656 14.8298 91.1155 14.9016L91.1131 14.8542C91.1333 14.8612 91.1582 14.862 91.1913 14.8735C91.2312 14.8566 91.2962 14.7617 91.3189 14.8244C91.3291 14.8125 91.4215 14.7748 91.3683 14.7481C91.3002 14.7475 91.3157 14.8079 91.2597 14.7648C91.3202 14.7937 91.3392 14.7223 91.3657 14.692L91.3812 14.7135C91.3974 14.6962 91.4456 14.6829 91.4474 14.652C91.4377 14.6718 91.4526 14.6847 91.4708 14.684L91.4767 14.6393C91.5513 14.5885 91.5226 14.6955 91.5974 14.653L91.5485 14.7053C91.5594 14.6939 91.6 14.7172 91.633 14.6906C91.6344 14.6514 91.646 14.6006 91.6487 14.5696C91.6874 14.537 91.6835 14.5989 91.7141 14.5471L91.6723 14.6103C91.668 14.6249 91.7327 14.6498 91.7915 14.6251C91.8248 14.5984 91.8657 14.5265 91.7986 14.5322C91.8284 14.5188 91.8787 14.524 91.8635 14.5573C91.9285 14.5215 91.8409 14.5245 91.8932 14.4825C91.926 14.4963 92.0142 14.5015 92.0714 14.5182L92.0296 14.5963L92.0707 14.5824C92.0339 14.6463 92.1097 14.6075 92.0969 14.6657C92.1273 14.6634 92.1552 14.6355 92.1778 14.6134C92.0697 14.5656 92.2337 14.4765 92.1863 14.4147C92.2949 14.3569 92.3118 14.5579 92.397 14.4124C92.371 14.3996 92.4112 14.3297 92.3444 14.3709C92.4192 14.3579 92.3719 14.286 92.4668 14.2905C92.4121 14.3376 92.5559 14.3428 92.4774 14.4112C92.4763 14.3863 92.4215 14.4082 92.4094 14.4185C92.4477 14.437 92.426 14.4913 92.4986 14.4704C92.541 14.4508 92.6017 14.432 92.5821 14.3975C92.5686 14.3573 92.5152 14.4215 92.5321 14.3721C92.6175 14.332 92.6498 14.3901 92.6668 14.307C92.6118 14.3289 92.5857 14.2913 92.5786 14.2628L92.6404 14.2266L92.6351 14.2576C92.7472 14.2466 92.6535 14.1993 92.7592 14.1769L92.8214 14.2174C92.8083 14.2697 92.6659 14.2393 92.7039 14.3092C92.7718 14.294 92.7832 14.2465 92.8523 14.252L92.8083 14.2786C92.8329 14.2734 92.8819 14.3704 92.9641 14.2902C93.0087 14.2565 92.9711 14.2605 92.9655 14.2318C93.073 14.1997 93.1003 14.1636 93.1701 14.1441C93.1667 14.2029 93.2961 14.1228 93.2289 14.1965C93.1872 14.1714 93.0286 14.2086 93.0023 14.2699C93.0569 14.3272 92.9146 14.2789 92.9078 14.3502C92.9943 14.3334 93.0047 14.3989 93.028 14.4385C93.0526 14.4363 93.0711 14.4135 93.084 14.4038C93.0855 14.3617 93.0543 14.369 93.0433 14.3281C93.1423 14.3184 93.2301 14.2762 93.2767 14.2254C93.3127 14.2384 93.3096 14.2809 93.2724 14.2932C93.3741 14.2604 93.4959 14.2283 93.6018 14.2146C93.5186 14.1676 93.7135 14.1684 93.6543 14.1267C93.5954 14.1271 93.5368 14.0935 93.5601 14.0562C93.5954 14.0512 93.5656 14.085 93.5838 14.095C93.6186 14.0479 93.6661 14.1334 93.6953 14.0663C93.6016 14.1136 93.6959 14.1502 93.6906 14.2058C93.7559 14.1579 93.6971 14.2428 93.7687 14.2235C93.8336 14.1761 93.916 14.1305 93.9927 14.0984C94.1058 14.1194 94.2519 14.0299 94.3431 14.0036C94.3978 14.0164 94.3803 14.0824 94.4347 14.0785C94.4952 14.0612 94.3734 14.0289 94.4702 14.031L94.4648 14.0445C94.4887 14.024 94.6388 14.0396 94.6462 13.9497L94.6329 14.0195C94.6511 14.0208 94.6631 14.0025 94.6757 13.992C94.6813 14.0122 94.7047 14.0255 94.6808 14.046C94.7423 14.0722 94.8029 14.0133 94.8471 13.9854C94.8359 13.9774 94.7958 13.9815 94.8082 13.9637C94.8615 13.9014 94.9655 13.8929 95.0472 13.8372L95.0585 13.8728L95.1108 13.8338C95.1091 13.8716 95.1703 13.8783 95.1925 13.8404C95.15 13.8868 95.1087 13.922 95.0751 13.9738C95.0276 13.9731 95.1001 13.9112 95.0614 13.8897C95.028 13.871 94.945 13.9236 94.9468 13.9625C94.9812 13.9498 94.9792 13.9419 94.9991 13.9169C95.031 13.9586 94.9808 13.9815 94.9719 14.0244C94.9878 14.0144 95.018 14.0167 95.0149 14C94.9924 14.0392 94.9617 14.059 94.9084 14.0871C94.9357 14.0507 94.8736 14.0686 94.8809 14.0487C94.9059 14.0916 94.8016 14.1456 94.7445 14.1423C94.6799 14.1054 94.6137 14.2125 94.5249 14.2211C94.5484 14.1671 94.5842 14.1194 94.6324 14.0871C94.5726 14.0791 94.5723 14.1045 94.5124 14.0963C94.4942 14.1369 94.4887 14.1929 94.424 14.2318L94.4113 14.1997C94.3521 14.2338 94.3652 14.2825 94.2819 14.2946C94.1401 14.3153 93.9935 14.3543 93.8845 14.3791L93.8715 14.3474C93.8306 14.4336 93.6788 14.4266 93.606 14.4795C93.4613 14.4869 93.304 14.5904 93.2288 14.5442C92.9931 14.6157 92.7947 14.6959 92.549 14.757L92.5756 14.698C92.5428 14.7451 92.5391 14.6789 92.4978 14.6982C92.5592 14.7224 92.4531 14.7626 92.4334 14.8032C92.3147 14.8041 92.1906 14.892 92.1086 14.9574L92.0934 14.9268C92.02 15.0173 91.8895 15.0141 91.7674 15.0506C91.7491 15.0429 91.7158 15.022 91.6821 15.0396C91.6395 15.1168 91.604 15.124 91.5255 15.1965C91.458 15.2261 91.3435 15.2622 91.2664 15.2729C91.0446 15.4548 90.7685 15.5324 90.5261 15.6996L90.49 15.6727C90.2708 15.8718 89.933 15.9513 89.7201 16.0964L89.7137 16.0247C89.6366 16.0362 89.5645 16.1111 89.6014 16.1473C89.5241 16.1591 89.4433 16.2542 89.3767 16.2226C89.3012 16.2426 89.3034 16.2899 89.2491 16.3243C89.0979 16.3639 89.0483 16.3926 88.9209 16.4634L88.9555 16.4528C88.9636 16.4325 88.9529 16.4055 88.9182 16.4163C88.8766 16.4559 88.7284 16.4812 88.8118 16.533C88.6485 16.5511 88.5016 16.7203 88.3405 16.7302C88.3614 16.7447 88.3296 16.7653 88.3218 16.7859C88.2019 16.8469 88.0541 16.8697 87.9747 16.9515C87.9508 16.9512 87.9884 16.9027 87.9378 16.925C87.9129 16.9471 87.9507 16.9511 87.9202 16.9802C87.7427 17.1153 87.5059 17.1378 87.3285 17.2399C87.0234 17.439 86.6773 17.6021 86.3647 17.7463L86.3613 17.7301C86.2824 17.835 86.0876 17.7854 86.0429 17.9094C86.0116 17.9067 85.9445 17.9463 85.9503 17.9092C85.8842 17.9887 85.6989 17.9768 85.6004 18.0814L85.6273 18.0597C85.4903 18.0807 85.4022 18.1733 85.2601 18.2004C85.2704 18.1882 85.292 18.1733 85.2893 18.1564C85.2268 18.1499 85.1989 18.2717 85.1398 18.2117C85.1115 18.2249 85.1351 18.257 85.1519 18.2471C84.857 18.3439 84.5806 18.5256 84.2969 18.673C84.0991 18.7194 84.229 18.5568 84.1034 18.69C84.0831 18.6837 84.1081 18.7215 84.0981 18.7083C84.0469 18.761 83.96 18.6828 83.9365 18.7423C83.9773 18.7753 83.921 18.7818 83.9337 18.8081C83.7949 18.8473 83.7493 18.8224 83.6692 18.9074L83.6645 18.8809C83.5838 19.0059 83.4329 19.0437 83.3754 19.1689C82.7507 19.5231 82.1667 19.8901 81.555 20.231C80.9298 20.5436 80.38 20.8932 79.7604 21.2278C79.5858 21.256 79.5762 21.2649 79.4375 21.3827C79.438 21.3697 79.4461 21.3615 79.4306 21.3593C79.452 21.4106 79.3256 21.4307 79.3389 21.4841C79.1141 21.6128 78.9198 21.7523 78.6949 21.8956C78.7274 21.868 78.7212 21.8189 78.6808 21.8487L78.6552 21.9063L78.6398 21.898C78.6153 21.9232 78.5982 21.966 78.6376 21.9621C78.0969 22.3611 77.4826 22.6255 76.9358 22.9918C76.7921 23.0567 76.6154 23.194 76.4784 23.2953C76.0132 23.5043 75.5999 23.6975 75.1846 24.0077C75.1845 24.0083 75.1693 23.8515 75.3327 23.7139Z" fill="#C1C1C1"/>
<path d="M95.2893 13.9347C95.2676 13.9127 95.2086 13.9139 95.2425 13.8664C95.2552 13.8894 95.2889 13.9093 95.2893 13.9347Z" fill="#C1C1C1"/>
<path d="M93.7313 14.1212C93.7313 14.1296 93.7071 14.1161 93.7013 14.113C93.7195 14.1061 93.7307 14.0791 93.7489 14.089C93.7305 14.0959 93.7368 14.1079 93.7313 14.1212Z" fill="#C1C1C1"/>
<path d="M93.3486 14.2051C93.3491 14.18 93.425 14.1397 93.4714 14.1242L93.3486 14.2051Z" fill="#C1C1C1"/>
<path d="M92.9613 14.1871C92.9236 14.1741 92.9301 14.161 92.9755 14.1521C92.9808 14.1639 92.9676 14.1737 92.9613 14.1871Z" fill="#C1C1C1"/>
<path d="M92.9463 14.2464C92.915 14.2536 92.8965 14.2432 92.8778 14.233C92.8836 14.2531 92.9471 14.2046 92.9463 14.2464Z" fill="#C1C1C1"/>
<path d="M92.1241 14.4127C92.1057 14.4211 92.0717 14.4545 92.0454 14.4352C92.0711 14.4461 92.1269 14.3739 92.1241 14.4127Z" fill="#C1C1C1"/>
<path d="M91.7743 14.5786C91.7618 14.5819 91.7557 14.5796 91.7448 14.5914C91.7195 14.5892 91.7353 14.5637 91.7526 14.5544L91.7743 14.5786Z" fill="#C1C1C1"/>
<path d="M85.616 17.5768L85.648 17.5492L85.6525 17.5736L85.616 17.5768Z" fill="#C1C1C1"/>
<path d="M82.9106 18.8897C82.8824 18.9222 82.875 18.8831 82.8676 18.8831C82.8981 18.8636 82.8698 18.9158 82.9106 18.8897Z" fill="#C1C1C1"/>
<path d="M81.5482 19.7637L81.5589 19.7571L81.5789 19.8037L81.5482 19.7637Z" fill="#C1C1C1"/>
<path d="M95.5831 14.7658C95.5851 14.6251 95.5371 14.8331 95.5713 14.6748C95.5903 14.6875 95.6054 14.7207 95.5831 14.7658Z" fill="#C1C1C1"/>
<path d="M74.1834 26.8303C74.3986 26.5913 74.8052 26.5492 75.0674 26.3448C75.0996 26.3243 75.0867 26.4126 75.1579 26.3624C75.4034 26.144 75.8791 26.0009 76.2587 25.917L76.2455 25.9443C76.3174 25.9283 76.3727 25.8326 76.4467 25.8101C76.4524 25.8218 76.4315 25.8372 76.4553 25.8465C76.4569 25.8023 76.5751 25.7734 76.5933 25.7335C76.6271 25.7354 76.6371 25.7653 76.6802 25.7654L76.7022 25.7063C76.7712 25.5591 76.977 25.5925 77.1073 25.474C77.104 25.4868 77.0923 25.5011 77.1086 25.5051C77.3274 25.3375 77.6378 25.2095 77.9003 25.0633C77.8959 25.0826 77.8979 25.1135 77.9213 25.1224C77.9151 25.0732 77.9943 25.0241 78.0638 24.9825C78.1171 25.0115 78.1695 24.8836 78.266 24.8679L78.2632 24.8811C78.3044 24.8053 78.3692 24.8639 78.3942 24.7843L78.4508 24.8003C78.449 24.7252 78.5567 24.7895 78.5943 24.7335L78.5862 24.7214C78.6281 24.6834 78.6687 24.7026 78.7091 24.6708L78.717 24.6755C78.8159 24.6102 78.8932 24.6127 78.8676 24.5661C78.9234 24.5868 78.7734 24.634 78.8588 24.6621C79.1827 24.4421 79.5465 24.275 79.899 24.1062C79.9481 24.1065 79.9767 24.1002 79.9943 24.1143C80.0246 24.0877 80.1224 24.0417 80.1426 24.0017C80.1312 24.0084 80.1772 24.0155 80.197 24.009C80.2695 23.9965 80.2415 23.9224 80.322 23.9103C80.3005 23.9367 80.298 23.9569 80.3165 23.9702C80.3583 23.9038 80.4411 23.8713 80.5063 23.8251C80.499 23.8385 80.4842 23.8514 80.4944 23.8653C80.5514 23.7855 80.6399 23.8066 80.6951 23.7468L80.6829 23.7869C80.8083 23.7677 80.6873 23.7129 80.7912 23.687C80.7728 23.7068 80.7857 23.7141 80.7875 23.7273C80.8511 23.6339 81.0013 23.5812 81.0805 23.5214L81.0824 23.5348C81.175 23.482 81.2827 23.4492 81.3769 23.376C81.4214 23.3695 81.3979 23.4498 81.4941 23.3903C81.4625 23.3364 81.6545 23.2838 81.5634 23.2499C81.6543 23.2163 81.8024 23.1728 81.8493 23.123C81.8216 23.1642 81.9246 23.1691 81.8563 23.211L81.9267 23.2164C81.9298 23.2433 81.8675 23.2378 81.8993 23.2575C81.9334 23.2364 82.0259 23.1602 82.0623 23.1525C82.1107 23.084 82.1387 22.9891 82.2409 22.9265C82.2022 22.9743 82.3009 22.9723 82.272 22.9996L82.3651 22.8166C82.3989 22.7954 82.3953 22.8558 82.4391 22.8146C82.4287 22.8015 82.4461 22.7806 82.4551 22.7609C82.4721 22.7602 82.5947 22.6705 82.6391 22.7164C82.6659 22.7289 82.5874 22.7576 82.6374 22.7563C82.7021 22.7216 82.695 22.7015 82.7599 22.6664L82.7648 22.6731C82.8125 22.6584 82.8794 22.5836 82.8165 22.5786C82.7856 22.5928 82.8458 22.6049 82.7925 22.6125C82.8051 22.5644 82.8779 22.5191 82.9402 22.4805C82.9234 22.5016 82.9337 22.5144 82.9338 22.5347C82.9947 22.442 83.0766 22.3752 83.1612 22.3013C83.148 22.2752 83.1519 22.3682 83.1307 22.3632C83.2719 22.3256 83.351 22.1644 83.4817 22.1547C83.468 22.169 83.4515 22.1246 83.4571 22.1309C83.517 22.0992 83.5364 22.1368 83.5663 22.1008C83.583 22.1195 83.6099 22.0653 83.6446 22.0356C83.6553 22.0083 83.6615 22.0399 83.6285 22.0621C83.6778 22.0093 83.8565 21.8555 84.0265 21.7988C84.0161 21.7859 84.0761 21.7015 84.1062 21.6865L84.1134 21.7266C84.1511 21.7317 84.2098 21.6679 84.2305 21.6938C84.271 21.6177 84.008 21.8654 84.0758 21.786C84.1132 21.8015 84.1645 21.6655 84.1715 21.7214C84.2297 21.6868 84.2662 21.6168 84.3395 21.6162C84.3205 21.6199 84.3175 21.6895 84.3639 21.6602C84.4445 21.6066 84.3788 21.6307 84.4407 21.581L84.4756 21.543C84.46 21.5091 84.553 21.505 84.5013 21.4864C84.527 21.5073 84.6135 21.4009 84.6355 21.4594L84.6485 21.5081C84.6832 21.4846 84.6822 21.4299 84.6999 21.3955C84.707 21.3966 84.7213 21.3995 84.7238 21.4073C84.6917 21.3395 84.8134 21.3637 84.8272 21.2896C84.9154 21.2665 85.0194 21.1767 85.0784 21.1949C85.1246 21.141 85.1638 21.0863 85.2377 21.0604C85.2282 21.0743 85.2115 21.0867 85.2159 21.1028C85.2685 21.0965 85.2685 21.0738 85.3003 21.0404C85.2974 21.0551 85.4055 21.028 85.4649 21.0231C85.5108 20.9695 85.4705 20.947 85.4638 20.9224C85.5542 20.9538 85.6013 20.7844 85.7015 20.8017C85.6867 20.8224 85.6362 20.883 85.6935 20.8703C85.7843 20.9014 85.7718 20.76 85.8751 20.739L85.8228 20.6993C85.88 20.7089 85.9296 20.5937 85.9529 20.6522C85.9702 20.6162 86.0641 20.6091 86.0237 20.5638C86.189 20.523 86.348 20.3333 86.4882 20.3734C86.5033 20.3527 86.5581 20.3315 86.5327 20.3114C86.4825 20.3028 86.4982 20.3597 86.4741 20.3476C86.4912 20.3353 86.4867 20.3189 86.4846 20.3108C86.5349 20.2962 86.5712 20.2795 86.5554 20.3467C86.6703 20.32 86.6047 20.2013 86.742 20.1495C86.7486 20.1739 86.7627 20.1765 86.7973 20.1524L86.8461 20.0761C86.9321 20.0389 86.9199 20.0987 86.9424 20.1339C86.9823 20.1032 87.0361 20.0748 87.0404 20.0365L87.1184 20.0524C87.0617 20.0412 87.142 20.0103 87.157 19.9899L87.142 20.0103C87.1581 20.0212 87.203 19.9833 87.2258 19.9644C87.2069 19.9452 87.1511 19.965 87.1197 19.9743C87.1326 19.9459 87.169 19.93 87.1883 19.8945C87.1982 19.9356 87.2727 19.8798 87.3092 19.8641C87.3532 19.8495 87.3362 19.8067 87.3483 19.8013C87.3599 19.8193 87.4149 19.7677 87.3983 19.8113C87.3878 19.8251 87.3574 19.8108 87.3445 19.8399C87.3775 19.839 87.3923 19.8731 87.4333 19.8187C87.4593 19.7808 87.3967 19.7472 87.4622 19.7392C87.4453 19.7607 87.4725 19.7638 87.4539 19.7913C87.4833 19.7832 87.492 19.7857 87.5276 19.773L87.5108 19.7396C87.5252 19.742 87.5208 19.7488 87.5273 19.7503C87.5285 19.7042 87.6303 19.6755 87.6235 19.6284C87.6571 19.6039 87.7128 19.6056 87.7494 19.5888L87.7446 19.5954C87.7982 19.5894 87.8469 19.544 87.869 19.5016L87.8715 19.5095C87.8959 19.4986 87.9473 19.4615 87.9648 19.4256C88.0373 19.4154 88.0567 19.5349 88.0966 19.4565C88.1548 19.4207 88.1542 19.3434 88.1183 19.3368C88.2369 19.296 88.327 19.1724 88.454 19.1644C88.4621 19.1424 88.4477 19.1398 88.4748 19.1136C88.6379 19.0351 88.7811 18.8788 88.9438 18.8766C88.9056 18.9151 88.959 18.9109 88.9703 18.9287C88.9916 18.8791 89.0323 18.9342 89.0182 18.877C88.9983 18.8497 88.994 18.8332 88.9426 18.8455C89.0281 18.7781 89.1717 18.6999 89.2392 18.6988C89.2054 18.6994 89.2208 18.6794 89.2363 18.6594C89.2554 18.7101 89.3291 18.6791 89.3725 18.6338L89.364 18.6012L89.4146 18.6119C89.4293 18.5916 89.4036 18.5397 89.4707 18.5385L89.503 18.5608C89.5445 18.5077 89.5997 18.4258 89.6717 18.4179L89.7433 18.4335C89.7656 18.415 89.7945 18.3666 89.7437 18.3787C89.8583 18.3489 89.9244 18.3166 89.9761 18.3355C90.1091 18.1562 90.3209 18.0111 90.527 17.889L90.534 17.9137C90.5977 17.9003 90.5385 17.86 90.5835 17.8518C90.579 17.8821 90.6496 17.8699 90.624 17.9199C90.7116 17.8951 90.6971 17.8232 90.7392 17.7836C90.7295 17.7512 90.7117 17.8253 90.699 17.7848C90.7013 17.7698 90.815 17.741 90.8007 17.6925C90.8294 17.6969 90.8341 17.7365 90.8343 17.7597L90.8669 17.7107C90.9527 17.7236 90.7947 17.8771 90.89 17.8995L90.9278 17.8665C90.9945 17.8843 90.8472 17.9856 90.9618 17.9336C90.9947 17.8843 90.9959 17.7997 90.9439 17.8072C91.0317 17.7356 90.9263 17.6811 91.0301 17.62C91.073 17.6267 90.9524 17.6775 90.9929 17.6989C91.0621 17.7018 91.0774 17.6196 91.1274 17.604C91.0704 17.6187 91.0841 17.5516 91.11 17.5247C91.174 17.5113 91.1008 17.585 91.1768 17.5426C91.1739 17.5113 91.2298 17.4507 91.1611 17.4712C91.153 17.4007 91.2467 17.4377 91.2597 17.3708C91.3082 17.3936 91.2404 17.5059 91.333 17.4736C91.297 17.4455 91.4004 17.3614 91.3234 17.3347C91.3612 17.325 91.3832 17.3515 91.3748 17.3882C91.4341 17.382 91.4407 17.2529 91.5023 17.3153L91.4941 17.2685C91.516 17.2718 91.5418 17.268 91.5779 17.2732C91.6182 17.2484 91.6729 17.142 91.706 17.1999C91.7152 17.1863 91.8071 17.1312 91.7471 17.1149C91.6754 17.1274 91.7006 17.1842 91.6349 17.1519C91.7026 17.1691 91.7123 17.0948 91.7355 17.06L91.755 17.0783C91.7688 17.0573 91.8164 17.0339 91.8131 17.0028C91.8068 17.0244 91.8241 17.0345 91.8429 17.0298L91.8417 16.9843C91.9094 16.9181 91.8983 17.03 91.9687 16.9719L91.9274 17.034C91.9363 17.0205 91.9831 17.0346 92.0125 17.0008C92.0065 16.9614 92.0086 16.9075 92.005 16.8761C92.0381 16.8336 92.046 16.8962 92.0667 16.8369L92.0368 16.9105C92.0352 16.9261 92.1064 16.9343 92.1616 16.8941C92.1904 16.8585 92.2166 16.7768 92.1494 16.8002C92.1772 16.7798 92.2287 16.7706 92.2213 16.8077C92.2776 16.7527 92.191 16.7817 92.2334 16.7249C92.269 16.7286 92.358 16.7078 92.4196 16.7066L92.3963 16.7965L92.4346 16.7704C92.4124 16.8444 92.4804 16.7828 92.4814 16.8442C92.5115 16.8323 92.5337 16.796 92.5514 16.7674C92.4292 16.7542 92.5737 16.616 92.5098 16.5707C92.6021 16.481 92.6774 16.6727 92.7199 16.5013C92.6912 16.498 92.7102 16.4158 92.657 16.4795C92.7263 16.4405 92.6583 16.3878 92.7521 16.3591C92.7129 16.4237 92.8554 16.3777 92.7992 16.4714C92.7907 16.4477 92.7431 16.4884 92.7345 16.5027C92.7774 16.5073 92.7714 16.5677 92.8379 16.5211C92.8745 16.4867 92.9291 16.4465 92.899 16.4205C92.8727 16.387 92.8397 16.4678 92.8412 16.4145C92.9132 16.3459 92.964 16.3891 92.9539 16.3042C92.9064 16.3448 92.8687 16.3182 92.8528 16.2935L92.9016 16.2376L92.9064 16.2686C93.0128 16.2183 92.905 16.2072 93.0015 16.149L93.0767 16.1639C93.0824 16.2182 92.9304 16.2405 92.9919 16.2928C93.0538 16.2532 93.0503 16.2069 93.1185 16.1837L93.0853 16.2259C93.1084 16.2129 93.1898 16.2821 93.2399 16.1729C93.2703 16.1228 93.2355 16.1423 93.2197 16.1178C93.3103 16.043 93.3221 15.9987 93.3806 15.9515C93.4014 16.0065 93.4933 15.8793 93.4594 15.9743C93.408 15.9695 93.2712 16.0696 93.2689 16.1378C93.3433 16.1678 93.1879 16.183 93.207 16.2531C93.2851 16.2001 93.3197 16.2568 93.3579 16.2834C93.381 16.2709 93.391 16.2413 93.3998 16.2267C93.3853 16.1873 93.3575 16.2073 93.3311 16.174C93.4237 16.1226 93.4936 16.0458 93.5173 15.9801C93.5581 15.9763 93.5729 16.0156 93.5412 16.0431C93.6366 15.9611 93.7491 15.8885 93.8536 15.8301C93.749 15.8198 93.9869 15.7236 93.8982 15.7161C93.8504 15.728 93.7188 15.7602 93.7539 15.7C93.7888 15.6808 93.7699 15.7245 93.7922 15.7263C93.8728 15.6307 93.8977 15.7277 93.9199 15.645C93.8442 15.7192 93.9441 15.7261 93.9546 15.7813C94.0059 15.7136 93.9704 15.8155 94.0373 15.7728C94.0893 15.706 94.1568 15.637 94.2182 15.5692C94.337 15.5409 94.4406 15.3925 94.5164 15.3221C94.5743 15.3074 94.5849 15.3758 94.6361 15.3457C94.6871 15.3003 94.5558 15.3305 94.6503 15.285L94.6505 15.3003C94.6654 15.2698 94.8207 15.2117 94.7906 15.1264L94.8065 15.1963C94.8247 15.1887 94.8293 15.166 94.837 15.1506C94.8508 15.1663 94.8795 15.1671 94.8643 15.1974C94.9368 15.19 94.9627 15.1077 95.0293 15.0801L94.9729 15.0649C95.0665 14.9873 95.1518 14.9903 95.2388 14.9235L95.255 14.9569L95.297 14.9028C95.3027 14.9414 95.3707 14.9273 95.3765 14.8801C95.3529 14.9382 95.3192 14.9999 95.281 15.0543C95.2272 15.0599 95.306 14.989 95.26 14.973C95.2217 14.9589 95.1382 15.016 95.1373 15.0545C95.175 15.0401 95.1735 15.0327 95.194 15.0058C95.2304 15.0457 95.1752 15.0722 95.1629 15.1163C95.1815 15.1048 95.2158 15.1053 95.2122 15.0885C95.1865 15.1292 95.1489 15.1535 95.0875 15.1834C95.1208 15.1452 95.0508 15.1653 95.0603 15.1444C95.0618 15.2026 95.0386 15.2028 94.9668 15.2549C94.8879 15.2517 94.8675 15.3806 94.7843 15.4304C94.7843 15.3705 94.7999 15.3102 94.8337 15.2578C94.7718 15.2793 94.7819 15.3023 94.7195 15.3238C94.7185 15.3686 94.737 15.4229 94.6893 15.491L94.6643 15.4679C94.6204 15.5287 94.653 15.5671 94.576 15.6204C94.4387 15.7078 94.3141 15.8185 94.203 15.8804L94.1801 15.8553C94.1512 15.9612 94.0078 15.9925 93.9538 16.0735C93.8081 16.136 93.6983 16.2929 93.5989 16.2912C93.3911 16.4694 93.2104 16.6276 92.9721 16.7801L92.9826 16.7123C92.9622 16.7712 92.9395 16.7081 92.9029 16.7425C92.9725 16.742 92.8761 16.8241 92.8648 16.8691C92.7397 16.9101 92.6315 17.0374 92.5594 17.1303L92.5368 17.1047C92.4802 17.2222 92.3384 17.254 92.2178 17.3257C92.1964 17.3226 92.1569 17.3097 92.124 17.3353C92.0898 17.4218 92.0541 17.4399 91.9785 17.5286C91.9095 17.5724 91.79 17.6323 91.7084 17.6591C91.4906 17.8887 91.1988 18.0155 90.9531 18.2264L90.9127 18.2047C90.7041 18.4389 90.3241 18.5939 90.1131 18.7478L90.1027 18.6757C90.0205 18.6969 89.9464 18.7816 89.9883 18.8138C89.9054 18.835 89.8227 18.9416 89.7502 18.9177C89.6699 18.9471 89.6746 18.9948 89.6173 19.0365C89.4565 19.0947 89.4042 19.1301 89.2709 19.2176L89.3075 19.2023C89.3156 19.1806 89.3029 19.1547 89.2656 19.17C89.223 19.2154 89.0647 19.2589 89.1568 19.3015C88.9818 19.3396 88.8346 19.5335 88.66 19.5605C88.6826 19.5726 88.6493 19.5976 88.642 19.6192C88.5145 19.6952 88.3571 19.7357 88.2747 19.8284C88.2487 19.8307 88.2876 19.7767 88.2344 19.8055C88.208 19.8311 88.2487 19.8307 88.2172 19.8639C88.025 20.0244 87.7911 20.0678 87.5775 20.2021C87.2615 20.4345 86.8968 20.6045 86.5808 20.8085L86.5763 20.7923C86.5007 20.9105 86.291 20.889 86.2538 21.0213C86.2201 21.0232 86.1531 21.0732 86.1557 21.0349C86.0929 21.1241 85.8946 21.1434 85.7989 21.2663L85.8257 21.24C85.6811 21.2847 85.5958 21.3938 85.4464 21.4455C85.4562 21.4314 85.478 21.4122 85.4735 21.3959C85.4062 21.3999 85.3878 21.5282 85.3193 21.4774C85.2898 21.4956 85.3184 21.5239 85.3353 21.5112C85.0321 21.6624 84.7372 21.8812 84.4375 22.0736C84.1934 22.1579 84.3601 21.9649 84.214 22.1154C84.1923 22.1101 84.2178 22.1477 84.2079 22.1348C84.149 22.1927 84.0852 22.1053 84.0476 22.175C84.0925 22.2042 84.0315 22.2163 84.0458 22.2419C83.8951 22.2957 83.8453 22.2746 83.7593 22.369L83.7541 22.3427C83.6682 22.4779 83.5049 22.5309 83.4422 22.6652C82.7632 23.082 82.1025 23.4683 81.4148 23.812C80.7224 24.135 80.0719 24.4797 79.3621 24.7783C79.17 24.798 79.1587 24.8055 78.9916 24.9175C78.9944 24.9042 79.0042 24.8965 78.9882 24.8932C79.0031 24.9473 78.8641 24.9589 78.8694 25.0137C78.6059 25.1257 78.3745 25.2537 78.1071 25.376C78.1472 25.3514 78.1495 25.301 78.1007 25.3272L78.0632 25.383L78.0479 25.3727C78.0168 25.3962 77.9903 25.4378 78.0336 25.4375C77.3812 25.7901 76.6718 25.9781 76.0188 26.2809C75.8531 26.3287 75.639 26.4458 75.4733 26.5308C74.9417 26.686 74.4651 26.8358 73.9795 27.1144C73.9802 27.1147 73.9873 26.9559 74.1834 26.8303Z" fill="#C1C1C1"/>
<path d="M95.5193 14.9057C95.4813 14.9054 95.4217 14.941 95.4354 14.8778C95.4579 14.8919 95.506 14.8851 95.5193 14.9057Z" fill="#C1C1C1"/>
<path d="M93.9703 15.6844C93.9728 15.6925 93.9457 15.6871 93.939 15.686C93.9545 15.6737 93.9572 15.6449 93.9773 15.6487C93.962 15.6609 93.9716 15.6701 93.9703 15.6844Z" fill="#C1C1C1"/>
<path d="M93.5887 15.9249C93.58 15.9018 93.644 15.8329 93.6872 15.7992L93.5887 15.9249Z" fill="#C1C1C1"/>
<path d="M93.1978 16.0778C93.157 16.0811 93.1586 16.0664 93.1973 16.0396C93.208 16.0483 93.1989 16.0626 93.1978 16.0778Z" fill="#C1C1C1"/>
<path d="M93.2059 16.1392C93.179 16.159 93.1571 16.1569 93.1356 16.1551C93.1488 16.1712 93.1915 16.0999 93.2059 16.1392Z" fill="#C1C1C1"/>
<path d="M92.4464 16.5865C92.4306 16.6002 92.4047 16.6428 92.3734 16.6319C92.4021 16.6351 92.4396 16.5478 92.4464 16.5865Z" fill="#C1C1C1"/>
<path d="M92.1338 16.8525C92.1219 16.859 92.115 16.8583 92.1063 16.8728C92.0801 16.8776 92.0913 16.8477 92.1069 16.8343L92.1338 16.8525Z" fill="#C1C1C1"/>
<path d="M85.7693 20.7524L85.8015 20.7187L85.8082 20.7429L85.7693 20.7524Z" fill="#C1C1C1"/>
<path d="M82.952 22.4162C82.9221 22.452 82.9149 22.4122 82.9067 22.4126C82.9391 22.3901 82.9089 22.4462 82.952 22.4162Z" fill="#C1C1C1"/>
<path d="M81.4461 23.3363L81.458 23.3297L81.4763 23.3771L81.4461 23.3363Z" fill="#C1C1C1"/>
<path d="M93.8256 12.9567C93.9054 12.9441 93.7837 12.9152 93.8787 12.9369C93.8657 12.9566 93.8502 12.9718 93.8256 12.9567Z" fill="#C1C1C1"/>
<path d="M72.5793 23.1195C72.7414 22.8523 73.1238 22.7457 73.3355 22.5023C73.3629 22.4772 73.3673 22.5653 73.426 22.5051C73.6199 22.2523 74.0489 22.0336 74.3981 21.8944L74.3905 21.9232C74.4567 21.8965 74.4923 21.7944 74.5595 21.7613C74.567 21.772 74.5496 21.79 74.5742 21.7956C74.5681 21.7522 74.6764 21.7066 74.6865 21.6645C74.72 21.6612 74.7341 21.689 74.7759 21.6828L74.7866 21.6218C74.827 21.4675 75.0314 21.471 75.137 21.3367C75.1359 21.3499 75.1272 21.3653 75.1433 21.3668C75.3254 21.171 75.6044 21.005 75.8354 20.8274C75.8341 20.847 75.8407 20.8771 75.865 20.883C75.8511 20.8353 75.9201 20.7766 75.9801 20.7266C76.0357 20.7486 76.068 20.6169 76.1589 20.5901L76.158 20.6031C76.1872 20.5238 76.2582 20.5735 76.2707 20.4925L76.3275 20.5012C76.3148 20.4278 76.4285 20.4783 76.4564 20.4185L76.4473 20.4077C76.4822 20.365 76.524 20.3793 76.5585 20.3431L76.5666 20.3473C76.6527 20.2701 76.7281 20.2664 76.6982 20.2224C76.7548 20.2368 76.615 20.2994 76.7021 20.3177C76.9902 20.0719 77.3263 19.8779 77.6465 19.6774C77.6941 19.6732 77.7208 19.6644 77.7394 19.677C77.7661 19.6478 77.8555 19.5936 77.8703 19.5521C77.8601 19.5596 77.9054 19.5627 77.9236 19.5544C77.9922 19.5354 77.9566 19.464 78.0344 19.4467C78.0156 19.474 78.0159 19.4941 78.0348 19.5061C78.0688 19.4377 78.1466 19.4 78.2057 19.3502C78.1998 19.3638 78.1866 19.3777 78.1982 19.3907C78.2456 19.3081 78.334 19.3228 78.3819 19.2602L78.3742 19.3005C78.4944 19.274 78.3712 19.2275 78.4701 19.1956C78.4539 19.2163 78.4673 19.2223 78.4701 19.2354C78.5233 19.1389 78.6655 19.0779 78.7374 19.0137L78.7404 19.0269C78.8256 18.9688 78.9273 18.9296 79.013 18.8513C79.0553 18.8424 79.0388 18.9238 79.1272 18.859C79.0931 18.8068 79.2747 18.7434 79.1845 18.7145C79.2696 18.6757 79.4124 18.6289 79.4563 18.5803C79.431 18.6208 79.533 18.6251 79.4674 18.6663L79.5372 18.6719C79.5415 18.6979 79.4799 18.6926 79.5119 18.7119C79.5445 18.6912 79.632 18.6164 79.6675 18.609C79.7125 18.5417 79.7363 18.4478 79.8355 18.3859C79.7987 18.433 79.8956 18.4314 79.8679 18.4582L79.9543 18.2767C79.9874 18.2557 79.9851 18.3158 80.0267 18.2751C80.0165 18.2621 80.033 18.2412 80.0419 18.2215C80.0583 18.2209 80.1771 18.1314 80.2203 18.1777C80.2463 18.1907 80.1705 18.2188 80.2185 18.2178C80.2812 18.1836 80.2741 18.1635 80.3368 18.1286L80.342 18.1352C80.3875 18.121 80.4527 18.0463 80.392 18.0406C80.3619 18.0546 80.4195 18.0674 80.3686 18.0745C80.3818 18.0272 80.4504 17.9789 80.5134 17.9447C80.4965 17.9647 80.5062 17.978 80.5058 17.998C80.5683 17.9097 80.6552 17.8544 80.743 17.7888C80.7315 17.7621 80.7304 17.8536 80.7095 17.8467C80.8516 17.823 80.9407 17.6718 81.0704 17.6751C81.0555 17.6877 81.0433 17.642 81.048 17.649C81.1095 17.6232 81.1253 17.6627 81.1572 17.6299C81.1718 17.6501 81.203 17.5989 81.2398 17.5728C81.2531 17.5468 81.2556 17.5789 81.2219 17.598C81.2687 17.5522 81.4772 17.4096 81.6218 17.3799C81.6121 17.3663 81.6763 17.2871 81.7072 17.2744L81.7114 17.3147C81.7478 17.3225 81.8094 17.2637 81.8278 17.2913C81.8723 17.2183 81.5995 17.445 81.6711 17.371C81.7063 17.3894 81.7651 17.2581 81.7684 17.3143C81.8284 17.2837 81.8624 17.2194 81.9363 17.2233C81.9171 17.2257 81.911 17.2946 81.9575 17.269C82.0388 17.2216 81.9733 17.2408 82.0364 17.196L82.0723 17.161C82.0589 17.1261 82.1495 17.1289 82.1001 17.1066C82.1235 17.1293 82.214 17.0303 82.232 17.09L82.2415 17.1395C82.2763 17.1186 82.2787 17.0641 82.2978 17.0312C82.3046 17.0329 82.3182 17.037 82.3199 17.0451C82.2929 16.9751 82.4093 17.0083 82.4272 16.9356C82.5145 16.9218 82.6212 16.8437 82.678 16.8675C82.7262 16.8176 82.767 16.7666 82.8403 16.747C82.83 16.7601 82.8131 16.7712 82.8163 16.7875C82.8681 16.7857 82.8692 16.7628 82.9017 16.7326C82.8984 16.7468 83.0048 16.7287 83.063 16.7284C83.1105 16.6791 83.0726 16.6536 83.0671 16.6287C83.1531 16.6673 83.2084 16.503 83.305 16.5285C83.2895 16.5476 83.2373 16.6038 83.2935 16.5955C83.3799 16.6336 83.375 16.4927 83.4763 16.4805L83.4275 16.437C83.4828 16.4514 83.5359 16.3406 83.5562 16.4005C83.5744 16.3662 83.6655 16.3661 83.6283 16.3182C83.7912 16.2902 83.9538 16.114 84.0886 16.1641C84.1041 16.1449 84.1586 16.1278 84.1345 16.1062C84.086 16.0941 84.0991 16.1513 84.0762 16.1377C84.0935 16.1267 84.0899 16.1101 84.088 16.102C84.1377 16.0915 84.1736 16.0774 84.1553 16.1428C84.2688 16.1251 84.2077 16.0007 84.3423 15.9581C84.3481 15.9829 84.3621 15.9863 84.3964 15.9642L84.4452 15.8917C84.53 15.8595 84.5166 15.9183 84.5379 15.9542C84.5769 15.9261 84.63 15.9012 84.6352 15.8634L84.7109 15.8834C84.6559 15.8692 84.7345 15.8431 84.7503 15.8238L84.7346 15.8431C84.7506 15.8549 84.7949 15.82 84.8178 15.8025C84.8 15.7825 84.7449 15.7989 84.7141 15.8064C84.7274 15.7789 84.7635 15.7653 84.7823 15.7313C84.7915 15.7724 84.8656 15.7214 84.9015 15.7077C84.9443 15.6959 84.9287 15.6527 84.9408 15.6483C84.9516 15.6666 85.0063 15.6187 84.9891 15.661C84.9789 15.674 84.9494 15.658 84.9357 15.6861C84.9687 15.6869 84.9822 15.7215 85.0237 15.6701C85.0545 15.6316 84.9764 15.6025 85.0649 15.588C85.0496 15.607 85.0527 15.6232 85.0438 15.6442L85.1259 15.6281L85.112 15.5933C85.1262 15.597 85.1208 15.6032 85.1276 15.6054C85.1315 15.5598 85.2325 15.5411 85.2292 15.4935C85.2642 15.4723 85.3176 15.4795 85.3544 15.4663L85.3489 15.4727C85.4013 15.4716 85.4516 15.4315 85.4762 15.3913L85.4779 15.3997C85.5026 15.3909 85.5551 15.3589 85.575 15.325C85.6456 15.322 85.6549 15.4427 85.7 15.3689C85.7586 15.3389 85.764 15.2618 85.7299 15.2517C85.8464 15.2209 85.9477 15.1145 86.0726 15.1213C86.0823 15.1006 86.068 15.0963 86.0968 15.0741C86.2633 15.0167 86.4194 14.8838 86.5759 14.8951C86.5355 14.93 86.5872 14.9309 86.5964 14.9499C86.6219 14.9024 86.6556 14.9617 86.6476 14.9028C86.6305 14.8734 86.6284 14.8566 86.578 14.8641C86.6662 14.8039 86.818 14.7506 86.8829 14.7577C86.8501 14.7536 86.8674 14.7361 86.8851 14.7185C86.8978 14.7711 86.9727 14.751 87.0207 14.7123L87.0168 14.6788L87.0641 14.6965C87.0815 14.6788 87.0629 14.6236 87.1284 14.6321L87.1569 14.6589C87.2039 14.6121 87.2683 14.5389 87.3396 14.5412L87.4061 14.5668C87.4304 14.552 87.4651 14.508 87.4145 14.5125C87.5281 14.4973 87.6004 14.4842 87.6468 14.5111C87.7985 14.3572 88.0679 14.2673 88.2849 14.206L88.2855 14.2316C88.3496 14.2354 88.3036 14.181 88.3488 14.1845C88.3366 14.213 88.4065 14.2196 88.369 14.2614C88.4437 14.2655 88.4546 14.1863 88.4992 14.1592C88.4971 14.1258 88.4645 14.1936 88.4618 14.1514C88.4667 14.1374 88.5794 14.1357 88.576 14.0851C88.6019 14.0961 88.598 14.1355 88.5939 14.158L88.6342 14.1183C88.7125 14.1506 88.5322 14.2633 88.6171 14.3068L88.6595 14.2838C88.7193 14.3164 88.5587 14.381 88.678 14.3567C88.7193 14.3164 88.7381 14.2344 88.6872 14.2299C88.785 14.1805 88.6963 14.1033 88.8066 14.0679C88.8459 14.084 88.7217 14.1059 88.7559 14.1361C88.8207 14.1545 88.8521 14.0782 88.9019 14.0746C88.845 14.0757 88.8715 14.0139 88.9012 13.9936C88.9642 13.9952 88.8807 14.0499 88.9609 14.0265C88.964 13.9952 89.0293 13.9497 88.9601 13.9537C88.9662 13.8838 89.0474 13.9408 89.0726 13.8793C89.1142 13.9122 89.0283 14.0056 89.1224 13.9953C89.0937 13.96 89.2079 13.902 89.1401 13.8588C89.1779 13.858 89.1936 13.8886 89.1785 13.9223C89.2361 13.9305 89.2673 13.8058 89.3137 13.8793L89.3146 13.8316C89.3347 13.8391 89.3604 13.8408 89.3936 13.8535C89.4365 13.8378 89.5092 13.7443 89.5294 13.8082C89.5403 13.7965 89.6387 13.7614 89.5847 13.7331C89.5144 13.7303 89.5274 13.7915 89.4715 13.7463C89.5322 13.7773 89.5561 13.7063 89.5849 13.6768L89.5999 13.6987C89.6168 13.6811 89.6669 13.668 89.6698 13.6368C89.6591 13.6569 89.6738 13.6699 89.6926 13.6695L89.7003 13.6244C89.7778 13.5731 89.7452 13.6809 89.8232 13.6382L89.7719 13.691C89.7829 13.6794 89.8243 13.7029 89.8594 13.6762C89.8616 13.6368 89.8747 13.5857 89.8778 13.5545C89.9185 13.5219 89.9131 13.5841 89.9456 13.5322L89.9014 13.5957C89.8967 13.6102 89.9628 13.6351 90.0245 13.6101C90.0594 13.5832 90.102 13.5112 90.0327 13.5171C90.0635 13.5045 90.1151 13.5081 90.0997 13.5419C90.166 13.5032 90.0761 13.5094 90.1296 13.4656C90.1635 13.4783 90.2546 13.4806 90.3141 13.4955L90.2714 13.5754L90.3141 13.5602C90.2763 13.6255 90.3554 13.5838 90.342 13.6427C90.3743 13.6392 90.4029 13.6102 90.4267 13.5872C90.3128 13.5431 90.4829 13.4478 90.4321 13.388C90.5425 13.3251 90.5677 13.5292 90.6496 13.3751C90.6232 13.3646 90.6615 13.2903 90.5947 13.338C90.6704 13.3182 90.6187 13.2498 90.7155 13.2462C90.6624 13.2987 90.8091 13.2913 90.7326 13.367C90.7305 13.342 90.6749 13.3688 90.6631 13.3802C90.7031 13.3959 90.6828 13.4525 90.7569 13.4249C90.7998 13.4015 90.8615 13.3768 90.8393 13.3438C90.8233 13.3048 90.7716 13.3739 90.7866 13.3229C90.8718 13.2752 90.9083 13.3303 90.9206 13.2455C90.8657 13.2725 90.8364 13.2366 90.828 13.2088L90.8888 13.1674L90.8852 13.1986C90.9992 13.1784 90.8991 13.1381 91.0067 13.1083L91.075 13.1449C91.0641 13.1964 90.9147 13.1772 90.9594 13.2445C91.0273 13.2217 91.0377 13.1778 91.1096 13.1764L91.066 13.2064C91.0918 13.2009 91.1497 13.2909 91.2284 13.2028C91.2717 13.1646 91.2331 13.1723 91.2251 13.1442C91.3338 13.1008 91.358 13.0621 91.4281 13.0352C91.4306 13.094 91.5564 13.0007 91.4948 13.0812C91.4486 13.0608 91.2884 13.1145 91.2661 13.1784C91.3278 13.2297 91.176 13.1966 91.1745 13.2688C91.2634 13.2427 91.2801 13.3069 91.3075 13.3439C91.3329 13.3393 91.3506 13.3141 91.3633 13.3032C91.3609 13.2613 91.3291 13.2717 91.314 13.232C91.4161 13.2117 91.5041 13.1603 91.547 13.105C91.5859 13.1138 91.5874 13.1563 91.5494 13.1725C91.6631 13.124 91.7902 13.0899 91.9048 13.067C91.8018 13.0253 92.042 13.0126 91.9796 12.9739C91.8792 12.9795 91.8412 12.9491 91.8583 12.9099C91.8973 12.9022 91.8649 12.9385 91.8845 12.9473C91.9197 12.8955 92.0123 12.9779 92.0302 12.9174C91.923 12.956 92.0224 13.0009 92.0109 13.0557C92.0856 13.0142 92.0137 13.0929 92.0924 13.0805C92.1668 13.0396 92.2604 13.0018 92.3467 12.9769C92.4648 13.0083 92.6273 12.9338 92.7239 12.9166C92.7794 12.9346 92.7535 12.9985 92.8111 13.0001C92.8759 12.9888 92.7526 12.9448 92.8536 12.9561L92.8457 12.9693C92.8728 12.9514 93.0298 12.9813 93.0445 12.893L93.0251 12.9607C93.0444 12.9638 93.0584 12.9465 93.072 12.9374C93.0764 12.9581 93.1006 12.9733 93.0735 12.9916C93.1403 13.0247 93.1989 12.9674 93.2616 12.9507L93.2145 12.9222C93.314 12.8699 93.3919 12.8898 93.4964 12.8463L93.5026 12.8829L93.5611 12.8458C93.5539 12.8839 93.6168 12.8951 93.6454 12.859L93.5023 12.9844C93.4519 12.9755 93.5398 12.9275 93.5027 12.8998C93.4703 12.8751 93.3755 12.9136 93.3688 12.9502C93.4077 12.9456 93.4068 12.9362 93.4323 12.9155C93.4575 12.9618 93.4025 12.9762 93.3811 13.0159C93.4017 13.0092 93.4337 13.0168 93.4331 12.9998C93.4024 13.0347 93.3598 13.0476 93.2925 13.0649C93.3344 13.0344 93.2615 13.0393 93.276 13.0209C93.2794 13.0681 93.2177 13.0934 93.1345 13.0928C93.0679 13.0498 92.9877 13.15 92.8909 13.1503C92.9226 13.0987 92.9648 13.0548 93.0187 13.0274C92.9563 13.0138 92.9535 13.0389 92.891 13.0253C92.868 13.0635 92.8557 13.1188 92.7818 13.1515L92.7726 13.1185C92.7055 13.1468 92.7127 13.1967 92.6225 13.2009C92.4693 13.2081 92.3141 13.2324 92.1981 13.2461L92.1881 13.2133C92.1275 13.2963 91.99 13.2673 91.9144 13.3329C91.7644 13.3457 91.6183 13.4599 91.5285 13.4269C91.2866 13.5272 91.0787 13.6217 90.8212 13.7095L90.847 13.6472C90.8141 13.6984 90.8076 13.6316 90.7652 13.6553C90.8302 13.6729 90.7208 13.7264 90.7 13.7664C90.5734 13.7727 90.4423 13.8664 90.3545 13.9358L90.3386 13.9056C90.2603 14.0026 90.1188 13.9989 89.9888 14.038C89.9687 14.0305 89.9345 14.0095 89.8981 14.0277C89.8496 14.1057 89.8123 14.1158 89.7237 14.187C89.6502 14.2156 89.526 14.2493 89.4434 14.2584C89.1912 14.434 88.8853 14.4901 88.6078 14.6398L88.5743 14.6096C88.3001 14.7893 87.946 14.8185 87.7163 14.9377L87.717 14.8659C87.6339 14.8679 87.5533 14.9429 87.5883 14.9808C87.5074 14.9895 87.4157 15.0824 87.3496 15.0476C87.2693 15.0649 87.2682 15.1126 87.2091 15.1451C87.0487 15.1788 86.9945 15.2058 86.8574 15.272L86.8944 15.2625C86.9042 15.2426 86.8947 15.2153 86.8574 15.2249C86.8105 15.2605 86.6576 15.2911 86.7411 15.3422C86.5733 15.3647 86.4089 15.5303 86.238 15.5361C86.2594 15.551 86.2245 15.571 86.2152 15.5914C86.0848 15.6477 85.9292 15.6715 85.8428 15.7567C85.8177 15.7564 85.8591 15.7064 85.8056 15.7299C85.7781 15.7527 85.8176 15.7564 85.7843 15.7863C85.5939 15.9258 85.3418 15.9509 85.157 16.0568C84.8407 16.268 84.4806 16.4255 84.1617 16.6019L84.1577 16.5854C84.0784 16.6971 83.8752 16.6608 83.8323 16.7891C83.7999 16.7886 83.7316 16.8335 83.7362 16.7955C83.6705 16.8797 83.4751 16.8832 83.3755 16.9973L83.4031 16.9733C83.2603 17.006 83.1712 17.1071 83.0231 17.1463C83.033 17.1332 83.0555 17.1161 83.0521 17.0993C82.9866 17.0977 82.9611 17.2236 82.8974 17.1677C82.868 17.1835 82.894 17.2138 82.9112 17.2026C82.6014 17.3217 82.3122 17.5173 82.0043 17.687C81.7673 17.749 81.9363 17.5728 81.7888 17.7089C81.7682 17.702 81.7914 17.7412 81.7817 17.7274C81.7247 17.7796 81.641 17.6977 81.6122 17.7572C81.6519 17.792 81.593 17.7967 81.6042 17.8238C81.4575 17.8597 81.412 17.8333 81.3222 17.9172L81.3191 17.8902C81.2268 18.0145 81.067 18.0486 80.9997 18.1732C80.3329 18.5247 79.7171 18.906 79.086 19.2831C78.4459 19.6302 77.8553 20.0311 77.2055 20.3889C77.0235 20.4232 77.0097 20.4329 76.8674 20.5545C76.8679 20.5412 76.8766 20.5325 76.8604 20.5311C76.8823 20.5824 76.7501 20.6088 76.763 20.6626C76.5266 20.8038 76.3217 20.9544 76.0842 21.1086C76.1187 21.0791 76.1133 21.0294 76.0706 21.0613L76.0426 21.1209L76.0266 21.1129C76.0007 21.1395 75.982 21.1838 76.0232 21.1783C75.4517 21.6047 74.8053 21.8901 74.2367 22.2873C74.0869 22.3599 73.9041 22.5084 73.7619 22.6185C73.2818 22.8566 72.8531 23.0807 72.4373 23.4301C72.4366 23.4299 72.4142 23.2733 72.5793 23.1195Z" fill="#C1C1C1"/>
<path d="M93.7299 12.9621C93.7109 12.9339 93.6492 12.9337 93.6914 12.8877C93.7013 12.9104 93.7333 12.9368 93.7299 12.9621Z" fill="#C1C1C1"/>
<path d="M92.0623 12.9728C92.0614 12.9814 92.0371 12.9656 92.0314 12.9621C92.0511 12.9569 92.0661 12.9312 92.0847 12.9426C92.0641 12.9479 92.0695 12.96 92.0623 12.9728Z" fill="#C1C1C1"/>
<path d="M91.629 13.0735C91.6281 13.0484 91.7102 13.0025 91.761 12.9834L91.629 13.0735Z" fill="#C1C1C1"/>
<path d="M91.2146 13.0991C91.1748 13.0901 91.1799 13.0762 91.2253 13.0627C91.2332 13.074 91.2201 13.0849 91.2146 13.0991Z" fill="#C1C1C1"/>
<path d="M91.2051 13.1596C91.1737 13.1701 91.1534 13.1615 91.1331 13.1531C91.1414 13.1726 91.2027 13.1179 91.2051 13.1596Z" fill="#C1C1C1"/>
<path d="M90.3671 13.3866C90.3482 13.3956 90.3138 13.4303 90.2859 13.4117C90.3128 13.4216 90.3695 13.3477 90.3671 13.3866Z" fill="#C1C1C1"/>
<path d="M90.0058 13.5633C89.9936 13.5664 89.987 13.5642 89.9757 13.5759C89.9496 13.574 89.9665 13.5484 89.9839 13.5389L90.0058 13.5633Z" fill="#C1C1C1"/>
<path d="M83.3727 16.4848L83.4053 16.4544L83.4109 16.4789L83.3727 16.4848Z" fill="#C1C1C1"/>
<path d="M80.5273 17.8825C80.4954 17.9147 80.4904 17.8757 80.4825 17.8757C80.5153 17.8556 80.4826 17.9082 80.5273 17.8825Z" fill="#C1C1C1"/>
<path d="M79.0774 18.8075L79.0884 18.8001L79.1094 18.8462L79.0774 18.8075Z" fill="#C1C1C1"/>
<path d="M54.0729 43.6164C54.0729 43.6164 52.3941 35.8291 58.5598 30.5514C58.5598 30.5514 60.1502 38.3325 54.0729 43.6164Z" fill="#BF9847"/>
<path d="M55.2685 41.0931C55.2824 40.8865 55.1682 40.7098 55.0129 40.6993C54.8578 40.6885 54.7203 40.8476 54.7061 41.0548C54.6919 41.2622 54.8064 41.4387 54.9613 41.4495C55.1169 41.4598 55.2544 41.3006 55.2685 41.0931Z" fill="#806530"/>
<path d="M55.1428 38.6552C55.1568 38.4479 55.0425 38.2715 54.8874 38.2608C54.7316 38.2504 54.5944 38.4096 54.5802 38.617C54.5662 38.824 54.6806 39.0007 54.8362 39.0112C54.9909 39.0218 55.1288 38.8623 55.1428 38.6552Z" fill="#806530"/>
<path d="M57.8905 33.0868C57.9049 32.8796 57.7901 32.7032 57.6353 32.6925C57.4795 32.6818 57.3423 32.8412 57.328 33.0486C57.314 33.2556 57.4282 33.4321 57.5841 33.4426C57.7394 33.4532 57.8767 33.294 57.8905 33.0868Z" fill="#806530"/>
<path d="M57.9536 35.9735C57.9679 35.7663 57.8538 35.5899 57.6983 35.5793C57.5427 35.5685 57.4053 35.728 57.3909 35.9352C57.3773 36.1422 57.4912 36.319 57.6467 36.3294C57.8026 36.3399 57.9398 36.1808 57.9536 35.9735Z" fill="#806530"/>
<path d="M56.4001 37.0801C56.4137 36.873 56.2992 36.6961 56.1437 36.6855C55.9886 36.675 55.8513 36.8343 55.8371 37.0415C55.8228 37.2487 55.9375 37.4252 56.0926 37.436C56.2479 37.4464 56.3858 37.2872 56.4001 37.0801Z" fill="#806530"/>
<path d="M56.3508 35.1406C56.3647 34.9333 56.2504 34.7568 56.0952 34.7461C55.9398 34.7357 55.8021 34.8952 55.7882 35.1025C55.7743 35.3091 55.8884 35.4858 56.0436 35.4962C56.1992 35.5068 56.3367 35.3475 56.3508 35.1406Z" fill="#806530"/>
<path d="M56.4634 39.152C56.4777 38.9449 56.3629 38.7682 56.2078 38.7579C56.0523 38.7472 55.9155 38.9066 55.9008 39.1135C55.8873 39.3209 56.0013 39.4973 56.1567 39.5078C56.3117 39.5184 56.4491 39.3592 56.4634 39.152Z" fill="#806530"/>
<path d="M54.1572 57.1285C46.7328 61.4186 47.9399 68.302 52.1093 68.352C58.1675 68.4248 56.2287 62.3116 54.1572 57.1285Z" fill="white"/>
<path d="M52.0857 44.7721C47.2888 49.5318 45.9696 52.9901 49.1972 53.8901C52.9793 54.9447 52.2475 49.2585 52.0857 44.7721Z" fill="white"/>
<path d="M43.7201 52.0209C36.2894 54.7467 36.7065 62.0374 40.5553 62.0318C46.3517 62.0228 43.6779 57.1778 43.7201 52.0209Z" fill="white"/>
</svg>
