<svg width="143" height="94" viewBox="0 0 143 94" fill="none" xmlns="http://www.w3.org/2000/svg">
<path d="M107.72 110.282C95.1481 132.247 67.5409 141.06 44.3875 129.904C26.3493 121.214 16.1052 102.856 16.876 84.0474C24.7358 80.0605 36.0683 81.37 43.5029 86.7013C50.2042 91.5077 55.8657 99.1622 62.0772 104.633C68.6326 110.406 75.9826 113.909 84.7603 114.405C92.6185 114.85 99.7675 113.898 107.72 110.282Z" fill="url(#paint0_linear_320_2238)"/>
<path d="M109.349 107.185C108.838 108.244 108.294 109.277 107.719 110.282C100.475 114.246 92.3491 116.161 84.4909 115.716C75.7132 115.22 67.3088 111.783 60.7534 106.009C54.5419 100.539 49.9974 93.0836 43.296 88.2773C35.8614 82.946 25.9891 81.4542 16.8746 84.0469C17.1389 77.6083 18.6938 71.1156 21.6689 64.9407C22.523 63.168 23.4832 61.4518 24.5392 59.7897C29.8974 58.2688 37.4814 59.1443 42.9893 61.5526C53.4408 66.123 60.6828 75.3555 72.0209 76.6072C80.298 77.5207 89.8396 74.1964 98.0568 75.5444C105.019 76.6861 110.413 82.3867 114.306 87.9126C113.702 94.7642 112.17 101.329 109.349 107.185Z" fill="url(#paint1_linear_320_2238)"/>
<path d="M114.308 87.913C109.894 82.2794 104.147 77.5594 97.1848 76.4177C88.9675 75.0698 80.6361 78.9352 72.359 78.0218C61.021 76.7702 52.6132 67.1014 42.1618 62.5311C36.6539 60.1228 30.5216 59.2041 24.5413 59.7902C31.8289 48.3099 43.6101 39.4419 55.6784 32.8003C57.6928 32.8851 60.3166 33.516 61.9461 34.5785C66.8081 37.7498 70.4525 43.4962 74.1825 47.9444C77.9125 52.3926 81.3162 55.844 86.7968 57.7571C92.3858 59.709 98.3299 59.2112 104.143 60.3335C107.459 60.9736 110.906 62.1693 113.378 64.4888C114.506 72.2606 114.985 80.265 114.308 87.913Z" fill="url(#paint2_linear_320_2238)"/>
<path d="M113.377 64.489C110.55 62.6412 107.371 61.3319 104.055 60.6919C98.242 59.5695 92.0718 60.428 86.4827 58.476C81.0021 56.563 76.7765 52.189 73.0464 47.7408C69.3164 43.2926 65.7628 38.5318 60.9008 35.3605C59.2712 34.2979 57.5132 33.4411 55.6777 32.8004C76.9552 21.0879 99.124 16.2952 99.124 16.2952C99.124 16.2952 109.7 39.1579 113.377 64.489Z" fill="url(#paint3_linear_320_2238)"/>
<defs>
<linearGradient id="paint0_linear_320_2238" x1="66.0284" y1="89.422" x2="44.3424" y2="134.433" gradientUnits="userSpaceOnUse">
<stop stop-color="#5CA0F8"/>
<stop offset="0.9988" stop-color="#002AE8"/>
</linearGradient>
<linearGradient id="paint1_linear_320_2238" x1="76.35" y1="63.5611" x2="54.3871" y2="109.146" gradientUnits="userSpaceOnUse">
<stop stop-color="#5CA0F8"/>
<stop offset="0.9988" stop-color="#002AE8"/>
</linearGradient>
<linearGradient id="paint2_linear_320_2238" x1="83.6598" y1="44.3059" x2="64.9308" y2="83.1791" gradientUnits="userSpaceOnUse">
<stop stop-color="#5CA0F8"/>
<stop offset="0.9988" stop-color="#002AE8"/>
</linearGradient>
<linearGradient id="paint3_linear_320_2238" x1="100.219" y1="16.0759" x2="79.2813" y2="59.5337" gradientUnits="userSpaceOnUse">
<stop stop-color="#82D1FF"/>
<stop offset="0.9988" stop-color="#002AE8"/>
</linearGradient>
</defs>
</svg>
