<svg width="48" height="48" viewBox="0 0 48 48" fill="none" xmlns="http://www.w3.org/2000/svg">
<rect width="48" height="48" rx="12" fill="#F9A769" fill-opacity="0.2"/>
<path d="M33.92 18.62C33.8185 18.3757 33.6243 18.1815 33.38 18.08C33.2598 18.0288 33.1307 18.0016 33 18H28C27.7348 18 27.4804 18.1054 27.2929 18.2929C27.1054 18.4804 27 18.7348 27 19C27 19.2652 27.1054 19.5196 27.2929 19.7071C27.4804 19.8946 27.7348 20 28 20H30.59L25 25.59L21.71 22.29C21.617 22.1963 21.5064 22.1219 21.3846 22.0711C21.2627 22.0203 21.132 21.9942 21 21.9942C20.868 21.9942 20.7373 22.0203 20.6154 22.0711C20.4936 22.1219 20.383 22.1963 20.29 22.29L14.29 28.29C14.1963 28.383 14.1219 28.4936 14.0711 28.6154C14.0203 28.7373 13.9942 28.868 13.9942 29C13.9942 29.132 14.0203 29.2627 14.0711 29.3846C14.1219 29.5064 14.1963 29.617 14.29 29.71C14.383 29.8037 14.4936 29.8781 14.6154 29.9289C14.7373 29.9797 14.868 30.0058 15 30.0058C15.132 30.0058 15.2627 29.9797 15.3846 29.9289C15.5064 29.8781 15.617 29.8037 15.71 29.71L21 24.41L24.29 27.71C24.383 27.8037 24.4936 27.8781 24.6154 27.9289C24.7373 27.9797 24.868 28.0058 25 28.0058C25.132 28.0058 25.2627 27.9797 25.3846 27.9289C25.5064 27.8781 25.617 27.8037 25.71 27.71L32 21.41V24C32 24.2652 32.1054 24.5196 32.2929 24.7071C32.4804 24.8946 32.7348 25 33 25C33.2652 25 33.5196 24.8946 33.7071 24.7071C33.8946 24.5196 34 24.2652 34 24V19C33.9984 18.8693 33.9712 18.7402 33.92 18.62Z" fill="url(#paint0_linear_36_2427)"/>
<defs>
<linearGradient id="paint0_linear_36_2427" x1="13.9942" y1="24.0029" x2="34" y2="24.0029" gradientUnits="userSpaceOnUse">
<stop stop-color="#FEAC5E"/>
<stop offset="0.5" stop-color="#C779D0"/>
<stop offset="1" stop-color="#4BC0C8"/>
</linearGradient>
</defs>
</svg>
