<svg width="48" height="48" viewBox="0 0 48 48" fill="none" xmlns="http://www.w3.org/2000/svg">
<rect width="48" height="48" rx="12" fill="#AD78F6" fill-opacity="0.1"/>
<path d="M27.5665 31.462C28.2385 31.7157 29.0767 31.875 30.125 31.875C31.1715 31.875 32.0097 31.7175 32.68 31.4638C35.3715 30.4453 35.3715 27.8938 35.3715 27.8938C35.3715 26.709 34.4107 25.75 33.2277 25.75H27.0188C25.834 25.75 24.875 26.709 24.875 27.8938C24.875 27.8938 24.875 30.4435 27.5665 31.4638" fill="url(#paint0_linear_25_2470)"/>
<path d="M27.5665 31.462C28.2385 31.7157 29.0767 31.875 30.125 31.875C31.1715 31.875 32.0097 31.7175 32.68 31.4638C35.3715 30.4453 35.3715 27.8938 35.3715 27.8938C35.3715 26.709 34.4107 25.75 33.2277 25.75H27.0188C25.834 25.75 24.875 26.709 24.875 27.8938C24.875 27.8938 24.875 30.4435 27.5665 31.4638" fill="url(#paint1_radial_25_2470)" fill-opacity="0.5"/>
<path d="M26.625 28.375C26.625 27.6788 26.3484 27.0111 25.8562 26.5188C25.3639 26.0266 24.6962 25.75 24 25.75H15.25C14.5538 25.75 13.8861 26.0266 13.3938 26.5188C12.9016 27.0111 12.625 27.6788 12.625 28.375V28.5062C12.625 28.5062 12.625 33.625 19.625 33.625C26.296 33.625 26.6093 28.977 26.625 28.5395V28.375Z" fill="url(#paint2_linear_25_2470)"/>
<path d="M26.625 28.375C26.625 27.6788 26.3484 27.0111 25.8562 26.5188C25.3639 26.0266 24.6962 25.75 24 25.75H15.25C14.5538 25.75 13.8861 26.0266 13.3938 26.5188C12.9016 27.0111 12.625 27.6788 12.625 28.375V28.5062C12.625 28.5062 12.625 33.625 19.625 33.625C26.296 33.625 26.6093 28.977 26.625 28.5395V28.375Z" fill="url(#paint3_linear_25_2470)"/>
<path d="M30.125 24C31.0533 24 31.9435 23.6313 32.5999 22.9749C33.2563 22.3185 33.625 21.4283 33.625 20.5C33.625 19.5717 33.2563 18.6815 32.5999 18.0251C31.9435 17.3687 31.0533 17 30.125 17C29.1967 17 28.3065 17.3687 27.6501 18.0251C26.9937 18.6815 26.625 19.5717 26.625 20.5C26.625 21.4283 26.9937 22.3185 27.6501 22.9749C28.3065 23.6313 29.1967 24 30.125 24Z" fill="url(#paint4_linear_25_2470)"/>
<path d="M24 19.625C24 20.7853 23.5391 21.8981 22.7186 22.7186C21.8981 23.5391 20.7853 24 19.625 24C18.4647 24 17.3519 23.5391 16.5314 22.7186C15.7109 21.8981 15.25 20.7853 15.25 19.625C15.25 18.4647 15.7109 17.3519 16.5314 16.5314C17.3519 15.7109 18.4647 15.25 19.625 15.25C20.7853 15.25 21.8981 15.7109 22.7186 16.5314C23.5391 17.3519 24 18.4647 24 19.625Z" fill="url(#paint5_linear_25_2470)"/>
<defs>
<linearGradient id="paint0_linear_25_2470" x1="27.3705" y1="26.5638" x2="29.6087" y2="32.6852" gradientUnits="userSpaceOnUse">
<stop offset="0.125" stop-color="#9C6CFE"/>
<stop offset="1" stop-color="#7A41DC"/>
</linearGradient>
<radialGradient id="paint1_radial_25_2470" cx="0" cy="0" r="1" gradientUnits="userSpaceOnUse" gradientTransform="translate(23.545 28.8125) rotate(-7.36814) scale(6.96511 7.21725)">
<stop offset="0.392" stop-color="#3B148A"/>
<stop offset="1" stop-color="#3B148A" stop-opacity="0"/>
</radialGradient>
<linearGradient id="paint2_linear_25_2470" x1="15.9535" y1="26.7965" x2="18.75" y2="34.7345" gradientUnits="userSpaceOnUse">
<stop offset="0.125" stop-color="#BD96FF"/>
<stop offset="1" stop-color="#9C6CFE"/>
</linearGradient>
<linearGradient id="paint3_linear_25_2470" x1="19.625" y1="24.812" x2="23.5625" y2="37.8933" gradientUnits="userSpaceOnUse">
<stop stop-color="#885EDB" stop-opacity="0"/>
<stop offset="1" stop-color="#E362F8"/>
</linearGradient>
<linearGradient id="paint4_linear_25_2470" x1="28.2892" y1="17.931" x2="31.8575" y2="23.6273" gradientUnits="userSpaceOnUse">
<stop offset="0.125" stop-color="#9C6CFE"/>
<stop offset="1" stop-color="#7A41DC"/>
</linearGradient>
<linearGradient id="paint5_linear_25_2470" x1="17.3308" y1="16.4137" x2="21.7898" y2="23.5345" gradientUnits="userSpaceOnUse">
<stop offset="0.125" stop-color="#BD96FF"/>
<stop offset="1" stop-color="#9C6CFE"/>
</linearGradient>
</defs>
</svg>
