<svg width="28" height="28" viewBox="0 0 28 28" fill="none" xmlns="http://www.w3.org/2000/svg">
<g clip-path="url(#clip0_328_3460)">
<path d="M14.1994 20.3437C12.0779 21.3329 11.0172 21.8275 10.0178 21.6737C9.58518 21.6071 9.16989 21.456 8.79566 21.2289C7.93121 20.7043 7.43658 19.6436 6.44733 17.5221C5.45808 15.4007 4.96345 14.34 5.11727 13.3406C5.18386 12.9079 5.33502 12.4926 5.5621 12.1184C6.08666 11.254 7.14739 10.7593 9.26885 9.77008L13.8004 7.65699C15.9218 6.66773 16.9826 6.17311 17.982 6.32693C18.4146 6.39352 18.8299 6.54467 19.2041 6.77176C20.0686 7.29632 20.5632 8.35705 21.5525 10.4785C22.5417 12.6 23.0363 13.6607 22.8825 14.6601C22.8159 15.0927 22.6648 15.508 22.4377 15.8823C21.9131 16.7467 20.8524 17.2413 18.7309 18.2306L14.1994 20.3437Z" stroke="#585858" stroke-width="1.5"/>
<path d="M12.9434 11.7342C14.1948 11.1507 15.6823 11.6921 16.2658 12.9434C16.8493 14.1948 16.3079 15.6822 15.0565 16.2657C13.8052 16.8492 12.3177 16.3078 11.7342 15.0565C11.1507 13.8051 11.6921 12.3177 12.9434 11.7342Z" stroke="#585858" stroke-width="1.5"/>
<path d="M10.1473 18.5547L8.03425 14.0231" stroke="#585858" stroke-width="1.5" stroke-linecap="round"/>
<path d="M19.9657 13.9766L17.8526 9.44502" stroke="#585858" stroke-width="1.5" stroke-linecap="round"/>
</g>
<defs>
<clipPath id="clip0_328_3460">
<rect width="20" height="20" fill="white" transform="translate(0.710693 9.16309) rotate(-25)"/>
</clipPath>
</defs>
</svg>
