<svg width="20" height="20" viewBox="0 0 20 20" fill="none" xmlns="http://www.w3.org/2000/svg">
<path fill-rule="evenodd" clip-rule="evenodd" d="M11.9884 10.2779C11.8735 9.95289 11.6606 9.67149 11.3792 9.47247C11.0977 9.27345 10.7614 9.16661 10.4167 9.16667V8.75H9.58335V9.16667C9.14133 9.16667 8.7174 9.34226 8.40484 9.65482C8.09228 9.96738 7.91669 10.3913 7.91669 10.8333C7.91669 11.2754 8.09228 11.6993 8.40484 12.0118C8.7174 12.3244 9.14133 12.5 9.58335 12.5V14.1667C9.22085 14.1667 8.9121 13.9354 8.7971 13.6112C8.78004 13.5582 8.75252 13.5091 8.71616 13.4669C8.6798 13.4247 8.63534 13.3902 8.58542 13.3655C8.5355 13.3408 8.48112 13.3263 8.42551 13.3229C8.3699 13.3196 8.31418 13.3274 8.26165 13.346C8.20912 13.3645 8.16085 13.3935 8.11968 13.431C8.07852 13.4685 8.0453 13.514 8.022 13.5646C7.99869 13.6152 7.98577 13.6699 7.984 13.7256C7.98223 13.7813 7.99164 13.8368 8.01169 13.8888C8.12657 14.2138 8.33941 14.4952 8.62088 14.6942C8.90236 14.8932 9.23863 15.0001 9.58335 15V15.4167H10.4167V15C10.8587 15 11.2826 14.8244 11.5952 14.5118C11.9078 14.1993 12.0834 13.7754 12.0834 13.3333C12.0834 12.8913 11.9078 12.4674 11.5952 12.1548C11.2826 11.8423 10.8587 11.6667 10.4167 11.6667V10C10.589 9.99996 10.7571 10.0533 10.8979 10.1528C11.0386 10.2523 11.145 10.3929 11.2025 10.5554C11.2393 10.6596 11.316 10.7449 11.4157 10.7926C11.4651 10.8162 11.5186 10.8299 11.5733 10.8328C11.6279 10.8357 11.6826 10.8278 11.7342 10.8096C11.7858 10.7914 11.8333 10.7632 11.874 10.7266C11.9147 10.69 11.9478 10.6458 11.9714 10.5964C11.995 10.547 12.0086 10.4935 12.0115 10.4388C12.0145 10.3842 12.0066 10.3295 11.9884 10.2779ZM9.58335 10C9.36234 10 9.15038 10.0878 8.9941 10.2441C8.83782 10.4004 8.75002 10.6123 8.75002 10.8333C8.75002 11.0543 8.83782 11.2663 8.9941 11.4226C9.15038 11.5789 9.36234 11.6667 9.58335 11.6667V10ZM10.4167 14.1667C10.6377 14.1667 10.8497 14.0789 11.0059 13.9226C11.1622 13.7663 11.25 13.5543 11.25 13.3333C11.25 13.1123 11.1622 12.9004 11.0059 12.7441C10.8497 12.5878 10.6377 12.5 10.4167 12.5V14.1667Z" fill="#585858"/>
<path fill-rule="evenodd" clip-rule="evenodd" d="M5.48043 3.59208C6.50293 3.09167 8.18043 2.5 10.0163 2.5C11.8138 2.5 13.4471 3.06708 14.4642 3.56083L14.5217 3.58875C14.8283 3.74042 15.0758 3.88375 15.25 4L13.7108 6.25C17.2592 9.8775 20 17.4988 10.0163 17.4988C0.0325122 17.4988 2.6996 10.0158 6.27876 6.25L4.7496 4C4.86751 3.92292 5.0171 3.83333 5.19543 3.73833C5.28376 3.69083 5.37876 3.64181 5.48043 3.59208ZM12.7217 6.22042L13.9538 4.41917C12.8079 4.50167 11.4446 4.77083 10.1321 5.15083C9.1946 5.42167 8.15293 5.38042 7.18835 5.2025C6.94526 5.15749 6.70386 5.10385 6.4646 5.04167L7.2646 6.21958C8.97918 6.83 11.0067 6.83 12.7217 6.22042ZM6.78335 6.92917C8.7896 7.70417 11.2008 7.70417 13.2071 6.92833C14.0443 7.8113 14.7448 8.81447 15.2854 9.90458C15.8488 11.0538 16.1554 12.2025 16.1054 13.1925C16.0571 14.1479 15.6813 14.9642 14.8229 15.5708C13.9283 16.2029 12.4238 16.6654 10.0158 16.6654C7.60543 16.6654 6.09376 16.2108 5.19085 15.5858C4.32626 14.9871 3.94668 14.1817 3.89293 13.2392C3.83668 12.26 4.13668 11.1171 4.69793 9.96C5.23335 8.85667 5.98043 7.79458 6.78335 6.92917ZM6.30418 4.13167C6.63751 4.23083 6.98585 4.31708 7.33918 4.3825C8.23501 4.5475 9.13335 4.57167 9.90001 4.34958C10.7934 4.08921 11.7021 3.88451 12.6208 3.73667C11.8542 3.50583 10.9575 3.33333 10.0158 3.33333C8.58043 3.33333 7.24168 3.73375 6.30418 4.13167Z" fill="#585858"/>
</svg>
