<svg width="20" height="20" viewBox="0 0 20 20" fill="none" xmlns="http://www.w3.org/2000/svg">
<path d="M10 17.5C8.65556 17.5 7.55556 17.3286 6.7 16.9858C5.84444 16.6425 5.41667 16.1997 5.41667 15.6575C5.41667 15.3986 5.53889 15.1508 5.78333 14.9142C6.02722 14.6775 6.36167 14.4764 6.78667 14.3108L7.4425 14.8675C7.21083 14.9547 6.97111 15.0706 6.72333 15.215C6.47611 15.3594 6.32139 15.5014 6.25917 15.6408C6.35472 15.9169 6.75806 16.1569 7.46917 16.3608C8.18028 16.5647 9.02139 16.6667 9.9925 16.6667C10.9636 16.6667 11.8078 16.5647 12.525 16.3608C13.2422 16.1569 13.6489 15.9169 13.745 15.6408C13.7017 15.4981 13.5419 15.3544 13.2658 15.21C12.9897 15.0656 12.7292 14.9497 12.4842 14.8625L13.1342 14.3017C13.5981 14.4706 13.9556 14.6733 14.2067 14.91C14.4578 15.1461 14.5833 15.3928 14.5833 15.65C14.5833 16.1944 14.1556 16.6389 13.3 16.9833C12.4444 17.3278 11.3444 17.5 10 17.5ZM10.0208 13.9583C11.4064 12.8806 12.4439 11.8258 13.1333 10.7942C13.8228 9.7625 14.1672 8.74861 14.1667 7.7525C14.1667 6.29417 13.7178 5.19306 12.82 4.44917C11.9233 3.70528 10.9861 3.33333 10.0083 3.33333C9.03056 3.33333 8.09028 3.70556 7.1875 4.45C6.28472 5.19444 5.83333 6.29722 5.83333 7.75833C5.83333 8.71778 6.17639 9.70889 6.8625 10.7317C7.54806 11.7544 8.60083 12.83 10.0208 13.9583ZM10 15C8.32167 13.7256 7.06889 12.4875 6.24167 11.2858C5.41444 10.0842 5.00056 8.9075 5 7.75583C5 6.88583 5.15028 6.12472 5.45083 5.4725C5.75194 4.81972 6.14278 4.27278 6.62333 3.83167C7.10389 3.39056 7.64167 3.05833 8.23667 2.835C8.83167 2.61167 9.42028 2.5 10.0025 2.5C10.5847 2.5 11.1725 2.61167 11.7658 2.835C12.3592 3.05833 12.8961 3.39056 13.3767 3.83167C13.8572 4.27278 14.2481 4.82 14.5492 5.47333C14.8503 6.12667 15.0006 6.88667 15 7.75333C15 8.90556 14.5861 10.0825 13.7583 11.2842C12.9306 12.4858 11.6778 13.7244 10 15ZM10.0083 8.99083C10.3756 8.99083 10.6903 8.86222 10.9525 8.605C11.2147 8.34778 11.3458 8.03028 11.3458 7.6525C11.3458 7.27472 11.2142 6.95444 10.9508 6.69167C10.6875 6.42889 10.3706 6.29778 10 6.29833C9.63778 6.29833 9.32278 6.43 9.055 6.69333C8.78722 6.95667 8.65333 7.27361 8.65333 7.64417C8.65333 8.0275 8.78722 8.34778 9.055 8.605C9.32278 8.86222 9.64028 8.99083 10.0075 8.99083" fill="#585858"/>
</svg>
