<svg width="20" height="20" viewBox="0 0 20 20" fill="none" xmlns="http://www.w3.org/2000/svg">
<g clip-path="url(#clip0_328_3517)">
<path d="M1.66669 11.6667C1.66669 8.52397 1.66669 6.95262 2.643 5.97631C3.61931 5 5.19066 5 8.33335 5H11.6667C14.8094 5 16.3807 5 17.357 5.97631C17.9014 6.52063 18.1422 7.24991 18.2488 8.33333M18.3334 11.6667C18.3334 14.8094 18.3334 16.3807 17.357 17.357C16.3807 18.3333 14.8094 18.3333 11.6667 18.3333H8.33335C5.19067 18.3333 3.61931 18.3333 2.643 17.357C2.09868 16.8127 1.85783 16.0834 1.75126 15" stroke="#585858" stroke-width="1.5" stroke-linecap="round"/>
<path d="M13.3334 5.00033C13.3334 3.42898 13.3334 2.6433 12.8452 2.15515C12.357 1.66699 11.5714 1.66699 10 1.66699C8.42867 1.66699 7.643 1.66699 7.15484 2.15515C6.66669 2.6433 6.66669 3.42898 6.66669 5.00033" stroke="#585858" stroke-width="1.5"/>
<path d="M14.1667 7.50033C14.1667 7.96056 13.7936 8.33366 13.3333 8.33366C12.8731 8.33366 12.5 7.96056 12.5 7.50033C12.5 7.04009 12.8731 6.66699 13.3333 6.66699C13.7936 6.66699 14.1667 7.04009 14.1667 7.50033Z" fill="#585858"/>
<path d="M7.49998 7.50033C7.49998 7.96056 7.12688 8.33366 6.66665 8.33366C6.20641 8.33366 5.83331 7.96056 5.83331 7.50033C5.83331 7.04009 6.20641 6.66699 6.66665 6.66699C7.12688 6.66699 7.49998 7.04009 7.49998 7.50033Z" fill="#585858"/>
</g>
<defs>
<clipPath id="clip0_328_3517">
<rect width="20" height="20" fill="white"/>
</clipPath>
</defs>
</svg>
