<svg xmlns="http://www.w3.org/2000/svg" version="1.1" xmlns:xlink="http://www.w3.org/1999/xlink" xmlns:svgjs="http://svgjs.dev/svgjs" width="1440" height="1440" preserveAspectRatio="none" viewBox="0 0 560 1440">
    <g mask="url(&quot;#SvgjsMask1009&quot;)" fill="none">
        <path d="M0 8.36C2.15 -3.48 12.18 0.79 25.45 0C82.18 -3.39 82.72 0 140 0C210 0 210 0 280 0C336.34 0 367.34 -31.22 392.68 0C424.16 38.78 403.71 71.51 393.65 140C383.15 211.51 355.85 209.04 351.56 280C347.39 349.04 351.88 357.65 376.73 420C386.1 443.52 400.21 451.73 420 451.73C435.37 451.73 432.13 434.53 447.05 420C502.13 366.35 526.38 315.37 560 315.37C582.85 315.37 560 367.68 560 420C560 490 560 490 560 560C560 606.22 587.61 629.58 560 652.45C517.61 687.58 485.69 656.57 420 676C405.32 680.34 399.26 688.44 399.26 700C399.26 710.56 406.23 717.84 420 720.24C486.6 731.84 521.08 694.71 560 728C591.08 754.59 560 784 560 840C560 910 560 910 560 980C560 1050 560 1050 560 1120C560 1175.8 572.11 1181.43 560 1231.59C555.21 1251.43 526.21 1241.67 526.21 1260C526.21 1296.71 549.82 1299.5 560 1341.67C566.72 1369.5 560 1370.84 560 1400C560 1419.45 566.04 1420.77 560 1438.89C542.7 1490.77 551.41 1512.5 513.33 1540C481.41 1563.05 466.66 1540 420 1540C350 1540 350 1540 280 1540C251.48 1540 236.82 1559.66 222.96 1540C187.46 1489.66 195.39 1471.32 181.28 1400C167.7 1331.32 181.18 1328.33 167.58 1260C160.54 1224.62 155.73 1192.59 140 1192.59C123.37 1192.59 109.28 1223.21 102.86 1260C91.19 1326.92 101.62 1330.05 103.82 1400C106.02 1470.05 140.55 1501.03 111.65 1540C88.64 1571.03 24.77 1571.06 0 1540C-31.06 1501.06 0 1470 0 1400C0 1330 0 1330 0 1260C0 1190 0 1190 0 1120C0 1064.74 -16.25 1055.51 0 1009.47C8.46 985.51 49.41 993.54 49.41 980C49.41 967.14 7.88 979 0 956.67C-16.83 909 0 898.34 0 840C0 770 0 770 0 700C0 630 0 630 0 560C0 490.94 -2.18 489.49 0 421.89C0.08 419.49 4.52 421.77 4.52 420C4.52 416.45 0.16 416.14 0 411.25C-2.1 346.14 0 345.63 0 280C0 210 0 210 0 140C0 74.18 -10.57 66.52 0 8.36" stroke="rgba(51, 121, 194, 0.58)" stroke-width="2"></path>
        <path d="M560 119C540.56 119 487.88 39.19 487.88 0C487.88 -20.31 546.39 -22.45 560 0C582.45 37.05 576.62 119 560 119" stroke="rgba(51, 121, 194, 0.58)" stroke-width="2"></path>
        <path d="M140 273.91C131.98 273.91 123.53 276.4 123.53 280C123.53 283.82 132.15 288.75 140 288.75C145.98 288.75 151.2 283.91 151.2 280C151.2 276.49 145.82 273.91 140 273.91" stroke="rgba(51, 121, 194, 0.58)" stroke-width="2"></path>
        <path d="M140 660C137.25 660 133 681.42 133 700C133 703.96 136.86 705.09 140 705.09C142.33 705.09 143.94 703.11 143.94 700C143.94 680.57 142.72 660 140 660" stroke="rgba(51, 121, 194, 0.58)" stroke-width="2"></path>
        <path d="M280 922.35C257.37 922.35 225.56 950.33 225.56 980C225.56 1011.82 257.72 1045.33 280 1045.33C298.55 1045.33 307.22 1012.35 307.22 980C307.22 950.86 298.2 922.35 280 922.35" stroke="rgba(51, 121, 194, 0.58)" stroke-width="2"></path>
        <path d="M0 60.6C44.88 27.8 78.4 60.96 140 37.69C158.61 30.66 141.95 4.97 160.42 0C211.95 -13.87 220.21 0 280 0C315 0 337.92 -23.33 350 0C374.16 46.67 369.24 74.39 352.47 140C334.24 211.35 331.91 259.78 280 273.91C225.68 288.7 212.18 203.78 140 197.83C72.18 192.24 40.22 267.44 0 250.83C-29.78 238.53 0 195.42 0 140C0 100.3 -25.12 78.96 0 60.6" stroke="rgba(51, 121, 194, 0.58)" stroke-width="2"></path>
        <path d="M117.42 420C131.28 412.96 127.42 407.52 140 398.13C208.71 346.85 230.04 292.36 280 298.67C316.59 303.29 279.01 371.38 313.09 420C349.01 471.25 371.12 498.4 420 498.4C457.98 498.4 451.26 457.13 486.82 420C521.26 384.04 538.21 352.21 560 352.21C574.8 352.21 560 386.11 560 420C560 490 560 490 560 560C560 573.21 570.76 581.35 560 586.42C500.76 614.35 480.98 592.04 420 626C379.01 648.83 356.05 664.36 356.05 700C356.05 732.56 380.28 749.38 420 762.41C482.26 782.83 514.01 741.4 560 766.89C584.01 780.19 560 803.44 560 840C560 910 560 910 560 980C560 1050 560 1050 560 1120C560 1150.43 575.17 1180.87 560 1180.87C534.79 1180.87 517.99 1152.36 479.23 1120C447.99 1093.92 446.86 1094.48 420 1064C385.16 1024.48 381.61 1025.74 355.83 980C318.48 913.74 327.3 908.31 293.73 840C289.39 831.16 287.63 825.71 280 825.71C270.16 825.71 267.78 830.96 258.79 840C197.78 901.33 209.04 948.29 140 966.45C79.64 982.32 48.32 951.7 0 908.06C-21.68 888.48 0 874.03 0 840C0 770 0 770 0 700C0 630 0 630 0 560C0 514.6 -24.44 498.33 0 469.19C34.27 428.33 61.28 448.49 117.42 420" stroke="rgba(51, 121, 194, 0.58)" stroke-width="2"></path>
        <path d="M140 448C109.25 448 119.77 504.13 98.82 560C72.52 630.13 33.93 641.37 45.5 700C54.52 745.73 97.64 768.73 140 768.73C171.51 768.73 175.26 738.86 193.24 700C223.54 634.5 249.8 622.72 236.55 560C223.18 496.72 178.11 448 140 448" stroke="rgba(51, 121, 194, 0.58)" stroke-width="2"></path>
        <path d="M0 1070.88C30.56 1070.88 83.98 1081.83 90.32 1120C99.69 1176.39 38.06 1188.1 31.43 1260C25.15 1328.1 55.39 1329.06 64.49 1400C73.35 1469.06 89.11 1492.73 67.34 1540C56.87 1562.73 10.94 1562.73 0 1540C-22.73 1492.73 0 1470 0 1400C0 1330 0 1330 0 1260C0 1190 0 1190 0 1120C0 1095.44 -14.6 1070.88 0 1070.88" stroke="rgba(51, 121, 194, 0.58)" stroke-width="2"></path>
        <path d="M220.61 1260C233.11 1202.9 234.71 1168.79 280 1154.05C334.4 1136.35 359.83 1160.82 420 1195.12C452.76 1213.8 449.39 1224.24 465.86 1260C496.57 1326.68 513.7 1329.8 514.35 1400C515 1469.8 503.96 1487.33 468.46 1540C456.78 1557.33 444.23 1540 420 1540C373.9 1540 368.77 1553.04 327.8 1540C298.77 1530.76 298.98 1521.6 280 1495.45C248.16 1451.6 239.18 1451.67 226.15 1400C209.49 1333.94 206.19 1325.87 220.61 1260" stroke="rgba(51, 121, 194, 0.58)" stroke-width="2"></path>
        <path d="M0 112.84C37.63 112.84 95.79 124.01 95.79 140C95.79 156.55 35.01 177.92 0 177.92C-12.89 177.92 0 158.96 0 140C0 126.42 -10.26 112.84 0 112.84" stroke="rgba(51, 121, 194, 0.58)" stroke-width="2"></path>
        <path d="M173.6 140C160.6 84.91 192.61 53.57 233.33 0C245.81 -16.43 256.66 0 280 0C293.66 0 304.77 -11.43 307.32 0C320.41 58.57 320.59 72.69 311.29 140C306.93 171.6 304.23 197.83 280 197.83C235.38 197.83 183.94 183.83 173.6 140" stroke="rgba(51, 121, 194, 0.58)" stroke-width="2"></path>
        <path d="M526.59 420C526.59 400.83 550.05 389.05 560 389.05C566.76 389.05 560 404.52 560 420C560 460.84 568.03 501.67 560 501.67C551.32 501.67 526.59 457.14 526.59 420" stroke="rgba(51, 121, 194, 0.58)" stroke-width="2"></path>
        <path d="M0 516.49C14.12 516.49 47.35 534.03 47.35 560C47.35 601.79 12.53 652 0 652C-11.14 652 0 606 0 560C0 538.24 -9.55 516.49 0 516.49" stroke="rgba(51, 121, 194, 0.58)" stroke-width="2"></path>
        <path d="M373.33 560C373.33 552.29 396.62 545.07 420 545.07C444.3 545.07 468.7 552.29 468.7 560C468.7 567.76 444.3 576 420 576C396.61 576 373.33 567.76 373.33 560" stroke="rgba(51, 121, 194, 0.58)" stroke-width="2"></path>
        <path d="M242.54 700C242.54 663.37 262.22 624 280 624C297.37 624 312.84 663.12 312.84 700C312.84 728.26 297.23 754.29 280 754.29C262.08 754.29 242.54 728.52 242.54 700" stroke="rgba(51, 121, 194, 0.58)" stroke-width="2"></path>
        <path d="M0 776.36C49.22 773.67 70.48 803.39 140 832.36C146.85 835.21 152.73 835.3 152.73 840C152.73 845.89 148.95 852.41 140 853.55C72.58 862.13 61.47 865.39 0 859.44C-8.53 858.61 0 849.72 0 840C0 808.18 -20.78 777.49 0 776.36" stroke="rgba(51, 121, 194, 0.58)" stroke-width="2"></path>
        <path d="M362.35 840C364.81 812.25 387.8 810.15 420 804.58C486.63 793.04 503.75 791.55 560 805.78C573.75 809.26 560 822.89 560 840C560 886.66 580.24 898.37 560 933.33C539.72 968.37 520.95 959.89 478.95 980C450.95 993.41 446.41 1000.36 420 1000.36C409.15 1000.36 408.74 991.96 404.44 980C379.91 911.78 357.03 899.96 362.35 840" stroke="rgba(51, 121, 194, 0.58)" stroke-width="2"></path>
        <path d="M546.54 1120C546.54 1100.31 556.56 1076.25 560 1076.25C563.29 1076.25 560 1098.13 560 1120C560 1125.07 562.53 1130.14 560 1130.14C555.8 1130.14 546.54 1127.25 546.54 1120" stroke="rgba(51, 121, 194, 0.58)" stroke-width="2"></path>
        <path d="M273.64 1260C274.02 1253.57 274.35 1248.65 280 1248.65C300.86 1248.65 306.26 1248.14 326.67 1260C376.26 1288.81 385.56 1286.79 420 1330C441.36 1356.79 437.65 1364.36 438.26 1400C439.45 1469.36 432.49 1471.74 423.59 1540C423.36 1541.74 421.79 1540 420 1540C416.59 1540 415.7 1542.24 413.17 1540C345.7 1480.2 344.59 1479.53 280 1415.91C273.52 1409.53 271.4 1408.99 271.03 1400C268.22 1331.04 269.54 1329.24 273.64 1260" stroke="rgba(51, 121, 194, 0.58)" stroke-width="2"></path>
        <path d="M0 1325.33C6.46 1325.33 21.02 1361.35 25.17 1400C32.54 1468.68 33.85 1479.89 23.04 1540C21.26 1549.89 1.63 1549.89 0 1540C-9.89 1479.89 0 1470 0 1400C0 1362.66 -6.12 1325.33 0 1325.33" stroke="rgba(51, 121, 194, 0.58)" stroke-width="2"></path>
    </g>
    <defs>
        <mask id="SvgjsMask1009">
            <rect width="560" height="1440" fill="#ffffff"></rect>
        </mask>
    </defs>
</svg>